<svg width="349" height="186" viewBox="0 0 349 186" fill="none" xmlns="http://www.w3.org/2000/svg">
<g clip-path="url(#clip0)">
<path d="M269.616 177.516C267.122 180.714 264.229 183.213 264.828 184.312C264.828 184.312 266.124 185.312 269.815 185.312C276.1 185.312 282.285 184.812 281.288 184.212C279.891 183.313 275.801 183.013 271.91 181.614C270.913 181.314 274.005 179.415 273.207 179.115C271.412 178.415 270.015 177.915 269.616 177.516Z" fill="#002E4F"/>
<path d="M334.357 184.113C334.357 184.113 335.155 185.312 338.347 185.312C343.834 185.312 349.42 184.613 348.622 184.013C347.425 183.213 337.848 181.214 337.848 181.214L335.753 178.516L332.162 180.515L334.357 184.113Z" fill="#002E4F"/>
<path d="M317.1 103.853C313.21 103.853 310.217 103.054 310.017 103.054C308.022 102.454 306.825 100.355 307.324 98.3561C307.923 96.3571 310.017 95.1577 312.013 95.6575C312.112 95.6575 320.691 97.8564 325.779 93.5585C329.171 90.6599 330.368 85.2625 329.57 77.3664L329.27 74.8676L336.952 70.4698C338.747 69.4703 341.142 70.07 342.139 71.8691C343.137 73.6682 342.538 76.067 340.743 77.0666L337.351 78.9656C337.85 88.1611 335.655 94.9578 330.667 99.2557C326.477 102.954 321.29 103.853 317.1 103.853Z" fill="#64AECE"/>
<path d="M330.368 82.5625C330.268 88.1598 328.772 92.1578 325.978 94.5566C320.492 99.2543 311.115 96.8555 310.915 96.8555C308.721 96.2558 306.426 97.5552 305.828 99.854C305.229 102.053 306.526 104.352 308.721 105.051C309.02 105.151 312.212 106.751 316.502 106.551C332.762 105.951 342.538 91.9579 342.738 83.7619L330.368 82.5625Z" fill="#E1F3F6"/>
<path d="M308.021 63.0716C306.525 62.372 305.128 61.6723 303.731 60.9727C290.264 68.6689 273.106 78.4641 272.707 78.8639C272.707 78.8639 281.286 92.4573 281.785 93.057C282.184 93.4568 303.332 78.1643 318.595 67.1696C315.104 65.7703 311.413 64.6708 308.021 63.0716Z" fill="#008DC4"/>
<path d="M308.221 62.6713C311.712 64.2705 315.403 65.37 318.994 66.7693C327.374 60.6723 333.858 55.9746 333.858 55.9746L319.593 51.9766C319.593 51.9766 312.71 55.8747 304.23 60.7723C305.527 61.4719 306.824 62.0716 308.221 62.6713Z" fill="#64AECE"/>
<path d="M283.482 44.7759L291.962 67.7647L308.422 73.7617L287.572 35.4805L283.482 44.7759Z" fill="#006091"/>
<path d="M309.319 79.4609H297.148L308.022 98.4516L324.582 105.548L309.319 79.4609Z" fill="#006091"/>
<path d="M324.582 105.549L314.806 88.8567L273.108 113.345L264.928 99.3516L270.115 16.0923L288.869 5.09766L322.587 62.6695L333.959 55.9728L343.436 72.0649L332.064 78.7616L341.84 95.4535L324.582 105.549ZM286.774 40.8802L285.677 41.4799L282.884 85.9581L305.429 72.6646L286.774 40.8802Z" fill="#0076AD"/>
<path d="M251.16 95.5547L265.026 99.3528L273.206 113.346L258.542 109.648L251.16 95.5547Z" fill="#008DC4"/>
<path d="M251.16 95.5518L265.026 99.35L270.114 16.0907L257.445 12.9922L251.16 95.5518Z" fill="#64AECE"/>
<path d="M257.445 12.9951L270.114 16.0935L288.869 5.09892L276 1.30078L257.445 12.9951Z" fill="#00D2FD"/>
<path d="M285.278 128.738C285.278 128.738 287.274 150.728 287.274 158.424C287.274 158.424 271.313 170.918 267.322 177.414C269.018 178.714 272.31 180.413 274.505 180.313C285.179 170.118 296.85 162.822 296.85 162.822C296.85 162.822 301.938 148.129 303.434 135.735L285.278 128.738Z" fill="#1B2F39"/>
<path d="M296.75 129.735C300.341 129.735 304.032 129.136 307.124 127.436C306.127 123.039 308.321 110.045 311.115 103.148C311.115 103.148 313.309 98.3507 311.813 96.8514C306.127 91.3541 301.239 91.8539 299.742 91.7539C294.555 96.1518 284.779 109.245 285.178 126.437C287.772 129.236 293.258 129.735 296.75 129.735Z" fill="#E1F3F6"/>
<path d="M331.962 181.113C334.057 180.513 336.052 179.613 337.349 177.814C331.164 167.819 308.519 130.937 307.322 128.039C307.322 127.939 307.222 127.839 307.222 127.839C303.93 129.638 299.94 130.237 296.049 130.138C292.658 130.038 287.869 129.538 285.076 127.039C285.076 127.239 285.076 127.439 285.076 127.539C285.575 137.134 317.397 169.218 329.967 181.512C330.665 181.512 331.363 181.313 331.962 181.113Z" fill="#455A64"/>
<path d="M266.224 119.744C265.327 119.744 264.529 119.644 263.631 119.344C261.935 118.745 259.74 117.345 258.643 113.847C258.044 111.848 259.241 109.649 261.237 109.049C263.232 108.45 265.426 109.649 266.025 111.648C266.125 111.848 266.125 112.048 266.224 112.148C266.623 112.148 268.12 112.048 271.811 109.849C275.103 107.95 278.993 105.051 282.784 102.253C289.168 97.555 295.154 93.0572 300.142 91.558C302.137 90.9583 304.331 92.0577 304.93 94.0567C305.529 96.0558 304.431 98.2547 302.436 98.8544C298.645 100.054 292.959 104.352 287.373 108.45C279.193 114.447 271.911 119.744 266.224 119.744Z" fill="#64AECE"/>
<path d="M273.407 116.946C272.908 114.647 272.409 112.248 271.013 110.349C267.92 112.048 266.623 112.148 266.224 112.148C266.224 112.048 266.125 111.948 266.025 111.648C265.426 109.649 263.331 108.45 261.237 109.049C259.241 109.649 258.044 111.748 258.643 113.847C259.74 117.445 261.935 118.845 263.631 119.344C264.429 119.644 265.327 119.744 266.224 119.744C268.419 119.744 270.913 118.945 273.507 117.645C273.507 117.345 273.407 117.145 273.407 116.946Z" fill="#64AECE"/>
<path d="M304.831 93.9552C304.232 91.9562 302.038 90.8567 300.042 91.4564C295.055 93.0556 289.069 97.4535 282.685 102.151C278.894 104.95 275.003 107.848 271.712 109.747C271.512 109.847 271.412 109.947 271.312 109.947C272.709 111.846 275.203 121.142 275.303 121.342C279.393 119.243 298.746 104.45 302.935 99.9523C304.432 98.5529 305.529 95.9542 304.831 93.9552Z" fill="#E1F3F6"/>
<path d="M260.839 116.646C260.639 116.646 260.34 116.546 260.141 116.446C257.148 114.347 255.552 110.149 255.552 109.949C255.352 109.35 255.652 108.75 256.25 108.55C256.849 108.35 257.447 108.65 257.647 109.25C257.647 109.25 259.043 112.948 261.437 114.647C261.936 115.047 262.036 115.746 261.737 116.246C261.537 116.546 261.138 116.646 260.839 116.646Z" fill="#64AECE"/>
<path d="M260.837 113.947C260.438 113.947 260.138 113.747 259.939 113.447C258.542 111.448 257.345 106.551 257.245 106.051C257.146 105.451 257.445 104.852 258.044 104.652C258.642 104.552 259.241 104.852 259.44 105.451C259.739 106.851 260.837 110.649 261.834 112.048C262.233 112.548 262.034 113.248 261.535 113.647C261.335 113.847 261.036 113.947 260.837 113.947Z" fill="#64AECE"/>
<path d="M262.435 113.246C262.036 113.246 261.538 112.946 261.438 112.547C260.44 110.048 260.041 104.75 259.941 104.45C259.941 103.851 260.34 103.251 260.939 103.251C261.538 103.151 262.136 103.651 262.136 104.251C262.236 105.65 262.635 109.748 263.433 111.647C263.632 112.247 263.433 112.846 262.834 113.146C262.635 113.246 262.535 113.246 262.435 113.246Z" fill="#64AECE"/>
<path d="M264.031 112.743C263.532 112.743 263.033 112.443 262.933 111.943C262.235 109.145 262.834 106.346 262.933 106.246C263.033 105.646 263.731 105.247 264.33 105.447C264.928 105.546 265.327 106.146 265.128 106.846C265.128 106.946 264.629 109.245 265.128 111.444C265.327 112.043 264.928 112.643 264.33 112.843C264.23 112.743 264.13 112.743 264.031 112.743Z" fill="#64AECE"/>
<path d="M309.221 100.048C308.722 100.048 308.223 99.9484 307.725 99.7485C305.929 98.9489 305.131 96.75 306.029 94.9509C306.927 93.0518 308.523 91.1527 308.722 90.9528C310.019 89.4535 312.314 89.2536 313.81 90.553C315.306 91.8524 315.506 94.1512 314.209 95.6505C313.71 96.1503 312.912 97.3497 312.513 98.1493C311.815 99.3487 310.518 100.048 309.221 100.048Z" fill="#64AECE"/>
<path d="M309.719 98.2515C310.118 98.7513 310.617 99.1511 311.016 99.5509C311.615 99.1511 312.114 98.6513 312.413 98.0516C312.812 97.252 313.61 96.1526 314.109 95.5529C315.406 94.0536 315.206 91.7547 313.71 90.4554C312.213 89.156 309.919 89.3559 308.622 90.8552C308.522 90.9551 308.223 91.255 307.924 91.7547C307.924 94.1535 308.123 96.5524 309.719 98.2515Z" fill="#0086CF"/>
<path d="M321.489 94.2552C320.093 97.7535 316.102 99.3527 312.611 97.9534C309.119 96.5541 307.523 92.5561 308.92 89.0578L310.715 84.6599C312.112 81.1616 316.102 79.5624 319.594 80.9617C323.085 82.3611 324.681 86.3591 323.285 89.8574L321.489 94.2552Z" fill="#64AECE"/>
<path d="M309.718 88.557C309.119 90.8559 305.827 90.1563 304.531 88.9569C302.835 87.2577 301.737 82.56 305.628 82.7599C302.835 78.5619 312.212 74.0641 313.209 78.8618C313.908 77.6624 314.706 76.463 316.302 76.363C317.499 76.2631 319.494 77.1626 319.394 78.6619C321.19 77.2626 323.684 77.3625 325.38 78.7618C325.978 79.1616 326.976 80.1612 326.477 80.9608C326.178 81.3606 324.781 81.4605 324.282 81.6604C325.081 81.2606 328.472 82.0602 327.774 83.4595C327.475 84.1592 325.879 83.5595 325.38 83.3596C325.38 83.3596 325.38 83.5595 325.38 83.4595C327.175 84.4591 327.874 85.4586 327.674 87.6575C327.574 88.657 327.076 90.656 325.879 90.756C325.28 90.8559 324.582 90.4561 324.582 89.7565C326.078 91.2557 323.983 95.2538 322.088 93.2548C321.39 92.4551 321.689 91.1558 322.387 90.5561C321.29 89.9564 318.896 86.558 320.591 85.5585C319.793 85.5585 316.102 84.3591 317.2 83.2596C317.499 84.4591 316.003 86.1582 314.706 85.4586C315.504 87.1577 313.209 88.3571 311.813 88.4571C312.611 89.5566 310.017 90.756 309.219 89.2567L309.718 88.557Z" fill="#00396A"/>
<path d="M182.131 74.9691C182.131 74.9691 179.936 66.5732 190.81 64.5742L189.912 74.6693L182.131 74.9691Z" fill="#0089E0"/>
<path d="M138.736 96.1575C136.342 96.1575 134.147 95.6577 132.152 94.7582C122.376 90.0605 121.278 76.1673 121.179 75.5676C121.079 73.4686 122.575 71.6695 124.67 71.4696C126.765 71.3696 128.561 72.8689 128.76 74.9678C128.96 77.7665 130.556 85.5627 135.344 87.8615C139.334 89.7606 145.419 87.8615 153.101 82.3642C154.797 81.1648 157.191 81.5646 158.388 83.2638C159.585 84.963 159.186 87.3618 157.49 88.5612C150.507 93.5588 144.222 96.1575 138.736 96.1575Z" fill="#CDE5E8"/>
<path d="M159.088 103.256C160.186 100.457 161.183 97.6583 162.28 94.8597C161.482 94.7597 160.684 94.6598 159.986 94.5598C156.295 93.8602 153.103 92.3609 150.609 90.062C148.015 87.7631 146.02 84.8646 144.623 81.2663C143.227 77.768 142.429 73.67 142.229 69.1722C142.03 64.6744 142.329 59.8768 143.327 54.8792C144.324 49.7817 145.721 45.1839 147.616 41.086C149.512 36.988 151.706 33.5896 154.3 30.791C156.894 27.9924 159.787 25.9933 163.078 24.7939C166.271 23.5945 169.762 23.3946 173.453 24.0943C176.346 24.694 178.94 25.7934 181.234 27.3926C182.332 25.1937 183.529 23.0947 184.626 20.9958C185.923 18.497 187.12 15.8983 188.317 13.3995C188.816 12.3 189.215 11.2006 189.714 10.0011C185.923 7.90218 181.733 6.30296 177.044 5.4034C170.46 4.10403 164.176 4.40389 158.39 6.10306C152.604 7.80222 147.317 10.8008 142.628 14.8988C137.94 18.9968 133.949 24.0943 130.757 30.2912C127.465 36.4882 125.171 43.3848 123.675 50.9811C122.178 58.5774 121.879 65.8738 122.577 72.8704C123.375 79.867 125.071 86.064 127.964 91.5613C130.757 97.0586 134.648 101.756 139.436 105.554C143.925 109.053 149.113 111.452 155.198 112.851C156.495 109.752 157.791 106.554 159.088 103.256Z" fill="#64AECE"/>
<path d="M210.76 45.7834C209.962 38.7869 208.266 32.5899 205.373 27.0926C202.58 21.5953 198.689 16.8976 194.001 13.0994C192.704 12.0999 191.407 11.2003 189.911 10.3008C189.512 11.4002 189.013 12.5997 188.514 13.6991C187.317 16.2978 186.12 18.7966 184.823 21.2954C183.726 23.3944 182.529 25.5933 181.431 27.7922C181.83 28.0921 182.229 28.3919 182.529 28.6918C185.122 30.9907 187.117 33.8892 188.514 37.4875C190.01 41.0857 190.808 45.0838 191.008 49.4816C191.208 53.9794 190.908 58.7771 189.911 63.8746C188.913 68.8721 187.517 73.4699 185.621 77.5679C183.726 81.6659 181.531 85.1642 178.838 87.8629C176.144 90.6615 173.251 92.6605 169.959 93.8599C167.565 94.7595 165.071 95.1593 162.478 94.9594C161.181 97.9579 160.183 101.056 158.986 104.155C157.889 107.153 156.592 110.152 155.195 113.051C155.495 113.15 155.794 113.15 156.093 113.25C162.677 114.55 168.962 114.25 174.748 112.551C180.534 110.852 185.821 107.853 190.509 103.755C195.198 99.6571 199.188 94.5596 202.38 88.3626C205.672 82.1656 207.967 75.269 209.463 67.6727C211.159 59.9765 211.558 52.78 210.76 45.7834Z" fill="#006091"/>
<path d="M168.066 117.248C161.482 115.949 155.796 113.45 151.008 109.652C146.219 105.854 142.429 101.256 139.635 95.6589C136.842 90.1616 135.047 83.8647 134.249 76.9681C133.45 69.9715 133.849 62.775 135.346 55.0788C136.842 47.4825 139.137 40.5859 142.429 34.3889C145.721 28.1919 149.611 23.0944 154.3 18.9964C158.988 14.8984 164.176 11.9998 170.061 10.2007C175.847 8.50154 182.132 8.20169 188.716 9.50105C195.3 10.8004 200.986 13.2992 205.774 17.0973C210.562 20.8955 214.353 25.4932 217.246 31.0905C220.039 36.5878 221.835 42.8847 222.633 49.7814C223.431 56.7779 223.032 63.9744 221.536 71.6706C220.039 79.2669 217.745 86.1636 214.453 92.3605C211.161 98.5575 207.27 103.655 202.582 107.753C197.893 111.851 192.706 114.75 186.82 116.549C180.835 118.248 174.65 118.448 168.066 117.248ZM171.558 98.5575C175.149 99.2572 178.541 98.9573 181.832 97.7579C185.025 96.5585 188.017 94.5595 190.711 91.7608C193.404 88.9622 195.599 85.5639 197.494 81.4659C199.39 77.3679 200.786 72.7701 201.784 67.7726C202.781 62.675 203.081 57.8774 202.881 53.3796C202.682 48.8818 201.784 44.8838 200.387 41.3855C198.891 37.7872 196.896 34.8886 194.402 32.5898C191.808 30.2909 188.716 28.7916 185.124 28.092C181.433 27.3923 177.942 27.5922 174.75 28.7916C171.558 29.991 168.565 31.9901 165.971 34.7887C163.377 37.5873 161.183 40.9857 159.287 45.0836C157.392 49.1816 155.995 53.7794 154.998 58.8769C154 63.8745 153.701 68.6721 153.901 73.1699C154.1 77.6677 154.898 81.6658 156.295 85.264C157.691 88.7623 159.686 91.7608 162.28 94.0597C164.774 96.3586 167.867 97.8578 171.558 98.5575Z" fill="#0076AD"/>
<path d="M235.399 61.0703L235.699 75.1634C235.699 75.1634 231.708 78.7616 228.117 75.1634L229.414 59.3711L235.399 61.0703Z" fill="#00396A"/>
<path d="M218.839 173.217C218.639 173.017 217.043 172.317 216.844 172.117C216.046 173.417 215.447 174.116 214.449 175.116C216.943 177.315 216.245 179.913 216.245 179.913C216.245 179.913 214.449 181.413 213.851 181.713C211.656 182.812 207.666 184.311 207.666 184.311L217.841 185.111L225.323 177.415C222.63 175.915 220.535 174.616 218.839 173.217Z" fill="#002E4F"/>
<path d="M179.137 173.816C177.541 173.516 175.446 174.815 174.149 173.816C173.85 176.614 173.95 178.213 173.95 178.213L158.986 184.41H178.14C178.339 182.411 177.94 180.412 178.239 178.513C178.239 177.414 178.938 174.715 179.137 173.816Z" fill="#002E4F"/>
<path d="M196.595 105.551L179.637 137.835C179.637 137.835 186.52 143.632 193.303 145.631L205.973 107.55L196.595 105.551Z" fill="#CDE5E8"/>
<path d="M215.15 175.913C216.148 174.913 217.046 173.614 217.844 172.314C213.454 168.516 211.36 164.618 205.374 158.021C202.88 155.223 209.464 139.431 211.06 136.732C213.953 131.934 214.352 128.536 216.547 120.34L199.987 126.537C195.997 140.73 191.408 154.823 196.097 161.62C200.985 168.716 209.564 174.513 213.754 177.412C213.853 177.512 215.051 175.813 215.15 175.913Z" fill="#1B2F39"/>
<path d="M187.217 73.3662C187.017 73.3662 186.718 73.2663 186.518 73.1663C186.02 72.7665 185.92 72.0669 186.219 71.5671C187.516 69.668 187.815 68.1688 187.815 68.1688C187.915 67.5691 188.514 67.1693 189.112 67.2692C189.711 67.3692 190.11 67.9689 190.01 68.5686C190.01 68.6685 189.611 70.5676 188.015 72.8665C187.915 73.1663 187.616 73.3662 187.217 73.3662Z" fill="#64AECE"/>
<path d="M215.349 123.842C220.237 110.249 224.527 88.9595 226.023 80.4637C225.125 80.0639 224.327 79.864 223.629 79.6641C222.133 79.2643 220.437 78.7645 218.94 79.2643C218.142 79.4642 217.544 79.864 216.845 80.2638C216.247 82.0629 215.948 83.6621 215.948 83.6621C215.948 83.6621 205.373 103.952 198.49 117.745C204.276 119.145 210.062 121.044 215.349 123.842Z" fill="#F6EE9E"/>
<path d="M198.292 118.242C197.693 119.442 197.095 120.641 196.596 121.74C195.199 124.139 193.803 126.338 192.406 128.537C178.739 149.127 173.652 165.519 172.754 173.315C174.051 174.315 178.939 174.914 180.635 175.214C183.129 162.321 189.713 154.125 201.384 144.429C205.275 141.231 208.267 137.033 210.861 133.635C212.357 131.636 213.953 128.337 215.35 124.339C209.863 121.441 204.078 119.542 198.292 118.242Z" fill="#455A64"/>
<path d="M185.025 123.94C183.429 123.94 181.932 122.94 181.433 121.341C180.735 119.342 181.832 117.143 183.828 116.444C188.416 114.844 195.599 108.447 200.387 101.651C210.064 87.8575 216.947 80.1613 217.246 79.8614C218.643 78.2622 221.037 78.1622 222.633 79.5616C224.229 80.9609 224.329 83.3597 222.932 84.9589C222.833 85.0589 216.049 92.6551 206.672 106.049C201.983 112.745 193.604 121.141 186.421 123.64C185.823 123.84 185.424 123.94 185.025 123.94Z" fill="#64AECE"/>
<path d="M223.328 81.7644C223.228 81.7644 223.128 81.7644 223.029 81.7644C221.033 81.6645 219.537 79.8654 219.737 77.8663C219.936 75.7674 220.734 73.4685 220.734 73.1686C221.333 71.2696 223.428 70.27 225.323 70.9697C227.218 71.5694 228.216 73.6684 227.518 75.5675C227.318 76.2671 226.919 77.5665 226.819 78.466C226.819 80.3651 225.223 81.7644 223.328 81.7644Z" fill="#64AECE"/>
<path d="M224.428 77.9663C225.027 78.666 225.725 79.3656 226.523 79.9653C226.822 79.4656 226.922 78.9658 227.022 78.4661C227.122 77.5665 227.421 76.2671 227.72 75.5675C228.319 73.6684 227.321 71.6694 225.526 70.9697C223.929 70.47 222.333 71.0697 221.436 72.2691C221.635 74.3681 223.231 76.6669 224.428 77.9663Z" fill="#0086CF"/>
<path d="M233.704 70.1669C233.604 73.9651 230.512 76.8637 226.721 76.8637C222.93 76.7637 220.037 73.6652 220.037 69.8671L220.137 65.1694C220.237 61.3712 223.329 58.4727 227.12 58.4727C230.911 58.5726 233.804 61.6711 233.804 65.4692L233.704 70.1669Z" fill="#64AECE"/>
<path d="M179.636 122.84C178.04 122.84 176.245 122.441 174.25 121.541C173.651 121.341 173.451 120.642 173.651 120.042C173.851 119.442 174.549 119.242 175.147 119.442C178.14 120.642 180.434 120.841 181.931 119.942C182.43 119.642 183.128 119.742 183.427 120.342C183.726 120.841 183.627 121.541 183.028 121.841C182.13 122.541 180.933 122.84 179.636 122.84Z" fill="#64AECE"/>
<path d="M181.032 124.437C179.236 124.437 177.84 124.137 176.144 123.738L175.645 123.638C175.046 123.538 174.647 122.838 174.847 122.238C174.947 121.639 175.645 121.239 176.243 121.439L176.742 121.539C179.436 122.238 181.231 122.638 185.222 121.639C185.82 121.439 186.419 121.839 186.618 122.438C186.818 123.038 186.419 123.638 185.82 123.838C183.825 124.237 182.329 124.437 181.032 124.437Z" fill="#64AECE"/>
<path d="M179.535 120.638C176.044 120.638 173.55 118.439 173.45 118.339C172.951 117.939 172.951 117.24 173.35 116.74C173.749 116.24 174.448 116.24 174.946 116.64C175.046 116.74 177.64 119.039 181.131 118.139C181.73 117.939 182.328 118.339 182.528 118.939C182.727 119.539 182.328 120.138 181.73 120.338C181.032 120.538 180.234 120.638 179.535 120.638Z" fill="#64AECE"/>
<path d="M181.928 119.446H181.828C178.038 119.047 176.442 116.248 176.342 116.148C176.043 115.648 176.242 114.949 176.741 114.649C177.24 114.349 177.938 114.549 178.237 115.049C178.337 115.148 179.334 116.948 181.928 117.247C182.527 117.347 183.025 117.847 182.926 118.447C182.926 118.947 182.527 119.446 181.928 119.446Z" fill="#64AECE"/>
<path d="M195.297 74.9664C195.197 74.9664 195.197 74.9664 195.098 74.9664C193.202 74.6665 188.115 73.8669 187.017 73.8669C186.419 73.8669 185.92 73.3671 185.92 72.7674C185.92 72.1677 186.419 71.668 187.017 71.668C188.613 71.668 194.798 72.6675 195.497 72.7674C196.095 72.8674 196.494 73.4671 196.394 74.0668C196.394 74.5666 195.896 74.9664 195.297 74.9664Z" fill="#64AECE"/>
<path d="M194.598 77.3629C194.498 77.3629 194.398 77.3629 194.298 77.3629C194.199 77.3629 188.912 75.8637 186.418 75.7637C185.819 75.7637 185.32 75.164 185.32 74.5643C185.32 73.9646 185.919 73.4648 186.517 73.4648C189.211 73.6647 194.598 75.0641 194.897 75.164C195.496 75.3639 195.895 75.9636 195.695 76.5633C195.595 76.9631 195.096 77.3629 194.598 77.3629Z" fill="#64AECE"/>
<path d="M194.1 79.7656C194.001 79.7656 193.901 79.7656 193.801 79.6656C188.713 78.0664 187.516 77.9665 186.818 77.8665C186.519 77.8665 186.22 77.8665 185.92 77.7666C185.322 77.5667 184.923 76.9669 185.122 76.3672C185.322 75.7675 185.92 75.3677 186.519 75.5676C186.718 75.5676 186.818 75.6676 187.018 75.6676C187.816 75.7675 189.212 75.8675 194.499 77.5666C195.098 77.7666 195.397 78.3663 195.198 78.966C194.998 79.4657 194.599 79.7656 194.1 79.7656Z" fill="#64AECE"/>
<path d="M191.805 81.5592C186.617 81.1594 186.418 78.4607 186.418 78.1608L188.712 78.0609C188.712 78.0609 188.712 78.0609 188.712 77.9609C188.712 77.9609 188.912 79.0604 191.905 79.2603C192.503 79.2603 193.002 79.86 192.902 80.4597C192.902 81.1594 192.403 81.5592 191.805 81.5592Z" fill="#64AECE"/>
<path d="M187.615 80.2617C187.615 80.2617 186.617 79.762 185.121 79.762C183.824 79.762 182.128 77.563 182.128 75.3641C182.128 75.3641 181.53 68.7674 188.513 71.7659L187.615 80.2617Z" fill="#64AECE"/>
<path d="M209.663 99.9572L199.887 148.334C199.887 148.334 215.05 152.032 224.427 146.634L226.821 79.3672C226.721 79.4672 216.247 75.769 209.663 99.9572Z" fill="#CDE5E8"/>
<path d="M211.956 126.64L221.334 126.141C221.334 126.141 221.533 140.534 215.947 139.934C215.947 139.934 208.265 141.633 211.956 126.64Z" fill="#E1F3F6"/>
<path d="M223.729 78.2626C222.731 77.363 221.335 76.8633 219.938 76.8633C218.342 76.8633 216.846 77.5629 215.748 78.7624C215.449 79.0622 208.566 86.7584 198.79 100.752C198.191 101.651 197.393 102.551 196.695 103.55L195.697 104.75L196.795 105.849C197.992 107.049 199.189 108.248 200.386 109.447C200.984 110.047 201.683 110.747 202.281 111.346L203.678 112.746L204.975 111.246C206.072 109.947 207.169 108.548 208.067 107.248C217.444 93.9549 224.128 86.3586 224.228 86.3586C226.223 83.9598 226.023 80.3616 223.729 78.2626Z" fill="#E1F3F6"/>
<path d="M197.991 100.297L194.191 104.535L204.061 113.419L207.861 109.181L197.991 100.297Z" fill="#F8FDFF"/>
<path d="M213.254 72.8669L221.933 76.2653C221.933 76.2653 225.624 58.374 222.93 55.6753C222.93 55.6753 213.254 54.7758 213.254 72.8669Z" fill="#00396A"/>
<path d="M223.427 58.7738C223.726 59.2736 230.41 63.6714 235.697 62.472C235.697 62.472 234.799 54.5759 222.529 55.6753L223.427 58.7738Z" fill="#00396A"/>
<path d="M228.615 67.2708C228.615 69.3698 226.919 71.0689 224.824 71.0689C222.729 71.0689 221.033 69.3698 221.033 67.2708C221.033 65.1718 222.729 63.4727 224.824 63.4727C226.919 63.4727 228.615 65.1718 228.615 67.2708Z" stroke="#DDDD67" stroke-width="0.62063" stroke-miterlimit="10"/>
<path d="M237.096 67.9703C237.096 69.7694 235.599 71.2687 233.804 71.2687C232.008 71.2687 230.512 69.7694 230.512 67.9703C230.512 66.1711 232.008 64.6719 233.804 64.6719C235.599 64.6719 237.096 66.1711 237.096 67.9703Z" stroke="#DDDD67" stroke-width="0.539896" stroke-miterlimit="10"/>
<path d="M228.617 67.2675C228.617 67.2675 229.814 66.7678 230.612 67.5674" stroke="#DDDD67" stroke-width="0.62063" stroke-miterlimit="10"/>
<path d="M119.383 73.8621C119.283 73.8621 119.183 73.8621 119.083 73.8621C117.088 73.7621 115.592 71.963 115.791 69.964C115.991 67.865 116.789 65.5661 116.789 65.2663C117.387 63.3672 119.482 62.3677 121.378 63.0674C123.273 63.6671 124.271 65.766 123.572 67.6651C123.373 68.3648 122.974 69.6641 122.874 70.5637C122.774 72.3628 121.178 73.8621 119.383 73.8621Z" fill="#0086CF"/>
<path d="M117.189 173.715C123.175 176.514 128.063 176.414 128.462 176.514C132.352 169.617 144.024 150.827 133.35 135.534L118.287 127.438C118.387 127.338 133.35 143.13 117.189 173.715Z" fill="#1B2F39"/>
<path d="M124.97 179.911C124.97 179.911 126.367 177.113 127.464 175.214C126.666 175.114 122.975 175.014 121.478 174.414C120.082 177.313 116.989 181.511 114.895 184.409H135.145L124.97 179.911Z" fill="#002E4F"/>
<path d="M150.01 136.334C147.516 131.437 129.261 116.744 127.565 108.248C127.465 107.548 127.266 106.749 127.166 105.949C124.273 107.548 120.383 107.948 117.39 108.048C113.998 108.248 111.903 108.448 108.611 106.849C108.911 112.046 108.013 117.144 111.105 122.441C117.19 133.036 137.341 142.032 139.536 145.53C143.925 152.426 145.521 167.319 147.018 176.415C149.412 176.415 154.998 176.315 157.293 175.515C156.594 170.917 157.891 151.727 150.01 136.334Z" fill="#455A64"/>
<path d="M156.295 179.011C156.295 179.011 155.597 176.313 155.398 175.113C153.103 175.913 151.707 175.113 149.312 175.113C149.712 177.412 149.412 181.61 149.612 184.109H168.765L156.295 179.011Z" fill="#002E4F"/>
<path d="M117.588 110.947C120.481 110.847 126.666 110.047 129.06 107.549C128.561 103.55 126.766 97.0537 127.364 91.8562C129.459 74.2648 120.88 68.9674 120.88 68.9674C120.88 68.9674 116.89 66.1687 113.698 69.4671C108.909 74.4647 104.121 88.5578 104.62 109.348C108.111 111.147 114.097 111.047 117.588 110.947Z" fill="#CDE5E8"/>
<path d="M161.581 116.441C161.282 116.441 160.982 116.441 160.683 116.341C146.817 113.142 135.145 104.847 126.766 92.3526C120.481 82.9572 118.386 74.5613 118.287 74.2615C117.788 72.2624 118.985 70.1635 121.08 69.6637C123.075 69.164 125.17 70.3634 125.669 72.4623C125.669 72.6622 127.664 80.1586 133.25 88.4545C140.532 99.3492 150.408 106.246 162.379 109.044C164.474 109.544 165.671 111.543 165.272 113.642C164.973 115.241 163.377 116.441 161.581 116.441Z" fill="#64AECE"/>
<path d="M153.202 104.95C145.62 101.352 139.136 95.5548 133.949 87.8586C128.462 79.6626 126.467 72.1663 126.467 72.0663C125.968 70.0673 124.172 68.668 122.078 68.668C121.679 68.668 121.379 68.668 120.98 68.7679C119.783 69.0678 118.885 69.7674 118.187 70.8669C117.589 71.8664 117.389 73.0658 117.688 74.2652V74.3652C118.287 76.9639 120.681 85.9595 126.267 94.4554C132.951 104.55 142.129 112.047 152.603 116.245C152.703 116.245 152.803 116.245 152.803 116.245C152.902 116.245 153.102 116.245 153.202 116.145C153.401 116.045 153.501 115.845 153.501 115.545V105.45C153.601 105.35 153.401 105.05 153.202 104.95Z" fill="#E1F3F6"/>
<path d="M164.477 116.741C163.28 116.741 161.984 116.641 160.587 116.341C159.988 116.241 159.589 115.641 159.689 115.042C159.789 114.442 160.387 114.042 160.986 114.142C164.378 114.842 167.071 114.542 169.266 113.442C169.765 113.143 170.463 113.342 170.762 113.942C171.061 114.442 170.862 115.142 170.263 115.441C168.667 116.241 166.672 116.741 164.477 116.741Z" fill="#64AECE"/>
<path d="M164.576 114.244C164.077 114.244 163.479 114.244 162.98 114.144C162.381 114.044 161.982 113.444 161.982 112.844C162.082 112.245 162.681 111.845 163.279 111.845C166.871 112.345 170.162 110.546 170.262 110.446C170.761 110.146 171.459 110.346 171.759 110.845C172.058 111.345 171.858 112.045 171.36 112.345C171.26 112.545 168.267 114.244 164.576 114.244Z" fill="#64AECE"/>
<path d="M163.577 112.046C163.377 112.046 163.178 112.046 163.078 112.046C162.479 112.046 161.98 111.446 161.98 110.846C161.98 110.246 162.579 109.747 163.178 109.747C165.871 109.947 167.268 108.247 167.268 108.247C167.667 107.748 168.365 107.648 168.864 108.047C169.362 108.447 169.462 109.147 169.063 109.647C168.963 109.747 167.168 112.046 163.577 112.046Z" fill="#64AECE"/>
<path d="M159.785 110.149C159.186 110.149 158.688 109.649 158.688 109.049C158.688 108.449 159.186 107.95 159.785 107.95C159.885 107.95 162.079 107.85 163.376 106.051C163.775 105.551 164.473 105.451 164.972 105.751C165.471 106.151 165.571 106.85 165.271 107.35C163.177 110.049 159.885 110.149 159.785 110.149Z" fill="#64AECE"/>
<path d="M156.096 84.7569C155.697 84.7569 155.397 84.557 155.198 84.2571C153.502 81.9582 153.203 79.9592 153.203 79.9592C153.103 79.3595 153.502 78.7598 154.101 78.6598C154.699 78.5599 155.298 78.9597 155.397 79.5594C155.397 79.5594 155.697 81.0587 156.994 82.9577C157.393 83.4575 157.193 84.1571 156.694 84.557C156.495 84.6569 156.295 84.7569 156.096 84.7569Z" fill="#64AECE"/>
<path d="M156.294 85.2612C156.194 85.2612 156.194 85.2612 156.095 85.2612C153.601 84.7614 148.812 84.7614 148.713 84.7614C148.114 84.7614 147.615 84.2617 147.615 83.662C147.615 83.0623 148.114 82.5625 148.713 82.5625C148.912 82.5625 153.8 82.5625 156.494 83.0623C157.092 83.1622 157.491 83.7619 157.391 84.3616C157.292 84.8614 156.793 85.2612 156.294 85.2612Z" fill="#64AECE"/>
<path d="M148.114 87.5543C147.515 87.5543 147.116 87.1545 147.017 86.5548C146.917 85.9551 147.416 85.3554 148.014 85.2554C148.713 85.1555 154.997 84.3559 157.092 84.7557C157.691 84.8556 158.09 85.4553 157.99 86.0551C157.89 86.6548 157.292 87.0546 156.693 86.9546C155.396 86.7547 150.907 87.1545 148.314 87.4544C148.214 87.5543 148.114 87.5543 148.114 87.5543Z" fill="#64AECE"/>
<path d="M149.509 90.0546C149.01 90.0546 148.512 89.6548 148.412 89.1551C148.312 88.5554 148.711 87.9557 149.31 87.8557C152.003 87.356 152.801 87.0561 154.098 86.6563C154.696 86.4564 155.495 86.2565 156.592 85.8567C157.19 85.6568 157.789 86.0566 157.988 86.6563C158.188 87.256 157.789 87.8557 157.19 88.0556C156.093 88.3555 155.395 88.6553 154.696 88.8552C153.3 89.255 152.502 89.5549 149.709 90.1546C149.709 90.0546 149.609 90.0546 149.509 90.0546Z" fill="#64AECE"/>
<path d="M152.005 91.8538C151.506 91.8538 151.008 91.454 150.908 90.9543C150.808 90.3545 151.207 89.7548 151.806 89.6549C155.397 89.0552 156.195 87.6559 156.195 87.6559C156.394 87.0562 156.993 86.7563 157.592 86.9562C158.19 87.1561 158.489 87.7558 158.29 88.3555C158.19 88.7553 157.193 91.0542 152.205 91.8538C152.105 91.8538 152.005 91.8538 152.005 91.8538Z" fill="#64AECE"/>
<path d="M156.294 90.5588L155.396 81.3633C155.396 81.3633 159.387 81.6631 159.387 85.8611C159.487 87.2604 159.088 88.8596 156.294 90.5588Z" fill="#64AECE"/>
<path d="M131.053 60.6681C132.05 64.4662 129.756 68.4643 125.965 69.4638C122.174 70.4633 118.184 68.1644 117.186 64.3663L115.89 59.5686C114.892 55.7705 117.186 51.7724 120.977 50.7729C124.768 49.7734 128.758 52.0723 129.756 55.8704L131.053 60.6681Z" fill="#64AECE"/>
<path d="M130.358 58.0703C129.859 59.5696 129.061 61.0688 127.864 62.1683C124.971 64.6671 120.581 65.3667 116.99 63.8675L117.09 64.3672C118.088 68.1654 122.078 70.4643 125.869 69.4647C129.659 68.4652 131.954 64.4672 130.956 60.669L130.358 58.0703Z" fill="#00396A"/>
<path d="M117.09 64.0717C114.396 62.3725 111.503 55.7757 115.693 54.2765C118.287 53.3769 117.289 61.4729 117.289 63.7718L117.09 64.0717Z" fill="#00396A"/>
<path d="M114.993 54.8729C111.701 52.4741 115.791 45.7773 123.872 45.7773C128.86 45.7773 128.86 49.5755 125.368 51.6745C122.475 53.3736 118.086 52.3741 115.891 55.2727L114.993 54.8729Z" fill="#00396A"/>
<path d="M130.356 59.5713C129.259 57.8721 126.965 54.3738 126.067 52.3748C125.468 51.0754 124.77 48.9764 127.264 50.4757C129.359 51.7751 130.456 56.2729 130.356 58.4718V59.5713Z" fill="#00396A"/>
<path d="M73.4942 75.5594C72.2971 76.6588 70.9005 77.7583 69.8032 79.0577L53.6426 112.941L65.7132 97.3487L78.482 70.7617C76.7862 72.4609 75.1901 74.0601 73.4942 75.5594Z" fill="#006091"/>
<path d="M63.8184 69.9634C65.0155 68.3641 66.1128 66.4651 67.5094 64.7659L39.1785 50.9727L12.2441 53.6713L59.4291 75.4607C60.9255 73.6616 62.5216 71.8624 63.8184 69.9634Z" fill="#006091"/>
<path d="M67.9084 65.0625C66.4121 66.9616 65.215 69.1605 63.7186 70.9596C62.4218 72.5588 61.125 74.1581 59.8281 75.6573L81.2758 85.5525L89.0569 75.3575L67.9084 65.0625Z" fill="#64AECE"/>
<path d="M35.5872 104.443L43.9668 86.9518L0.373047 66.062L7.35602 51.4691L79.0812 9.08984L98.6335 18.4852L69.9035 78.7558L81.7746 84.453L73.6943 101.345L61.8232 95.6475L53.5434 113.039L35.5872 104.443ZM67.9084 36.8763L66.8111 36.3765L28.4047 58.8655L51.9473 70.16L67.9084 36.8763Z" fill="#0076AD"/>
<path d="M81.7759 84.4549L89.0582 75.3594L83.372 87.9532L73.4961 101.846L81.7759 84.4549Z" fill="#006091"/>
<path d="M78.9802 70.361L107.311 8.19141L98.732 18.4864L69.9023 78.7569C70.7004 77.9573 78.5812 70.7608 78.9802 70.361Z" fill="#006091"/>
<path d="M7.35742 51.4709L20.1263 40.2764L90.2553 -0.00390625L79.0826 9.09165L7.35742 51.4709Z" fill="#009EE7"/>
<path d="M79.082 9.09165L98.7341 18.4871L107.313 8.19209L90.2548 -0.00390625L79.082 9.09165Z" fill="#00D2FD"/>
<path d="M55.0406 54.4758C52.6464 52.7767 50.9505 53.4763 49.8532 53.6762C48.5564 53.8761 47.6586 53.1765 47.6586 53.1765C47.1598 52.8766 46.4615 52.9766 46.0625 53.4763C45.7632 53.9761 45.8629 54.6757 46.3617 55.0755C46.4615 55.0755 47.3593 55.7752 49.1549 56.175C47.3593 57.9741 45.3642 59.9732 45.2644 60.0731C44.8654 60.5729 44.8654 61.2725 45.3642 61.6723C45.5637 61.8722 45.8629 61.9722 46.1622 61.9722C46.4615 61.9722 46.7608 61.8722 46.9603 61.5724C46.9603 61.5724 48.3569 60.0731 49.7535 58.6738C48.3569 60.373 47.06 62.1721 46.8605 62.5719C46.4615 63.0716 46.661 63.7713 47.1598 64.1711C47.3593 64.2711 47.5588 64.371 47.8581 64.371C48.1574 64.371 48.5564 64.1711 48.7559 63.8713C49.4542 62.8717 50.5515 61.4724 51.5491 60.1731C51.1501 60.8727 50.751 61.7723 49.7535 63.2715C49.4542 63.7713 49.5539 64.471 50.1525 64.8708C50.352 64.9707 50.5515 65.0707 50.751 65.0707C51.1501 65.0707 51.4493 64.8708 51.7486 64.5709C52.1476 63.9712 52.4469 63.4714 52.7462 62.9717C52.5467 63.4714 52.7462 64.0712 53.1452 64.371C53.3447 64.471 53.5442 64.5709 53.7437 64.5709C54.1428 64.5709 54.442 64.371 54.6415 64.0712C55.7389 62.4719 56.2377 61.1726 56.4372 60.0731C57.0357 56.8747 56.2377 55.3754 55.0406 54.4758ZM52.8459 62.4719C53.2449 61.7723 53.4445 61.3725 53.7437 60.8727C53.5442 61.2725 53.2449 61.7723 52.8459 62.4719Z" fill="#64AECE"/>
<path d="M20.7233 67.2664C17.132 67.0665 12.0444 74.0631 17.3315 75.9622C12.5432 75.8622 11.3461 82.6589 15.7354 84.458C8.05415 82.9588 8.95196 92.9539 12.5432 96.5521C10.0493 96.1523 7.55536 98.5511 7.95439 101.05C8.35342 103.649 9.35098 107.247 15.7354 109.146C22.1199 111.045 26.0104 107.447 29.2026 104.048C31.1977 108.246 41.2732 102.549 40.1758 97.6516C43.9666 98.951 47.3583 94.6531 47.4581 91.2547C47.5578 87.8564 45.1637 85.3576 42.969 83.1587C44.5651 81.7594 44.8644 79.0607 44.4654 76.9617C43.7671 73.5634 39.5773 73.2635 39.5773 70.5648C39.5773 69.6653 39.7768 66.6667 38.9788 65.3674C37.6819 63.2684 35.4873 61.2694 32.6941 62.2689C20.7233 56.6716 20.7233 67.2664 20.7233 67.2664Z" fill="#00396A"/>
<path d="M27.6072 176.512C24.4149 175.912 23.8164 176.112 20.6242 175.312L13.2422 184.408H41.9721L25.213 179.91L27.6072 176.512Z" fill="#002E4F"/>
<path d="M81.0781 179.113L79.3822 176.914C77.8859 177.914 76.2898 178.713 74.4941 179.313L78.9832 184.41H95.8421L81.0781 179.113Z" fill="#002E4F"/>
<path d="M17.5312 176.512C20.7235 177.312 24.0154 178.112 27.2077 178.711L50.9498 149.426L46.8597 137.831L30.3001 118.641L35.0884 145.827L17.5312 176.512Z" fill="#1B2F39"/>
<path d="M49.8543 110.547C43.3701 108.848 34.4917 111.046 28.207 113.445C28.207 113.445 32.0975 128.938 34.6912 133.535C42.0732 147.029 74.2947 180.612 74.2947 180.612C76.0903 180.013 79.482 177.514 80.9784 176.514L49.8543 110.547Z" fill="#455A64"/>
<path d="M27.3088 119.44C33.5935 117.042 46.1628 113.043 52.647 114.743C52.647 114.743 44.0679 94.5525 40.1774 90.1547C37.5837 87.1561 23.2188 78.6603 23.2188 89.7549C23.2188 104.848 27.3088 119.44 27.3088 119.44Z" fill="#CDE5E8"/>
<path d="M32.8945 88.7596C32.7948 88.7596 32.695 88.8595 32.5953 88.8595C30.6999 89.3593 28.7047 88.2598 28.206 86.3607C27.7072 84.3617 27.6074 81.8629 27.6074 81.5631C27.6074 79.5641 29.2035 77.9648 31.1987 77.9648C33.1938 77.9648 34.7899 79.5641 34.7899 81.5631C34.7899 82.2627 34.8897 83.6621 35.0892 84.5616C35.6877 86.2608 34.6902 88.1599 32.8945 88.7596Z" fill="#64AECE"/>
<path d="M35.2885 85.1542C35.2885 84.8543 35.2885 84.6544 35.1888 84.3546C34.9893 83.555 34.8895 82.1557 34.8895 81.3561C34.8895 79.357 33.2934 77.7578 31.2983 77.7578C29.3031 77.7578 27.707 79.357 27.707 81.3561C27.707 81.3561 27.707 81.5559 27.707 81.6559C29.4029 83.8548 32.3956 84.7544 35.2885 85.1542Z" fill="#0086CF"/>
<path d="M38.7795 74.4631C39.9766 78.0613 37.9815 81.8595 34.3902 83.0589C30.799 84.2583 27.0082 82.2593 25.8112 78.661L24.3148 74.1632C23.1177 70.565 25.1129 66.7669 28.7041 65.5674C32.2954 64.368 36.0861 66.3671 37.2832 69.9653L38.7795 74.4631Z" fill="#64AECE"/>
<path d="M78.7825 70.7664C78.6828 70.6664 78.4833 70.5665 78.2838 70.5665C78.4833 70.3666 78.583 70.1667 78.7825 69.9668C79.1816 69.467 79.1816 68.7674 78.6828 68.3676C78.583 68.2676 78.583 68.2676 78.4833 68.2676C78.7826 67.7679 78.7825 67.1681 78.2838 66.7683C77.9845 66.4685 77.4857 66.3685 77.0867 66.5684C77.5855 66.0687 77.8847 65.6689 77.9845 65.6689C78.3835 65.1691 78.3835 64.4695 77.8847 64.0697C77.3859 63.6698 76.6877 63.6698 76.2886 64.1696C76.2886 64.1696 73.7947 66.9682 71.3008 68.3676C70.2035 66.6684 68.7071 66.1686 68.7071 66.0687C68.1086 65.8688 67.51 66.1686 67.3105 66.6684C67.111 67.2681 67.4103 67.8678 67.9091 68.1676C67.9091 68.1676 68.8069 68.5675 69.5052 69.567C69.4054 69.8668 69.3057 70.1667 69.2059 70.5665C52.8458 93.0555 30.999 85.1593 30.0015 84.7595C28.0063 83.9599 25.8117 84.9594 25.1134 86.9585C24.3153 88.9575 25.3129 91.1564 27.308 91.956C27.6073 92.056 32.8944 94.055 40.5757 94.055C42.072 94.055 43.7679 93.955 45.4638 93.7551C53.7436 92.7556 65.9139 88.0579 75.6901 75.4641C75.8896 75.3641 76.0891 75.2642 76.3884 74.9643C76.5879 74.8644 76.7874 74.6645 76.9869 74.5645C77.5855 74.0648 78.2838 73.3651 79.0818 72.4656C79.3811 71.8658 79.2813 71.1662 78.7825 70.7664Z" fill="#64AECE"/>
<path d="M48.3557 84.7573L47.4579 84.9572C45.1635 85.457 42.8691 85.6569 40.4749 85.6569C34.689 85.6569 30.6987 84.1576 30.1999 84.0577C29.7012 83.8578 29.1026 83.7578 28.6038 83.7578C26.7085 83.7578 25.1124 84.8573 24.4141 86.6564C24.015 87.7559 23.9153 89.0552 24.5138 90.0547C26.7085 93.9528 32.6939 95.552 40.4749 95.552C42.1708 95.552 43.7669 95.4521 45.4627 95.2522C46.4603 95.1522 47.4579 94.9523 48.5552 94.7524L49.2535 94.5525C49.2535 94.5525 48.3557 91.7539 48.1562 88.8553C48.0564 87.8558 48.3557 84.7573 48.3557 84.7573Z" fill="#E1F3F6"/>
<path d="M24.3148 77.7625C26.7089 76.2633 27.507 73.4646 27.2077 70.666C29.3026 72.0653 30.8987 71.1658 32.1955 68.7669C36.0861 74.2643 42.0715 66.0683 33.9912 63.1697C27.507 60.7708 21.1225 67.2677 22.7186 73.7645L24.3148 77.7625Z" fill="#00396A"/>
</g>
<defs>
<clipPath id="clip0">
<rect width="348.251" height="185.209" fill="white" transform="translate(0.375)"/>
</clipPath>
</defs>
</svg>
