<svg width="16" height="16" viewBox="0 0 16 16" fill="none" xmlns="http://www.w3.org/2000/svg">
<path d="M11.9238 7.26416C12.8538 7.13349 13.5698 6.33616 13.5718 5.37016C13.5718 4.41816 12.8778 3.62883 11.9678 3.47949" stroke="#9AA2A9" stroke-width="1.5" stroke-linecap="round" stroke-linejoin="round"/>
<path d="M13.1523 9.49902C14.053 9.63369 14.6817 9.94902 14.6817 10.599C14.6817 11.0464 14.3857 11.337 13.907 11.5197" stroke="#9AA2A9" stroke-width="1.5" stroke-linecap="round" stroke-linejoin="round"/>
<path fill-rule="evenodd" clip-rule="evenodd" d="M7.92384 9.77539C5.78117 9.77539 3.95117 10.1001 3.95117 11.3967C3.95117 12.6927 5.76984 13.0267 7.92384 13.0267C10.0665 13.0267 11.8958 12.7054 11.8958 11.4081C11.8958 10.1107 10.0778 9.77539 7.92384 9.77539Z" stroke="#9AA2A9" stroke-width="1.5" stroke-linecap="round" stroke-linejoin="round"/>
<path fill-rule="evenodd" clip-rule="evenodd" d="M7.92297 7.92501C9.32897 7.92501 10.469 6.78567 10.469 5.37901C10.469 3.97301 9.32897 2.83301 7.92297 2.83301C6.51697 2.83301 5.37697 3.97301 5.37697 5.37901C5.37164 6.78034 6.50297 7.92034 7.90431 7.92501H7.92297Z" stroke="#9AA2A9" stroke-width="1.5" stroke-linecap="round" stroke-linejoin="round"/>
<path d="M3.92144 7.26416C2.99077 7.13349 2.27544 6.33616 2.27344 5.37016C2.27344 4.41816 2.96744 3.62883 3.87744 3.47949" stroke="#9AA2A9" stroke-width="1.5" stroke-linecap="round" stroke-linejoin="round"/>
<path d="M2.69535 9.49902C1.79468 9.63369 1.16602 9.94902 1.16602 10.599C1.16602 11.0464 1.46202 11.337 1.94068 11.5197" stroke="#9AA2A9" stroke-width="1.5" stroke-linecap="round" stroke-linejoin="round"/>
</svg>
