<svg width="16" height="16" viewBox="0 0 16 16" fill="none" xmlns="http://www.w3.org/2000/svg">
<path fill-rule="evenodd" clip-rule="evenodd" d="M11.9053 13.6113C13.154 13.6113 14.1667 12.5993 14.1673 11.3507V11.3493V9.54933C13.3427 9.54933 12.6747 8.88133 12.674 8.05667C12.674 7.23267 13.342 6.564 14.1667 6.564H14.1673V4.764C14.1687 3.51467 13.1573 2.50133 11.9087 2.5H11.9047H4.09665C2.84732 2.5 1.83465 3.512 1.83398 4.76133V4.762V6.622C2.62998 6.594 3.29732 7.21667 3.32532 8.01267C3.32598 8.02733 3.32665 8.042 3.32665 8.05667C3.32732 8.88 2.66132 9.548 1.83798 9.54933H1.83398V11.3493C1.83332 12.598 2.84598 13.6113 4.09465 13.6113H4.09532H11.9053Z" stroke="#9AA2A9" stroke-width="1.5" stroke-linecap="round" stroke-linejoin="round"/>
<path fill-rule="evenodd" clip-rule="evenodd" d="M8.24707 6.04267L8.65774 6.87401C8.69774 6.95534 8.77507 7.01201 8.86507 7.02534L9.78307 7.15934C10.0104 7.19267 10.1004 7.47134 9.9364 7.63067L9.2724 8.27734C9.20707 8.34067 9.17774 8.43201 9.1924 8.52201L9.34907 9.43534C9.38774 9.66134 9.15107 9.83334 8.9484 9.72667L8.12774 9.29534C8.04707 9.25267 7.95107 9.25267 7.8704 9.29534L7.0504 9.72667C6.84707 9.83334 6.6104 9.66134 6.64907 9.43534L6.80574 8.52201C6.82107 8.43201 6.79107 8.34067 6.72574 8.27734L6.0624 7.63067C5.8984 7.47134 5.9884 7.19267 6.21507 7.15934L7.13307 7.02534C7.22307 7.01201 7.30107 6.95534 7.34107 6.87401L7.75107 6.04267C7.8524 5.83734 8.14574 5.83734 8.24707 6.04267Z" stroke="#9AA2A9" stroke-width="1.5" stroke-linecap="round" stroke-linejoin="round"/>
</svg>
