<svg width="17" height="17" viewBox="0 0 17 17" fill="none" xmlns="http://www.w3.org/2000/svg">
<path fill-rule="evenodd" clip-rule="evenodd" d="M12.4053 14.1113C13.654 14.1113 14.6667 13.0993 14.6673 11.8507V11.8493V10.0493C13.8427 10.0493 13.1747 9.38133 13.174 8.55667C13.174 7.73267 13.842 7.064 14.6667 7.064H14.6673V5.264C14.6687 4.01467 13.6573 3.00133 12.4087 3H12.4047H4.59665C3.34732 3 2.33465 4.012 2.33398 5.26133V5.262V7.122C3.12998 7.094 3.79732 7.71667 3.82532 8.51267C3.82598 8.52733 3.82665 8.542 3.82665 8.55667C3.82732 9.38 3.16132 10.048 2.33798 10.0493H2.33398V11.8493C2.33332 13.098 3.34598 14.1113 4.59465 14.1113H4.59532H12.4053Z" stroke="white" stroke-width="1.6" stroke-linecap="round" stroke-linejoin="round"/>
<path fill-rule="evenodd" clip-rule="evenodd" d="M8.74707 6.54267L9.15774 7.37401C9.19774 7.45534 9.27507 7.51201 9.36507 7.52534L10.2831 7.65934C10.5104 7.69267 10.6004 7.97134 10.4364 8.13067L9.7724 8.77734C9.70707 8.84067 9.67774 8.93201 9.6924 9.02201L9.84907 9.93534C9.88774 10.1613 9.65107 10.3333 9.4484 10.2267L8.62774 9.79534C8.54707 9.75267 8.45107 9.75267 8.3704 9.79534L7.5504 10.2267C7.34707 10.3333 7.1104 10.1613 7.14907 9.93534L7.30574 9.02201C7.32107 8.93201 7.29107 8.84067 7.22574 8.77734L6.5624 8.13067C6.3984 7.97134 6.4884 7.69267 6.71507 7.65934L7.63307 7.52534C7.72307 7.51201 7.80107 7.45534 7.84107 7.37401L8.25107 6.54267C8.3524 6.33734 8.64574 6.33734 8.74707 6.54267Z" stroke="white" stroke-width="1.6" stroke-linecap="round" stroke-linejoin="round"/>
</svg>
