<svg width="609" height="173" viewBox="0 0 609 173" fill="none" xmlns="http://www.w3.org/2000/svg">
<path d="M208.419 62.6762C203.896 62.6762 199.8 61.6095 196.131 59.4762C192.462 57.3429 189.582 54.3989 187.491 50.6442C185.4 46.8895 184.355 42.6869 184.355 38.0362C184.355 33.3855 185.4 29.1829 187.491 25.4282C189.582 21.6735 192.44 18.7509 196.067 16.6602C199.736 14.5269 203.854 13.4602 208.419 13.4602C211.747 13.4602 214.798 14.0362 217.571 15.1882C220.387 16.2975 222.755 17.8122 224.675 19.7322C226.595 21.6522 227.982 23.8069 228.835 26.1962L220.067 30.4202C219.214 28.0309 217.763 26.1109 215.715 24.6602C213.667 23.1669 211.235 22.4202 208.419 22.4202C205.646 22.4202 203.171 23.0815 200.995 24.4042C198.862 25.6842 197.198 27.5189 196.003 29.9082C194.851 32.2549 194.275 34.9642 194.275 38.0362C194.275 41.1082 194.851 43.8389 196.003 46.2282C197.198 48.5749 198.862 50.4095 200.995 51.7322C203.171 53.0549 205.646 53.7162 208.419 53.7162C211.235 53.7162 213.667 52.9909 215.715 51.5402C217.763 50.0469 219.214 48.1055 220.067 45.7162L228.835 49.9402C227.982 52.3295 226.595 54.4842 224.675 56.4042C222.755 58.3242 220.387 59.8602 217.571 61.0122C214.798 62.1215 211.747 62.6762 208.419 62.6762ZM251.216 62.6762C247.802 62.6762 244.645 61.8869 241.744 60.3082C238.885 58.7295 236.624 56.5535 234.96 53.7802C233.296 51.0069 232.464 47.8922 232.464 44.4362C232.464 40.9802 233.296 37.8655 234.96 35.0922C236.624 32.3189 238.885 30.1429 241.744 28.5642C244.645 26.9855 247.802 26.1962 251.216 26.1962C254.629 26.1962 257.765 26.9855 260.624 28.5642C263.482 30.1429 265.744 32.3189 267.408 35.0922C269.072 37.8655 269.904 40.9802 269.904 44.4362C269.904 47.8922 269.072 51.0069 267.408 53.7802C265.744 56.5535 263.482 58.7295 260.624 60.3082C257.765 61.8869 254.629 62.6762 251.216 62.6762ZM242.384 44.4362C242.384 47.2522 243.194 49.5562 244.816 51.3482C246.48 53.1402 248.613 54.0362 251.216 54.0362C253.818 54.0362 255.93 53.1402 257.552 51.3482C259.173 49.5562 259.984 47.2522 259.984 44.4362C259.984 41.6202 259.152 39.3162 257.488 37.5242C255.866 35.7322 253.776 34.8362 251.216 34.8362C248.613 34.8362 246.48 35.7322 244.816 37.5242C243.194 39.3162 242.384 41.6202 242.384 44.4362ZM272.118 26.9642H282.486L290.038 47.8922L297.59 26.9642H307.958L294.198 61.9082H285.878L272.118 26.9642ZM328.391 62.6762C324.807 62.6762 321.628 61.8655 318.855 60.2442C316.082 58.6229 313.927 56.4255 312.391 53.6522C310.898 50.8362 310.151 47.7429 310.151 44.3722C310.151 40.9589 310.919 37.8655 312.455 35.0922C313.991 32.3189 316.103 30.1429 318.791 28.5642C321.479 26.9855 324.466 26.1962 327.751 26.1962C331.335 26.1962 334.428 26.9429 337.031 28.4362C339.634 29.9295 341.618 31.9989 342.983 34.6442C344.348 37.2469 345.031 40.1695 345.031 43.4122C345.031 44.9909 344.882 46.2282 344.583 47.1242H320.135C320.434 49.3429 321.308 51.1135 322.759 52.4362C324.252 53.7162 326.172 54.3562 328.519 54.3562C330.183 54.3562 331.634 54.0149 332.871 53.3322C334.108 52.6495 335.068 51.7109 335.751 50.5162L343.431 54.1642C342.364 56.7242 340.466 58.7935 337.735 60.3722C335.047 61.9082 331.932 62.6762 328.391 62.6762ZM334.855 40.0842C334.642 38.2069 333.895 36.7135 332.615 35.6042C331.335 34.4522 329.714 33.8762 327.751 33.8762C325.831 33.8762 324.21 34.4095 322.887 35.4762C321.607 36.5429 320.754 38.0789 320.327 40.0842H334.855ZM350.684 26.9642H359.644V32.2122C360.497 30.1642 361.713 28.7135 363.292 27.8602C364.871 27.0069 366.812 26.5802 369.116 26.5802H371.164V34.9002H368.156C365.767 34.9002 363.847 35.6255 362.396 37.0762C360.988 38.5269 360.284 40.5322 360.284 43.0922V61.9082H350.684V26.9642ZM208.419 126.676C203.896 126.676 199.8 125.61 196.131 123.476C192.462 121.343 189.582 118.399 187.491 114.644C185.4 110.89 184.355 106.687 184.355 102.036C184.355 97.3855 185.4 93.1829 187.491 89.4282C189.582 85.6735 192.44 82.7509 196.067 80.6602C199.736 78.5269 203.854 77.4602 208.419 77.4602C211.747 77.4602 214.798 78.0362 217.571 79.1882C220.387 80.2975 222.755 81.8122 224.675 83.7322C226.595 85.6522 227.982 87.8069 228.835 90.1962L220.067 94.4202C219.214 92.0309 217.763 90.1109 215.715 88.6602C213.667 87.1669 211.235 86.4202 208.419 86.4202C205.646 86.4202 203.171 87.0815 200.995 88.4042C198.862 89.6842 197.198 91.5189 196.003 93.9082C194.851 96.2549 194.275 98.9642 194.275 102.036C194.275 105.108 194.851 107.839 196.003 110.228C197.198 112.575 198.862 114.41 200.995 115.732C203.171 117.055 205.646 117.716 208.419 117.716C211.235 117.716 213.667 116.991 215.715 115.54C217.763 114.047 219.214 112.106 220.067 109.716L228.835 113.94C227.982 116.33 226.595 118.484 224.675 120.404C222.755 122.324 220.387 123.86 217.571 125.012C214.798 126.122 211.747 126.676 208.419 126.676ZM251.216 126.676C247.802 126.676 244.645 125.887 241.744 124.308C238.885 122.73 236.624 120.554 234.96 117.78C233.296 115.007 232.464 111.892 232.464 108.436C232.464 104.98 233.296 101.866 234.96 99.0922C236.624 96.3189 238.885 94.1429 241.744 92.5642C244.645 90.9855 247.802 90.1962 251.216 90.1962C254.629 90.1962 257.765 90.9855 260.624 92.5642C263.482 94.1429 265.744 96.3189 267.408 99.0922C269.072 101.866 269.904 104.98 269.904 108.436C269.904 111.892 269.072 115.007 267.408 117.78C265.744 120.554 263.482 122.73 260.624 124.308C257.765 125.887 254.629 126.676 251.216 126.676ZM242.384 108.436C242.384 111.252 243.194 113.556 244.816 115.348C246.48 117.14 248.613 118.036 251.216 118.036C253.818 118.036 255.93 117.14 257.552 115.348C259.173 113.556 259.984 111.252 259.984 108.436C259.984 105.62 259.152 103.316 257.488 101.524C255.866 99.7322 253.776 98.8362 251.216 98.8362C248.613 98.8362 246.48 99.7322 244.816 101.524C243.194 103.316 242.384 105.62 242.384 108.436ZM275.559 90.9642H284.519V95.2522C285.372 93.5455 286.652 92.2869 288.359 91.4762C290.066 90.6229 292.05 90.1962 294.311 90.1962C296.615 90.1962 298.706 90.6869 300.583 91.6682C302.503 92.6069 303.954 93.8869 304.935 95.5082C307.41 91.9669 311.015 90.1962 315.751 90.1962C318.268 90.1962 320.487 90.7509 322.407 91.8602C324.37 92.9695 325.906 94.5269 327.015 96.5322C328.124 98.5375 328.679 100.842 328.679 103.444V125.908H319.079V105.492C319.079 103.444 318.524 101.823 317.415 100.628C316.348 99.4335 314.876 98.8362 312.999 98.8362C311.122 98.8362 309.628 99.4335 308.519 100.628C307.452 101.823 306.919 103.444 306.919 105.492V125.908H297.319V105.492C297.319 103.444 296.764 101.823 295.655 100.628C294.588 99.4335 293.116 98.8362 291.239 98.8362C289.362 98.8362 287.868 99.4335 286.759 100.628C285.692 101.823 285.159 103.444 285.159 105.492V125.908H275.559V90.9642ZM334.997 90.9642H343.957V94.6122C345.151 93.2042 346.666 92.1162 348.501 91.3482C350.335 90.5802 352.383 90.1962 354.645 90.1962C357.93 90.1962 360.917 91.0069 363.605 92.6282C366.335 94.2495 368.49 96.4469 370.069 99.2202C371.647 101.994 372.437 105.066 372.437 108.436C372.437 111.807 371.647 114.879 370.069 117.652C368.533 120.426 366.399 122.623 363.669 124.244C360.981 125.866 357.951 126.676 354.581 126.676C352.618 126.676 350.762 126.378 349.013 125.78C347.306 125.183 345.834 124.33 344.597 123.22V138.708H334.997V90.9642ZM344.597 108.436C344.597 111.295 345.407 113.62 347.029 115.412C348.693 117.162 350.826 118.036 353.429 118.036C356.074 118.036 358.25 117.14 359.957 115.348C361.663 113.556 362.517 111.252 362.517 108.436C362.517 105.663 361.663 103.38 359.957 101.588C358.25 99.7535 356.074 98.8362 353.429 98.8362C350.826 98.8362 348.693 99.7322 347.029 101.524C345.407 103.316 344.597 105.62 344.597 108.436ZM388.875 126.676C385.078 126.676 382.091 125.78 379.915 123.988C377.739 122.196 376.651 119.722 376.651 116.564C376.651 113.578 377.675 111.146 379.723 109.268C381.814 107.348 384.928 106.047 389.067 105.364L398.731 103.828V102.868C398.731 101.546 398.198 100.436 397.131 99.5402C396.064 98.6442 394.656 98.1962 392.907 98.1962C391.2 98.1962 389.686 98.6655 388.363 99.6042C387.083 100.5 386.144 101.738 385.547 103.316L377.867 99.6682C378.891 96.7669 380.79 94.4629 383.563 92.7562C386.379 91.0495 389.643 90.1962 393.355 90.1962C396.256 90.1962 398.838 90.7295 401.099 91.7962C403.403 92.8629 405.174 94.3562 406.411 96.2762C407.691 98.1962 408.331 100.394 408.331 102.868V125.908H399.371V122.644C398.006 124.01 396.47 125.034 394.763 125.716C393.056 126.356 391.094 126.676 388.875 126.676ZM386.571 116.244C386.571 117.311 386.955 118.143 387.723 118.74C388.534 119.338 389.558 119.636 390.795 119.636C393.142 119.636 395.04 118.911 396.491 117.46C397.984 115.967 398.731 114.132 398.731 111.956V110.868L390.795 112.276C389.387 112.532 388.32 112.98 387.595 113.62C386.912 114.26 386.571 115.135 386.571 116.244ZM415.372 90.9642H424.332V96.2122C425.185 94.1642 426.401 92.7135 427.98 91.8602C429.558 91.0069 431.5 90.5802 433.804 90.5802H435.852V98.9002H432.844C430.454 98.9002 428.534 99.6255 427.084 101.076C425.676 102.527 424.972 104.532 424.972 107.092V125.908H415.372V90.9642ZM456.891 126.676C453.307 126.676 450.128 125.866 447.355 124.244C444.582 122.623 442.427 120.426 440.891 117.652C439.398 114.836 438.651 111.743 438.651 108.372C438.651 104.959 439.419 101.866 440.955 99.0922C442.491 96.3189 444.603 94.1429 447.291 92.5642C449.979 90.9855 452.966 90.1962 456.251 90.1962C459.835 90.1962 462.928 90.9429 465.531 92.4362C468.134 93.9295 470.118 95.9989 471.483 98.6442C472.848 101.247 473.531 104.17 473.531 107.412C473.531 108.991 473.382 110.228 473.083 111.124H448.635C448.934 113.343 449.808 115.114 451.259 116.436C452.752 117.716 454.672 118.356 457.019 118.356C458.683 118.356 460.134 118.015 461.371 117.332C462.608 116.65 463.568 115.711 464.251 114.516L471.931 118.164C470.864 120.724 468.966 122.794 466.235 124.372C463.547 125.908 460.432 126.676 456.891 126.676ZM463.355 104.084C463.142 102.207 462.395 100.714 461.115 99.6042C459.835 98.4522 458.214 97.8762 456.251 97.8762C454.331 97.8762 452.71 98.4095 451.387 99.4762C450.107 100.543 449.254 102.079 448.827 104.084H463.355ZM495.632 126.676C492.261 126.676 489.211 125.866 486.48 124.244C483.792 122.623 481.659 120.426 480.08 117.652C478.544 114.879 477.776 111.807 477.776 108.436C477.776 105.066 478.565 101.994 480.144 99.2202C481.723 96.4469 483.856 94.2495 486.544 92.6282C489.275 91.0069 492.283 90.1962 495.568 90.1962C497.616 90.1962 499.493 90.5162 501.2 91.1562C502.949 91.7962 504.421 92.7135 505.616 93.9082V77.4602H515.216V125.908H506.256V122.58C505.019 123.903 503.483 124.927 501.648 125.652C499.813 126.335 497.808 126.676 495.632 126.676ZM487.696 108.436C487.696 111.252 488.549 113.556 490.256 115.348C491.963 117.14 494.139 118.036 496.784 118.036C499.387 118.036 501.499 117.162 503.12 115.412C504.784 113.62 505.616 111.295 505.616 108.436C505.616 105.62 504.784 103.316 503.12 101.524C501.499 99.7322 499.387 98.8362 496.784 98.8362C494.139 98.8362 491.963 99.7535 490.256 101.588C488.549 103.38 487.696 105.663 487.696 108.436Z" fill="#011B41"/>
<g filter="url(#filter0_i)">
<path d="M109.995 102.676L82.0892 121.053C79.9853 122.443 77.286 122.443 75.1821 121.053L47.2759 102.676C45.4895 101.525 44.4574 99.5399 44.4574 97.4362V50.1226C44.4177 46.6297 47.2362 43.8115 50.7294 43.8115H106.542C110.035 43.8115 112.854 46.6297 112.854 50.1226V97.4362C112.814 99.5399 111.782 101.525 109.995 102.676Z" stroke="url(#paint0_linear)" stroke-width="15.1123" stroke-miterlimit="10"/>
</g>
<path d="M109.671 66.3139C121.536 66.3139 131.155 56.6954 131.155 44.8303C131.155 32.9652 121.536 23.3467 109.671 23.3467C97.806 23.3467 88.1875 32.9652 88.1875 44.8303C88.1875 56.6954 97.806 66.3139 109.671 66.3139Z" fill="white"/>
<path d="M112.617 146.834L147.937 123.571C149.43 122.576 150.3 120.918 150.3 119.134V100.599C150.3 97.6961 147.937 95.291 144.994 95.291C142.092 95.291 139.688 97.6546 139.688 100.599V113.454C139.688 115.195 138.817 116.854 137.366 117.849L125.22 126.059" stroke="#154B7E" stroke-width="3.70602" stroke-miterlimit="10"/>
<path d="M26.8535 101.76V31.2852C26.8535 28.3885 29.2263 25.9883 32.1818 25.9883H124.179C127.093 25.9883 129.507 28.3471 129.507 31.2852V107.553C129.507 109.333 128.591 110.988 127.134 111.981L81.1359 142.066C79.3459 143.225 77.0564 143.225 75.308 142.066L37.3853 117.278" stroke="#154B7E" stroke-width="3.70602" stroke-miterlimit="10"/>
<path d="M27.0713 104.821C28.6262 104.821 29.8866 103.561 29.8866 102.006C29.8866 100.451 28.6262 99.1904 27.0713 99.1904C25.5164 99.1904 24.2559 100.451 24.2559 102.006C24.2559 103.561 25.5164 104.821 27.0713 104.821Z" fill="#154B7E"/>
<path d="M85.9736 18.1923C87.5285 18.1923 88.789 16.9318 88.789 15.3769C88.789 13.822 87.5285 12.5615 85.9736 12.5615C84.4187 12.5615 83.1582 13.822 83.1582 15.3769C83.1582 16.9318 84.4187 18.1923 85.9736 18.1923Z" fill="#154B7E"/>
<path d="M150.517 55.4433C152.071 55.4433 153.332 54.1828 153.332 52.6279C153.332 51.073 152.071 49.8125 150.517 49.8125C148.962 49.8125 147.701 51.073 147.701 52.6279C147.701 54.1828 148.962 55.4433 150.517 55.4433Z" fill="#154B7E"/>
<path d="M6.27633 55.4433C7.83123 55.4433 9.09172 54.1828 9.09172 52.6279C9.09172 51.073 7.83123 49.8125 6.27633 49.8125C4.72143 49.8125 3.46094 51.073 3.46094 52.6279C3.46094 54.1828 4.72143 55.4433 6.27633 55.4433Z" fill="#154B7E"/>
<path d="M150.517 67.1366C152.071 67.1366 153.332 65.8761 153.332 64.3212C153.332 62.7663 152.071 61.5059 150.517 61.5059C148.962 61.5059 147.701 62.7663 147.701 64.3212C147.701 65.8761 148.962 67.1366 150.517 67.1366Z" fill="#154B7E"/>
<path d="M6.27633 67.1366C7.83123 67.1366 9.09172 65.8761 9.09172 64.3212C9.09172 62.7663 7.83123 61.5059 6.27633 61.5059C4.72143 61.5059 3.46094 62.7663 3.46094 64.3212C3.46094 65.8761 4.72143 67.1366 6.27633 67.1366Z" fill="#154B7E"/>
<path d="M37.4658 119.98C39.0207 119.98 40.2812 118.72 40.2812 117.165C40.2812 115.61 39.0207 114.35 37.4658 114.35C35.9109 114.35 34.6504 115.61 34.6504 117.165C34.6504 118.72 35.9109 119.98 37.4658 119.98Z" fill="#154B7E"/>
<path d="M117.595 133.842C119.15 133.842 120.41 132.581 120.41 131.026C120.41 129.471 119.15 128.211 117.595 128.211C116.04 128.211 114.779 129.471 114.779 131.026C114.779 132.581 116.04 133.842 117.595 133.842Z" fill="#154B7E"/>
<path d="M125.392 128.643C126.946 128.643 128.207 127.382 128.207 125.827C128.207 124.272 126.946 123.012 125.392 123.012C123.837 123.012 122.576 124.272 122.576 125.827C122.576 127.382 123.837 128.643 125.392 128.643Z" fill="#154B7E"/>
<path d="M111.101 150.299C112.655 150.299 113.916 149.038 113.916 147.483C113.916 145.928 112.655 144.668 111.101 144.668C109.546 144.668 108.285 145.928 108.285 147.483C108.285 149.038 109.546 150.299 111.101 150.299Z" fill="#154B7E"/>
<path d="M102.87 155.931C104.425 155.931 105.685 154.67 105.685 153.115C105.685 151.56 104.425 150.3 102.87 150.3C101.315 150.3 100.055 151.56 100.055 153.115C100.055 154.67 101.315 155.931 102.87 155.931Z" fill="#154B7E"/>
<path d="M53.4912 155.931C55.0461 155.931 56.3066 154.67 56.3066 153.115C56.3066 151.56 55.0461 150.3 53.4912 150.3C51.9363 150.3 50.6758 151.56 50.6758 153.115C50.6758 154.67 51.9363 155.931 53.4912 155.931Z" fill="#154B7E"/>
<g filter="url(#filter1_i)">
<path d="M107.671 59.1742C114.488 59.1742 120.015 53.6474 120.015 46.8298C120.015 40.0121 114.488 34.4854 107.671 34.4854C100.853 34.4854 95.3262 40.0121 95.3262 46.8298C95.3262 53.6474 100.853 59.1742 107.671 59.1742Z" fill="#175186"/>
</g>
<path d="M43.7474 146.834L8.42741 123.571C6.93502 122.576 6.06445 120.918 6.06445 119.134V100.599C6.06445 97.6961 8.42741 95.291 11.3707 95.291C14.2726 95.291 16.677 97.6546 16.677 100.599V113.454C16.677 115.195 17.5476 116.854 18.9985 117.849L31.145 126.059" stroke="#154B7E" stroke-width="3.70602" stroke-miterlimit="10"/>
<path d="M150.297 64.5013V80.865C150.297 83.7797 147.935 86.1947 144.992 86.1947C142.09 86.1947 139.686 83.8213 139.686 80.865V20.4898C139.686 17.5752 137.323 15.1602 134.38 15.1602H85.7598" stroke="#154B7E" stroke-width="3.70602" stroke-miterlimit="10"/>
<path d="M6.06445 51.5019V10.087C6.06445 7.17636 8.43401 4.76465 11.3856 4.76465H145.411C148.321 4.76465 150.732 7.13478 150.732 10.087V51.5435" stroke="#154B7E" stroke-width="3.70602" stroke-miterlimit="10"/>
<path d="M70.6019 15.1602H21.9608C19.063 15.1602 16.662 17.5335 16.662 20.4898V80.865C16.662 83.7797 14.3024 86.1947 11.3632 86.1947C8.46546 86.1947 6.06445 83.8213 6.06445 80.865V63.7934" stroke="#154B7E" stroke-width="3.70602" stroke-miterlimit="10"/>
<path d="M37.6816 130.374L75.2784 154.637C77.0193 155.782 79.2992 155.782 81.0816 154.637L118.678 130.374" stroke="#154B7E" stroke-width="3.70602" stroke-miterlimit="10"/>
<path d="M70.8193 18.1923C72.3742 18.1923 73.6347 16.9318 73.6347 15.3769C73.6347 13.822 72.3742 12.5615 70.8193 12.5615C69.2644 12.5615 68.0039 13.822 68.0039 15.3769C68.0039 16.9318 69.2644 18.1923 70.8193 18.1923Z" fill="#154B7E"/>
<path d="M39.2002 133.842C40.7551 133.842 42.0156 132.581 42.0156 131.026C42.0156 129.471 40.7551 128.211 39.2002 128.211C37.6453 128.211 36.3848 129.471 36.3848 131.026C36.3848 132.581 37.6453 133.842 39.2002 133.842Z" fill="#154B7E"/>
<path d="M31.4033 128.643C32.9582 128.643 34.2187 127.382 34.2187 125.827C34.2187 124.272 32.9582 123.012 31.4033 123.012C29.8484 123.012 28.5879 124.272 28.5879 125.827C28.5879 127.382 29.8484 128.643 31.4033 128.643Z" fill="#154B7E"/>
<path d="M45.6943 150.299C47.2492 150.299 48.5097 149.038 48.5097 147.483C48.5097 145.928 47.2492 144.668 45.6943 144.668C44.1394 144.668 42.8789 145.928 42.8789 147.483C42.8789 149.038 44.1394 150.299 45.6943 150.299Z" fill="#154B7E"/>
<path d="M52.8418 152.466L75.4562 167.18C77.2372 168.352 79.5566 168.352 81.3376 167.18L103.952 152.466" stroke="#154B7E" stroke-width="3.70602" stroke-miterlimit="10"/>
<defs>
<filter id="filter0_i" x="36.9004" y="36.2559" width="88.5089" height="100.396" filterUnits="userSpaceOnUse" color-interpolation-filters="sRGB">
<feFlood flood-opacity="0" result="BackgroundImageFix"/>
<feBlend mode="normal" in="SourceGraphic" in2="BackgroundImageFix" result="shape"/>
<feColorMatrix in="SourceAlpha" type="matrix" values="0 0 0 0 0 0 0 0 0 0 0 0 0 0 0 0 0 0 127 0" result="hardAlpha"/>
<feOffset dx="5" dy="7"/>
<feGaussianBlur stdDeviation="7.5"/>
<feComposite in2="hardAlpha" operator="arithmetic" k2="-1" k3="1"/>
<feColorMatrix type="matrix" values="0 0 0 0 1 0 0 0 0 1 0 0 0 0 1 0 0 0 0.25 0"/>
<feBlend mode="normal" in2="shape" result="effect1_innerShadow"/>
</filter>
<filter id="filter1_i" x="95.3262" y="34.4854" width="26.8545" height="27.7208" filterUnits="userSpaceOnUse" color-interpolation-filters="sRGB">
<feFlood flood-opacity="0" result="BackgroundImageFix"/>
<feBlend mode="normal" in="SourceGraphic" in2="BackgroundImageFix" result="shape"/>
<feColorMatrix in="SourceAlpha" type="matrix" values="0 0 0 0 0 0 0 0 0 0 0 0 0 0 0 0 0 0 127 0" result="hardAlpha"/>
<feOffset dx="2.16569" dy="3.03196"/>
<feGaussianBlur stdDeviation="3.24853"/>
<feComposite in2="hardAlpha" operator="arithmetic" k2="-1" k3="1"/>
<feColorMatrix type="matrix" values="0 0 0 0 1 0 0 0 0 1 0 0 0 0 1 0 0 0 0.25 0"/>
<feBlend mode="normal" in2="shape" result="effect1_innerShadow"/>
</filter>
<linearGradient id="paint0_linear" x1="34.3834" y1="31.9138" x2="129.699" y2="37.7957" gradientUnits="userSpaceOnUse">
<stop stop-color="#227599"/>
<stop offset="1" stop-color="#42DDC1"/>
</linearGradient>
</defs>
</svg>
