<svg width="170" height="49" viewBox="0 0 170 49" fill="none" xmlns="http://www.w3.org/2000/svg">
<path d="M58.2221 17.3049C56.9586 17.3049 55.8144 17.0069 54.7893 16.4109C53.7642 15.815 52.9597 14.9925 52.3756 13.9436C51.7916 12.8947 51.4996 11.7207 51.4996 10.4215C51.4996 9.12226 51.7916 7.94821 52.3756 6.89931C52.9597 5.8504 53.7583 5.03393 54.7714 4.44988C55.7965 3.85392 56.9467 3.55593 58.2221 3.55593C59.1518 3.55593 60.004 3.71685 60.7788 4.03867C61.5654 4.34857 62.227 4.77171 62.7633 5.30808C63.2997 5.84445 63.6871 6.44637 63.9255 7.11385L61.476 8.29387C61.2377 7.62639 60.8324 7.09002 60.2603 6.68476C59.6881 6.26758 59.0087 6.05899 58.2221 6.05899C57.4473 6.05899 56.756 6.24374 56.1481 6.61324C55.5521 6.97082 55.0873 7.48335 54.7535 8.15084C54.4317 8.8064 54.2708 9.56328 54.2708 10.4215C54.2708 11.2797 54.4317 12.0425 54.7535 12.71C55.0873 13.3655 55.5521 13.8781 56.1481 14.2476C56.756 14.6171 57.4473 14.8018 58.2221 14.8018C59.0087 14.8018 59.6881 14.5992 60.2603 14.1939C60.8324 13.7768 61.2377 13.2344 61.476 12.5669L63.9255 13.747C63.6871 14.4144 63.2997 15.0164 62.7633 15.5527C62.227 16.0891 61.5654 16.5182 60.7788 16.84C60.004 17.1499 59.1518 17.3049 58.2221 17.3049ZM70.1777 17.3049C69.2241 17.3049 68.3421 17.0844 67.5316 16.6434C66.733 16.2023 66.1013 15.5945 65.6364 14.8197C65.1715 14.0449 64.9391 13.1748 64.9391 12.2094C64.9391 11.2439 65.1715 10.3738 65.6364 9.59903C66.1013 8.82428 66.733 8.21639 67.5316 7.77538C68.3421 7.33436 69.2241 7.11385 70.1777 7.11385C71.1312 7.11385 72.0073 7.33436 72.8059 7.77538C73.6045 8.21639 74.2362 8.82428 74.7011 9.59903C75.1659 10.3738 75.3983 11.2439 75.3983 12.2094C75.3983 13.1748 75.1659 14.0449 74.7011 14.8197C74.2362 15.5945 73.6045 16.2023 72.8059 16.6434C72.0073 17.0844 71.1312 17.3049 70.1777 17.3049ZM67.7104 12.2094C67.7104 12.996 67.9368 13.6397 68.3898 14.1403C68.8546 14.6409 69.4506 14.8912 70.1777 14.8912C70.9047 14.8912 71.4948 14.6409 71.9477 14.1403C72.4006 13.6397 72.6271 12.996 72.6271 12.2094C72.6271 11.4227 72.3947 10.779 71.9298 10.2784C71.4769 9.77782 70.8928 9.52752 70.1777 9.52752C69.4506 9.52752 68.8546 9.77782 68.3898 10.2784C67.9368 10.779 67.7104 11.4227 67.7104 12.2094ZM76.017 7.3284H78.9134L81.0231 13.1748L83.1328 7.3284H86.0292L82.1852 17.0903H79.861L76.017 7.3284ZM91.7374 17.3049C90.7361 17.3049 89.8481 17.0784 89.0734 16.6255C88.2986 16.1725 87.6967 15.5587 87.2676 14.7839C86.8504 13.9973 86.6418 13.1331 86.6418 12.1915C86.6418 11.2379 86.8564 10.3738 87.2855 9.59903C87.7146 8.82428 88.3046 8.21639 89.0555 7.77538C89.8064 7.33436 90.6408 7.11385 91.5586 7.11385C92.5598 7.11385 93.4239 7.32244 94.151 7.73962C94.8781 8.1568 95.4323 8.73488 95.8138 9.47388C96.1952 10.201 96.3859 11.0174 96.3859 11.9233C96.3859 12.3643 96.3442 12.71 96.2607 12.9603H89.431C89.5144 13.5801 89.7587 14.0747 90.164 14.4442C90.5812 14.8018 91.1176 14.9806 91.7731 14.9806C92.238 14.9806 92.6432 14.8853 92.9889 14.6945C93.3345 14.5038 93.6027 14.2416 93.7934 13.9079L95.9389 14.927C95.6409 15.6421 95.1105 16.2202 94.3477 16.6612C93.5968 17.0903 92.7267 17.3049 91.7374 17.3049ZM93.5431 10.9936C93.4835 10.4691 93.275 10.052 92.9174 9.74207C92.5598 9.42024 92.1069 9.25933 91.5586 9.25933C91.0222 9.25933 90.5693 9.40832 90.1998 9.70631C89.8422 10.0043 89.6038 10.4334 89.4846 10.9936H93.5431ZM97.9651 7.3284H100.468V8.79448C100.707 8.22235 101.046 7.81709 101.487 7.57871C101.928 7.34032 102.471 7.22113 103.114 7.22113H103.686V9.5454H102.846C102.179 9.5454 101.642 9.74803 101.237 10.1533C100.844 10.5585 100.647 11.1187 100.647 11.8339V17.0903H97.9651V7.3284ZM58.2221 35.3049C56.9586 35.3049 55.8144 35.0069 54.7893 34.4109C53.7642 33.815 52.9597 32.9925 52.3756 31.9436C51.7916 30.8947 51.4996 29.7207 51.4996 28.4215C51.4996 27.1223 51.7916 25.9482 52.3756 24.8993C52.9597 23.8504 53.7583 23.0339 54.7714 22.4499C55.7965 21.8539 56.9467 21.5559 58.2221 21.5559C59.1518 21.5559 60.004 21.7168 60.7788 22.0387C61.5654 22.3486 62.227 22.7717 62.7633 23.3081C63.2997 23.8444 63.6871 24.4464 63.9255 25.1139L61.476 26.2939C61.2377 25.6264 60.8324 25.09 60.2603 24.6848C59.6881 24.2676 59.0087 24.059 58.2221 24.059C57.4473 24.059 56.756 24.2437 56.1481 24.6132C55.5521 24.9708 55.0873 25.4834 54.7535 26.1508C54.4317 26.8064 54.2708 27.5633 54.2708 28.4215C54.2708 29.2797 54.4317 30.0425 54.7535 30.71C55.0873 31.3655 55.5521 31.8781 56.1481 32.2476C56.756 32.6171 57.4473 32.8018 58.2221 32.8018C59.0087 32.8018 59.6881 32.5992 60.2603 32.1939C60.8324 31.7768 61.2377 31.2344 61.476 30.5669L63.9255 31.747C63.6871 32.4144 63.2997 33.0164 62.7633 33.5527C62.227 34.0891 61.5654 34.5182 60.7788 34.84C60.004 35.1499 59.1518 35.3049 58.2221 35.3049ZM70.1777 35.3049C69.2241 35.3049 68.3421 35.0844 67.5316 34.6434C66.733 34.2023 66.1013 33.5945 65.6364 32.8197C65.1715 32.0449 64.9391 31.1748 64.9391 30.2094C64.9391 29.2439 65.1715 28.3738 65.6364 27.599C66.1013 26.8243 66.733 26.2164 67.5316 25.7754C68.3421 25.3344 69.2241 25.1139 70.1777 25.1139C71.1312 25.1139 72.0073 25.3344 72.8059 25.7754C73.6045 26.2164 74.2362 26.8243 74.7011 27.599C75.1659 28.3738 75.3983 29.2439 75.3983 30.2094C75.3983 31.1748 75.1659 32.0449 74.7011 32.8197C74.2362 33.5945 73.6045 34.2023 72.8059 34.6434C72.0073 35.0844 71.1312 35.3049 70.1777 35.3049ZM67.7104 30.2094C67.7104 30.996 67.9368 31.6397 68.3898 32.1403C68.8546 32.6409 69.4506 32.8912 70.1777 32.8912C70.9047 32.8912 71.4948 32.6409 71.9477 32.1403C72.4006 31.6397 72.6271 30.996 72.6271 30.2094C72.6271 29.4227 72.3947 28.779 71.9298 28.2784C71.4769 27.7778 70.8928 27.5275 70.1777 27.5275C69.4506 27.5275 68.8546 27.7778 68.3898 28.2784C67.9368 28.779 67.7104 29.4227 67.7104 30.2094ZM76.9782 25.3284H79.4813V26.5263C79.7197 26.0495 80.0773 25.6979 80.554 25.4714C81.0308 25.233 81.5851 25.1139 82.2168 25.1139C82.8604 25.1139 83.4445 25.2509 83.9689 25.5251C84.5053 25.7873 84.9106 26.1449 85.1847 26.5978C85.876 25.6085 86.8832 25.1139 88.2063 25.1139C88.9095 25.1139 89.5293 25.2688 90.0657 25.5787C90.614 25.8886 91.0431 26.3237 91.353 26.8839C91.6629 27.4441 91.8178 28.0877 91.8178 28.8148V35.0903H89.136V29.3869C89.136 28.8148 88.981 28.3619 88.6711 28.0281C88.3731 27.6944 87.9619 27.5275 87.4375 27.5275C86.913 27.5275 86.4958 27.6944 86.1859 28.0281C85.8879 28.3619 85.739 28.8148 85.739 29.3869V35.0903H83.0571V29.3869C83.0571 28.8148 82.9022 28.3619 82.5923 28.0281C82.2943 27.6944 81.8831 27.5275 81.3586 27.5275C80.8342 27.5275 80.417 27.6944 80.1071 28.0281C79.8091 28.3619 79.6601 28.8148 79.6601 29.3869V35.0903H76.9782V25.3284ZM93.5827 25.3284H96.0857V26.3475C96.4195 25.9542 96.8426 25.6502 97.3551 25.4357C97.8677 25.2211 98.4398 25.1139 99.0715 25.1139C99.9893 25.1139 100.824 25.3403 101.575 25.7933C102.337 26.2462 102.939 26.86 103.38 27.6348C103.821 28.4095 104.042 29.2677 104.042 30.2094C104.042 31.151 103.821 32.0092 103.38 32.7839C102.951 33.5587 102.355 34.1725 101.592 34.6255C100.842 35.0784 99.9953 35.3049 99.0536 35.3049C98.5053 35.3049 97.9869 35.2214 97.4982 35.0546C97.0214 34.8877 96.6102 34.6493 96.2645 34.3394V38.6661H93.5827V25.3284ZM96.2645 30.2094C96.2645 31.008 96.491 31.6576 96.9439 32.1582C97.4088 32.6469 98.0047 32.8912 98.7318 32.8912C99.4708 32.8912 100.079 32.6409 100.555 32.1403C101.032 31.6397 101.271 30.996 101.271 30.2094C101.271 29.4346 101.032 28.7969 100.555 28.2963C100.079 27.7838 99.4708 27.5275 98.7318 27.5275C98.0047 27.5275 97.4088 27.7778 96.9439 28.2784C96.491 28.779 96.2645 29.4227 96.2645 30.2094ZM108.634 35.3049C107.573 35.3049 106.739 35.0546 106.131 34.554C105.523 34.0534 105.219 33.362 105.219 32.48C105.219 31.6456 105.505 30.9662 106.077 30.4418C106.661 29.9054 107.532 29.5419 108.688 29.3512L111.387 28.9221V28.6539C111.387 28.2844 111.238 27.9745 110.941 27.7242C110.643 27.4739 110.249 27.3487 109.76 27.3487C109.284 27.3487 108.861 27.4798 108.491 27.7421C108.134 27.9924 107.871 28.338 107.704 28.779L105.559 27.7599C105.845 26.9494 106.375 26.3058 107.15 25.829C107.937 25.3522 108.849 25.1139 109.886 25.1139C110.696 25.1139 111.417 25.2628 112.049 25.5608C112.693 25.8588 113.187 26.276 113.533 26.8124C113.891 27.3487 114.069 27.9626 114.069 28.6539V35.0903H111.566V34.1785C111.185 34.5599 110.756 34.846 110.279 35.0367C109.802 35.2155 109.254 35.3049 108.634 35.3049ZM107.99 32.3906C107.99 32.6886 108.098 32.921 108.312 33.0879C108.539 33.2548 108.825 33.3382 109.17 33.3382C109.826 33.3382 110.356 33.1356 110.762 32.7303C111.179 32.3131 111.387 31.8006 111.387 31.1927V30.8888L109.17 31.2821C108.777 31.3536 108.479 31.4788 108.277 31.6576C108.086 31.8364 107.99 32.0807 107.99 32.3906ZM116.036 25.3284H118.539V26.7945C118.778 26.2224 119.117 25.8171 119.558 25.5787C119.999 25.3403 120.542 25.2211 121.185 25.2211H121.757V27.5454H120.917C120.25 27.5454 119.713 27.748 119.308 28.1533C118.915 28.5585 118.718 29.1187 118.718 29.8339V35.0903H116.036V25.3284ZM127.635 35.3049C126.634 35.3049 125.746 35.0784 124.971 34.6255C124.196 34.1725 123.594 33.5587 123.165 32.7839C122.748 31.9973 122.54 31.1331 122.54 30.1915C122.54 29.2379 122.754 28.3738 123.183 27.599C123.612 26.8243 124.202 26.2164 124.953 25.7754C125.704 25.3344 126.538 25.1139 127.456 25.1139C128.457 25.1139 129.322 25.3224 130.049 25.7396C130.776 26.1568 131.33 26.7349 131.711 27.4739C132.093 28.201 132.284 29.0174 132.284 29.9233C132.284 30.3643 132.242 30.71 132.158 30.9603H125.329C125.412 31.5801 125.656 32.0747 126.062 32.4442C126.479 32.8018 127.015 32.9806 127.671 32.9806C128.136 32.9806 128.541 32.8853 128.887 32.6945C129.232 32.5038 129.5 32.2416 129.691 31.9079L131.837 32.927C131.539 33.6421 131.008 34.2202 130.245 34.6612C129.494 35.0903 128.624 35.3049 127.635 35.3049ZM129.441 28.9936C129.381 28.4691 129.173 28.052 128.815 27.7421C128.457 27.4202 128.005 27.2593 127.456 27.2593C126.92 27.2593 126.467 27.4083 126.097 27.7063C125.74 28.0043 125.501 28.4334 125.382 28.9936H129.441ZM138.458 35.3049C137.516 35.3049 136.664 35.0784 135.901 34.6255C135.15 34.1725 134.554 33.5587 134.113 32.7839C133.684 32.0092 133.469 31.151 133.469 30.2094C133.469 29.2677 133.69 28.4095 134.131 27.6348C134.572 26.86 135.168 26.2462 135.919 25.7933C136.682 25.3403 137.522 25.1139 138.44 25.1139C139.012 25.1139 139.536 25.2032 140.013 25.382C140.502 25.5608 140.913 25.8171 141.247 26.1508V21.5559H143.929V35.0903H141.426V34.1606C141.08 34.5301 140.651 34.8162 140.138 35.0188C139.626 35.2095 139.066 35.3049 138.458 35.3049ZM136.241 30.2094C136.241 30.996 136.479 31.6397 136.956 32.1403C137.433 32.6409 138.041 32.8912 138.78 32.8912C139.507 32.8912 140.097 32.6469 140.55 32.1582C141.014 31.6576 141.247 31.008 141.247 30.2094C141.247 29.4227 141.014 28.779 140.55 28.2784C140.097 27.7778 139.507 27.5275 138.78 27.5275C138.041 27.5275 137.433 27.7838 136.956 28.2963C136.479 28.7969 136.241 29.4346 136.241 30.2094Z" fill="white"/>
<g filter="url(#filter0_i)">
<path d="M30.7267 28.6845L22.9309 33.8184C22.3431 34.2065 21.589 34.2065 21.0013 33.8184L13.2054 28.6845C12.7064 28.3629 12.4181 27.8085 12.4181 27.2208V14.0033C12.407 13.0275 13.1943 12.2402 14.1702 12.2402H29.762C30.7378 12.2402 31.5252 13.0275 31.5252 14.0033V27.2208C31.5141 27.8085 31.2258 28.3629 30.7267 28.6845Z" stroke="url(#paint0_linear)" stroke-width="4.22176" stroke-miterlimit="10"/>
</g>
<path d="M30.6364 18.5267C33.951 18.5267 36.6381 15.8397 36.6381 12.5251C36.6381 9.21047 33.951 6.52344 30.6364 6.52344C27.3218 6.52344 24.6348 9.21047 24.6348 12.5251C24.6348 15.8397 27.3218 18.5267 30.6364 18.5267Z" fill="#182127"/>
<path d="M31.4609 41.0212L41.3279 34.5225C41.7448 34.2445 41.988 33.7811 41.988 33.283V28.1048C41.988 27.294 41.3279 26.6221 40.5057 26.6221C39.695 26.6221 39.0233 27.2824 39.0233 28.1048V31.6959C39.0233 32.1825 38.7801 32.6458 38.3748 32.9239L34.9815 35.2175" stroke="white" stroke-width="1.03531" stroke-miterlimit="10"/>
<path d="M7.50195 28.4282V8.7405C7.50195 7.93126 8.16481 7.26074 8.99047 7.26074H34.6907C35.5047 7.26074 36.1792 7.9197 36.1792 8.7405V30.0467C36.1792 30.5438 35.9233 31.0062 35.5163 31.2837L22.6662 39.6882C22.1662 40.0119 21.5266 40.0119 21.0382 39.6882L10.4441 32.7634" stroke="white" stroke-width="1.03531" stroke-miterlimit="10"/>
<path d="M7.5619 29.2854C7.99627 29.2854 8.3484 28.9333 8.3484 28.4989C8.3484 28.0645 7.99627 27.7124 7.5619 27.7124C7.12752 27.7124 6.77539 28.0645 6.77539 28.4989C6.77539 28.9333 7.12752 29.2854 7.5619 29.2854Z" fill="white"/>
<path d="M24.0189 5.08131C24.4533 5.08131 24.8054 4.72918 24.8054 4.29481C24.8054 3.86043 24.4533 3.5083 24.0189 3.5083C23.5846 3.5083 23.2324 3.86043 23.2324 4.29481C23.2324 4.72918 23.5846 5.08131 24.0189 5.08131Z" fill="white"/>
<path d="M42.0502 15.4871C42.4846 15.4871 42.8367 15.1349 42.8367 14.7006C42.8367 14.2662 42.4846 13.9141 42.0502 13.9141C41.6158 13.9141 41.2637 14.2662 41.2637 14.7006C41.2637 15.1349 41.6158 15.4871 42.0502 15.4871Z" fill="white"/>
<path d="M1.75526 15.4871C2.18963 15.4871 2.54176 15.1349 2.54176 14.7006C2.54176 14.2662 2.18963 13.9141 1.75526 13.9141C1.32088 13.9141 0.96875 14.2662 0.96875 14.7006C0.96875 15.1349 1.32088 15.4871 1.75526 15.4871Z" fill="white"/>
<path d="M42.0502 18.7576C42.4846 18.7576 42.8367 18.4055 42.8367 17.9711C42.8367 17.5367 42.4846 17.1846 42.0502 17.1846C41.6158 17.1846 41.2637 17.5367 41.2637 17.9711C41.2637 18.4055 41.6158 18.7576 42.0502 18.7576Z" fill="white"/>
<path d="M1.75526 18.7576C2.18963 18.7576 2.54176 18.4055 2.54176 17.9711C2.54176 17.5367 2.18963 17.1846 1.75526 17.1846C1.32088 17.1846 0.96875 17.5367 0.96875 17.9711C0.96875 18.4055 1.32088 18.7576 1.75526 18.7576Z" fill="white"/>
<path d="M10.4662 33.5169C10.9006 33.5169 11.2527 33.1647 11.2527 32.7304C11.2527 32.296 10.9006 31.9438 10.4662 31.9438C10.0318 31.9438 9.67969 32.296 9.67969 32.7304C9.67969 33.1647 10.0318 33.5169 10.4662 33.5169Z" fill="white"/>
<path d="M32.851 37.3884C33.2853 37.3884 33.6375 37.0363 33.6375 36.6019C33.6375 36.1676 33.2853 35.8154 32.851 35.8154C32.4166 35.8154 32.0645 36.1676 32.0645 36.6019C32.0645 37.0363 32.4166 37.3884 32.851 37.3884Z" fill="white"/>
<path d="M35.0287 35.9382C35.4631 35.9382 35.8152 35.5861 35.8152 35.1517C35.8152 34.7174 35.4631 34.3652 35.0287 34.3652C34.5943 34.3652 34.2422 34.7174 34.2422 35.1517C34.2422 35.5861 34.5943 35.9382 35.0287 35.9382Z" fill="white"/>
<path d="M31.0365 41.9866C31.4709 41.9866 31.823 41.6345 31.823 41.2001C31.823 40.7657 31.4709 40.4136 31.0365 40.4136C30.6021 40.4136 30.25 40.7657 30.25 41.2001C30.25 41.6345 30.6021 41.9866 31.0365 41.9866Z" fill="white"/>
<path d="M28.7377 43.5593C29.1721 43.5593 29.5242 43.2072 29.5242 42.7728C29.5242 42.3385 29.1721 41.9863 28.7377 41.9863C28.3033 41.9863 27.9512 42.3385 27.9512 42.7728C27.9512 43.2072 28.3033 43.5593 28.7377 43.5593Z" fill="white"/>
<path d="M14.9408 43.5593C15.3752 43.5593 15.7273 43.2072 15.7273 42.7728C15.7273 42.3385 15.3752 41.9863 14.9408 41.9863C14.5064 41.9863 14.1543 42.3385 14.1543 42.7728C14.1543 43.2072 14.5064 43.5593 14.9408 43.5593Z" fill="white"/>
<g filter="url(#filter1_i)">
<path d="M30.0794 16.5269C31.984 16.5269 33.5279 14.983 33.5279 13.0784C33.5279 11.1738 31.984 9.62988 30.0794 9.62988C28.1748 9.62988 26.6309 11.1738 26.6309 13.0784C26.6309 14.983 28.1748 16.5269 30.0794 16.5269Z" fill="#175186"/>
</g>
<path d="M12.2224 41.0212L2.35543 34.5225C1.93851 34.2445 1.69531 33.7811 1.69531 33.283V28.1048C1.69531 27.294 2.35543 26.6221 3.17767 26.6221C3.98834 26.6221 4.66004 27.2824 4.66004 28.1048V31.6959C4.66004 32.1825 4.90324 32.6458 5.30857 32.9239L8.70179 35.2175" stroke="white" stroke-width="1.03531" stroke-miterlimit="10"/>
<path d="M41.9881 18.0222V22.5935C41.9881 23.4078 41.3281 24.0824 40.506 24.0824C39.6954 24.0824 39.0238 23.4194 39.0238 22.5935V5.72717C39.0238 4.91294 38.3638 4.23828 37.5416 4.23828H23.959" stroke="white" stroke-width="1.03531" stroke-miterlimit="10"/>
<path d="M1.69531 14.3841V2.8145C1.69531 2.00137 2.35727 1.32764 3.18182 1.32764H40.6231C41.4361 1.32764 42.1096 1.98975 42.1096 2.8145V14.3957" stroke="white" stroke-width="1.03531" stroke-miterlimit="10"/>
<path d="M19.7244 4.23828H6.1361C5.32658 4.23828 4.65584 4.9013 4.65584 5.72717V22.5935C4.65584 23.4078 3.99666 24.0824 3.17558 24.0824C2.36606 24.0824 1.69531 23.4194 1.69531 22.5935V17.8244" stroke="white" stroke-width="1.03531" stroke-miterlimit="10"/>
<path d="M10.5254 36.4199L21.0284 43.1979C21.5147 43.518 22.1516 43.518 22.6496 43.1979L33.1526 36.4199" stroke="white" stroke-width="1.03531" stroke-miterlimit="10"/>
<path d="M19.7846 5.08131C20.2189 5.08131 20.5711 4.72918 20.5711 4.29481C20.5711 3.86043 20.2189 3.5083 19.7846 3.5083C19.3502 3.5083 18.998 3.86043 18.998 4.29481C18.998 4.72918 19.3502 5.08131 19.7846 5.08131Z" fill="white"/>
<path d="M10.9506 37.3884C11.3849 37.3884 11.7371 37.0363 11.7371 36.6019C11.7371 36.1676 11.3849 35.8154 10.9506 35.8154C10.5162 35.8154 10.1641 36.1676 10.1641 36.6019C10.1641 37.0363 10.5162 37.3884 10.9506 37.3884Z" fill="white"/>
<path d="M8.77479 35.9382C9.20916 35.9382 9.56129 35.5861 9.56129 35.1517C9.56129 34.7174 9.20916 34.3652 8.77479 34.3652C8.34041 34.3652 7.98828 34.7174 7.98828 35.1517C7.98828 35.5861 8.34041 35.9382 8.77479 35.9382Z" fill="white"/>
<path d="M12.767 41.9866C13.2013 41.9866 13.5535 41.6345 13.5535 41.2001C13.5535 40.7657 13.2013 40.4136 12.767 40.4136C12.3326 40.4136 11.9805 40.7657 11.9805 41.2001C11.9805 41.6345 12.3326 41.9866 12.767 41.9866Z" fill="white"/>
<path d="M14.7637 42.5908L21.0812 46.7012C21.5787 47.0287 22.2267 47.0287 22.7242 46.7012L29.0418 42.5908" stroke="white" stroke-width="1.03531" stroke-miterlimit="10"/>
<defs>
<filter id="filter0_i" x="10.3066" y="10.1294" width="24.7258" height="28.0466" filterUnits="userSpaceOnUse" color-interpolation-filters="sRGB">
<feFlood flood-opacity="0" result="BackgroundImageFix"/>
<feBlend mode="normal" in="SourceGraphic" in2="BackgroundImageFix" result="shape"/>
<feColorMatrix in="SourceAlpha" type="matrix" values="0 0 0 0 0 0 0 0 0 0 0 0 0 0 0 0 0 0 127 0" result="hardAlpha"/>
<feOffset dx="1.3968" dy="1.95551"/>
<feGaussianBlur stdDeviation="2.09519"/>
<feComposite in2="hardAlpha" operator="arithmetic" k2="-1" k3="1"/>
<feColorMatrix type="matrix" values="0 0 0 0 1 0 0 0 0 1 0 0 0 0 1 0 0 0 0.25 0"/>
<feBlend mode="normal" in2="shape" result="effect1_innerShadow"/>
</filter>
<filter id="filter1_i" x="26.6309" y="9.62988" width="7.50206" height="7.74406" filterUnits="userSpaceOnUse" color-interpolation-filters="sRGB">
<feFlood flood-opacity="0" result="BackgroundImageFix"/>
<feBlend mode="normal" in="SourceGraphic" in2="BackgroundImageFix" result="shape"/>
<feColorMatrix in="SourceAlpha" type="matrix" values="0 0 0 0 0 0 0 0 0 0 0 0 0 0 0 0 0 0 127 0" result="hardAlpha"/>
<feOffset dx="0.605005" dy="0.847007"/>
<feGaussianBlur stdDeviation="0.907507"/>
<feComposite in2="hardAlpha" operator="arithmetic" k2="-1" k3="1"/>
<feColorMatrix type="matrix" values="0 0 0 0 1 0 0 0 0 1 0 0 0 0 1 0 0 0 0.25 0"/>
<feBlend mode="normal" in2="shape" result="effect1_innerShadow"/>
</filter>
<linearGradient id="paint0_linear" x1="9.60381" y1="8.91649" x2="36.2311" y2="10.5597" gradientUnits="userSpaceOnUse">
<stop stop-color="#227599"/>
<stop offset="1" stop-color="#42DDC1"/>
</linearGradient>
</defs>
</svg>
