<svg width="218" height="223" viewBox="0 0 218 223" fill="none" xmlns="http://www.w3.org/2000/svg">
<path d="M112.31 53.7876V35.0724H127.526V19.7742" stroke="#042351" stroke-width="4.8" stroke-miterlimit="10"/>
<path d="M133.502 13.7945C133.502 17.1337 130.863 19.774 127.525 19.774C124.186 19.774 121.547 17.1337 121.547 13.7945C121.547 10.4553 124.186 7.81494 127.525 7.81494C130.863 7.81494 133.502 10.5329 133.502 13.7945Z" stroke="#042351" stroke-width="4.8" stroke-miterlimit="10"/>
<path d="M166.885 99.6821H185.594V114.903H200.888" stroke="#042351" stroke-width="4.8" stroke-miterlimit="10"/>
<path d="M206.866 120.882C203.606 120.882 200.889 118.242 200.889 114.903C200.889 111.564 203.528 108.923 206.866 108.923C210.205 108.923 212.844 111.564 212.844 114.903C212.844 118.242 210.127 120.882 206.866 120.882Z" stroke="#042351" stroke-width="4.8" stroke-miterlimit="10"/>
<path d="M71.6284 147.208L58.4307 160.487L47.6397 149.693L36.8486 160.487" stroke="#042351" stroke-width="4.8" stroke-miterlimit="10"/>
<path d="M28.3864 160.487C30.7154 158.157 34.5194 158.157 36.8484 160.487C39.1775 162.816 39.1775 166.622 36.8484 168.951C34.5194 171.281 30.7154 171.281 28.3864 168.951C26.0574 166.622 26.0574 162.816 28.3864 160.487Z" stroke="#042351" stroke-width="4.8" stroke-miterlimit="10"/>
<path d="M56.0996 45.3999L75.6632 67.5319" stroke="#042351" stroke-width="4.8" stroke-miterlimit="10"/>
<path d="M58.8179 42.76C58.8179 46.0993 56.1783 48.7396 52.8401 48.7396C49.5018 48.7396 46.8623 46.0993 46.8623 42.76C46.8623 39.4208 49.5018 36.7805 52.8401 36.7805C56.1783 36.7805 58.8179 39.4985 58.8179 42.76Z" stroke="#042351" stroke-width="4.8" stroke-miterlimit="10"/>
<path d="M96.5508 13.7942V56.1168" stroke="#042351" stroke-width="4.8" stroke-miterlimit="10"/>
<path d="M102.528 8.97953C102.528 12.3187 99.8883 14.9591 96.55 14.9591C93.2894 14.9591 90.5723 12.3187 90.5723 8.97953C90.5723 5.71797 93.2118 3 96.55 3C99.8883 3 102.528 5.64031 102.528 8.97953Z" stroke="#042351" stroke-width="4.8" stroke-miterlimit="10"/>
<path d="M174.105 33.2083L147.555 66.0568" stroke="#042351" stroke-width="4.8" stroke-miterlimit="10"/>
<path d="M181.79 33.2084C179.694 35.7711 175.968 36.1594 173.406 34.1403C170.844 32.0436 170.456 28.3161 172.552 25.7534C174.648 23.1908 178.374 22.8025 180.936 24.8992C183.498 26.8406 183.886 30.6458 181.79 33.2084Z" stroke="#042351" stroke-width="4.8" stroke-miterlimit="10"/>
<path d="M65.1074 180.212L83.6618 158.157" stroke="#042351" stroke-width="4.8" stroke-miterlimit="10"/>
<path d="M57.421 180.212C59.5172 177.65 63.2436 177.261 65.8055 179.28C68.3674 181.377 68.7555 185.105 66.6594 187.667C64.5633 190.23 60.8369 190.618 58.275 188.522C55.7131 186.502 55.3249 182.775 57.421 180.212Z" stroke="#042351" stroke-width="4.8" stroke-miterlimit="10"/>
<path d="M172.396 170.116L151.9 149.925" stroke="#042351" stroke-width="4.8" stroke-miterlimit="10"/>
<path d="M180.082 169.417C177.753 167.009 174.026 167.009 171.62 169.261C169.213 171.591 169.213 175.319 171.465 177.726C173.794 180.056 177.52 180.133 179.927 177.881C182.256 175.629 182.333 171.824 180.082 169.417Z" stroke="#042351" stroke-width="4.8" stroke-miterlimit="10"/>
<path d="M177.91 148.916L162.15 137.811" stroke="#042351" stroke-width="4.8" stroke-miterlimit="10"/>
<path d="M185.363 147.13C182.723 145.111 178.997 145.577 176.978 148.217C174.96 150.858 175.426 154.585 178.065 156.604C180.705 158.623 184.431 158.157 186.449 155.517C188.468 152.877 188.002 149.149 185.363 147.13Z" stroke="#042351" stroke-width="4.8" stroke-miterlimit="10"/>
<path d="M204.305 84.4617H162.072" stroke="#042351" stroke-width="4.8" stroke-miterlimit="10"/>
<path d="M209.197 90.3638C205.936 90.3638 203.219 87.7235 203.219 84.3843C203.219 81.0451 205.858 78.4048 209.197 78.4048C212.535 78.4048 215.174 81.0451 215.174 84.3843C215.097 87.7235 212.457 90.3638 209.197 90.3638Z" stroke="#042351" stroke-width="4.8" stroke-miterlimit="10"/>
<path d="M100.819 209.099V166.776" stroke="#042351" stroke-width="4.8" stroke-miterlimit="10"/>
<path d="M94.8408 213.914C94.8408 210.574 97.4804 207.934 100.819 207.934C104.157 207.934 106.796 210.574 106.796 213.914C106.796 217.175 104.157 219.893 100.819 219.893C97.558 219.893 94.8408 217.253 94.8408 213.914Z" stroke="#042351" stroke-width="4.8" stroke-miterlimit="10"/>
<path d="M121.549 189.141V166.776" stroke="#042351" stroke-width="4.8" stroke-miterlimit="10"/>
<path d="M115.57 193.956C115.57 190.617 118.21 187.976 121.548 187.976C124.886 187.976 127.526 190.617 127.526 193.956C127.526 197.217 124.886 199.935 121.548 199.935C118.287 199.935 115.57 197.217 115.57 193.956Z" stroke="#042351" stroke-width="4.8" stroke-miterlimit="10"/>
<path d="M13.79 117.698H56.1003" stroke="#042351" stroke-width="4.8" stroke-miterlimit="10"/>
<path d="M8.97778 123.678C12.316 123.678 14.9556 121.037 14.9556 117.698C14.9556 114.359 12.316 111.719 8.97778 111.719C5.71717 111.719 3 114.359 3 117.698C3 120.96 5.63954 123.678 8.97778 123.678Z" stroke="#042351" stroke-width="4.8" stroke-miterlimit="10"/>
<path d="M33.8193 96.9636H56.1001" stroke="#042351" stroke-width="4.8" stroke-miterlimit="10"/>
<path d="M29.0061 102.943C32.3443 102.943 34.9839 100.303 34.9839 96.9639C34.9839 93.6247 32.3443 90.9844 29.0061 90.9844C25.7455 90.9844 23.0283 93.6247 23.0283 96.9639C23.0283 100.225 25.6679 102.943 29.0061 102.943Z" stroke="#042351" stroke-width="4.8" stroke-miterlimit="10"/>
<path d="M168.514 111.486C168.514 143.713 142.429 169.805 110.211 169.805C77.9931 169.805 51.9082 143.713 51.9082 111.486C51.9082 79.2582 77.9931 53.1657 110.211 53.1657C142.351 53.088 168.514 79.2582 168.514 111.486Z" fill="#FFA034"/>
<path d="M110.133 53.0884C77.9149 53.0884 51.8301 79.1809 51.8301 111.408C51.8301 143.636 77.9149 169.728 110.133 169.728C142.351 169.728 168.436 143.636 168.436 111.408C168.513 79.2585 142.351 53.0884 110.133 53.0884ZM112.928 163.515C84.2032 163.515 60.8356 140.219 60.8356 111.408C60.8356 82.5977 84.1256 59.3009 112.928 59.3009C141.652 59.3009 165.02 82.5977 165.02 111.408C165.02 140.219 141.73 163.515 112.928 163.515Z" fill="#FF8800"/>
<path d="M148.251 111.485C148.251 132.53 131.171 149.615 110.133 149.615C89.094 149.615 72.0146 132.53 72.0146 111.485C72.0146 90.4406 89.094 73.3562 110.133 73.3562C131.249 73.3562 148.251 90.3629 148.251 111.485Z" fill="#FFA034"/>
<path d="M147.165 120.184C143.283 135.094 129.775 146.121 113.627 146.121C94.4517 146.121 78.925 130.59 78.925 111.409C78.925 92.2274 94.4517 76.6962 113.627 76.6962C128.921 76.6962 141.886 86.6362 146.544 100.381H146.777C142.041 84.6948 127.524 73.2017 110.289 73.2017C89.2503 73.2017 72.1709 90.286 72.1709 111.331C72.1709 132.376 89.2503 149.46 110.289 149.46C128.378 149.46 143.438 136.88 147.398 120.028H147.165V120.184Z" fill="#FF8800"/>
<path d="M148.251 111.485C148.251 132.53 131.171 149.615 110.133 149.615C89.094 149.615 72.0146 132.53 72.0146 111.485C72.0146 90.4406 89.094 73.3562 110.133 73.3562C131.249 73.3562 148.251 90.3629 148.251 111.485Z" stroke="#042351" stroke-width="4.8" stroke-miterlimit="10"/>
<path d="M168.514 111.486C168.514 143.713 142.429 169.805 110.211 169.805C77.9931 169.805 51.9082 143.713 51.9082 111.486C51.9082 79.2582 77.9931 53.1657 110.211 53.1657C142.351 53.088 168.514 79.2582 168.514 111.486Z" stroke="#042351" stroke-width="4.8" stroke-miterlimit="10"/>
<path d="M143.516 107.836C143.516 121.426 132.492 132.453 118.906 132.453C105.32 132.453 94.2959 121.426 94.2959 107.836C94.2959 94.2459 105.32 83.2188 118.906 83.2188C132.492 83.2188 143.516 94.2459 143.516 107.836Z" fill="#FFD6A7"/>
<path d="M98.8105 93.0602C101.057 92.6188 105.676 92.2405 110.045 92.2405C115.35 92.2405 118.595 92.7449 121.342 94.4475C124.025 95.8978 125.96 98.5461 125.96 102.014C125.96 105.482 123.963 108.698 119.656 110.275V110.401C124.025 111.599 127.271 114.941 127.271 119.922C127.271 123.454 125.648 126.165 123.276 128.12C120.468 130.39 115.849 131.651 108.172 131.651C103.928 131.651 100.745 131.336 98.8105 131.083V93.0602V93.0602ZM107.361 107.879H110.232C114.788 107.879 117.222 105.987 117.222 103.086C117.222 100.123 114.976 98.6092 111.106 98.6092C109.234 98.6092 108.173 98.7353 107.424 98.8614V107.879H107.361ZM107.361 125.093C108.235 125.219 109.234 125.219 110.731 125.219C114.663 125.219 118.159 123.706 118.159 119.67C118.159 115.761 114.663 114.184 110.357 114.184H107.424V125.093H107.361Z" fill="#042351"/>
<path d="M108.798 86.7527H105.303V93.7368H108.798V86.7527Z" fill="#042351"/>
<path d="M115.288 86.7527H111.793V93.7368H115.288V86.7527Z" fill="#042351"/>
<path d="M108.798 128.159H105.303V135.143H108.798V128.159Z" fill="#042351"/>
<path d="M115.288 128.159H111.793V135.143H115.288V128.159Z" fill="#042351"/>
<path d="M110.133 160.254V154.196C116.111 154.196 122.166 152.876 127.678 150.391C138.236 145.577 146.155 136.879 150.036 125.852C153.996 114.747 153.297 102.866 148.096 92.382L153.53 89.6641C159.508 101.623 160.284 115.213 155.781 127.871C151.279 140.451 142.195 150.391 130.162 155.827C123.952 158.7 116.965 160.254 110.133 160.254Z" fill="#FFD6A7"/>
<path d="M144.444 86.092C140.795 81.122 136.06 76.8509 130.703 73.9776L133.653 68.697C139.786 72.0362 145.221 76.8509 149.413 82.5975L144.444 86.092Z" fill="#FFD6A7"/>
</svg>
