<svg width="218" height="222" viewBox="0 0 218 222" fill="none" xmlns="http://www.w3.org/2000/svg">
<path d="M112.109 53.1872V34.4721H127.326V19.1738" stroke="#3D5269" stroke-width="4.8" stroke-miterlimit="10"/>
<path d="M133.303 13.1939C133.303 16.5331 130.664 19.1734 127.325 19.1734C123.987 19.1734 121.348 16.5331 121.348 13.1939C121.348 9.85467 123.987 7.21436 127.325 7.21436C130.664 7.21436 133.303 9.93232 133.303 13.1939Z" stroke="#3D5269" stroke-width="4.8" stroke-miterlimit="10"/>
<path d="M166.686 99.0815H185.395V114.302H200.689" stroke="#3D5269" stroke-width="4.8" stroke-miterlimit="10"/>
<path d="M206.667 120.282C203.407 120.282 200.689 117.642 200.689 114.302C200.689 110.963 203.329 108.323 206.667 108.323C210.005 108.323 212.645 110.963 212.645 114.302C212.645 117.642 209.928 120.282 206.667 120.282Z" stroke="#3D5269" stroke-width="4.8" stroke-miterlimit="10"/>
<path d="M71.4302 146.607L58.2325 159.887L47.4414 149.092L36.6504 159.887" stroke="#3D5269" stroke-width="4.8" stroke-miterlimit="10"/>
<path d="M28.1882 159.886C30.5172 157.556 34.3212 157.556 36.6502 159.886C38.9792 162.216 38.9792 166.021 36.6502 168.35C34.3212 170.68 30.5172 170.68 28.1882 168.35C25.8592 166.021 25.8592 162.216 28.1882 159.886Z" stroke="#3D5269" stroke-width="4.8" stroke-miterlimit="10"/>
<path d="M55.9004 44.7993L75.464 66.9313" stroke="#3D5269" stroke-width="4.8" stroke-miterlimit="10"/>
<path d="M58.6196 42.1592C58.6196 45.4984 55.9801 48.1387 52.6418 48.1387C49.3036 48.1387 46.6641 45.4984 46.6641 42.1592C46.6641 38.82 49.3036 36.1797 52.6418 36.1797C55.9801 36.1797 58.6196 38.8977 58.6196 42.1592Z" stroke="#3D5269" stroke-width="4.8" stroke-miterlimit="10"/>
<path d="M96.3516 13.1934V55.516" stroke="#3D5269" stroke-width="4.8" stroke-miterlimit="10"/>
<path d="M102.329 8.37894C102.329 11.7182 99.6891 14.3585 96.3508 14.3585C93.0902 14.3585 90.373 11.7182 90.373 8.37894C90.373 5.11738 93.0126 2.39941 96.3508 2.39941C99.6891 2.39941 102.329 5.03972 102.329 8.37894Z" stroke="#3D5269" stroke-width="4.8" stroke-miterlimit="10"/>
<path d="M173.906 32.6074L147.355 65.456" stroke="#3D5269" stroke-width="4.8" stroke-miterlimit="10"/>
<path d="M181.591 32.6076C179.495 35.1703 175.769 35.5585 173.207 33.5395C170.645 31.4428 170.257 27.7153 172.353 25.1526C174.449 22.59 178.175 22.2017 180.737 24.2984C183.299 26.2398 183.687 30.045 181.591 32.6076Z" stroke="#3D5269" stroke-width="4.8" stroke-miterlimit="10"/>
<path d="M64.9082 179.611L83.4626 157.557" stroke="#3D5269" stroke-width="4.8" stroke-miterlimit="10"/>
<path d="M57.2218 179.611C59.3179 177.049 63.0443 176.66 65.6062 178.679C68.1682 180.776 68.5563 184.504 66.4602 187.066C64.3641 189.629 60.6377 190.017 58.0758 187.92C55.5139 185.901 55.1257 182.174 57.2218 179.611Z" stroke="#3D5269" stroke-width="4.8" stroke-miterlimit="10"/>
<path d="M172.196 169.515L151.701 149.324" stroke="#3D5269" stroke-width="4.8" stroke-miterlimit="10"/>
<path d="M179.883 168.816C177.554 166.408 173.827 166.408 171.421 168.66C169.014 170.99 169.014 174.718 171.265 177.125C173.594 179.455 177.321 179.532 179.727 177.28C182.056 175.028 182.134 171.223 179.883 168.816Z" stroke="#3D5269" stroke-width="4.8" stroke-miterlimit="10"/>
<path d="M177.711 148.316L161.951 137.211" stroke="#3D5269" stroke-width="4.8" stroke-miterlimit="10"/>
<path d="M185.163 146.53C182.524 144.511 178.797 144.977 176.779 147.618C174.761 150.258 175.226 153.985 177.866 156.004C180.505 158.023 184.232 157.558 186.25 154.917C188.269 152.277 187.803 148.549 185.163 146.53Z" stroke="#3D5269" stroke-width="4.8" stroke-miterlimit="10"/>
<path d="M204.106 83.8613H161.873" stroke="#3D5269" stroke-width="4.8" stroke-miterlimit="10"/>
<path d="M208.997 89.7633C205.737 89.7633 203.02 87.1229 203.02 83.7837C203.02 80.4445 205.659 77.8042 208.997 77.8042C212.336 77.8042 214.975 80.4445 214.975 83.7837C214.897 87.1229 212.258 89.7633 208.997 89.7633Z" stroke="#3D5269" stroke-width="4.8" stroke-miterlimit="10"/>
<path d="M100.619 208.498V166.176" stroke="#3D5269" stroke-width="4.8" stroke-miterlimit="10"/>
<path d="M94.6406 213.314C94.6406 209.974 97.2802 207.334 100.618 207.334C103.957 207.334 106.596 209.974 106.596 213.314C106.596 216.575 103.957 219.293 100.618 219.293C97.3578 219.293 94.6406 216.653 94.6406 213.314Z" stroke="#3D5269" stroke-width="4.8" stroke-miterlimit="10"/>
<path d="M121.35 188.541V166.176" stroke="#3D5269" stroke-width="4.8" stroke-miterlimit="10"/>
<path d="M115.371 193.356C115.371 190.016 118.011 187.376 121.349 187.376C124.687 187.376 127.327 190.016 127.327 193.356C127.327 196.617 124.687 199.335 121.349 199.335C118.088 199.335 115.371 196.617 115.371 193.356Z" stroke="#3D5269" stroke-width="4.8" stroke-miterlimit="10"/>
<path d="M13.5898 117.098H55.9001" stroke="#3D5269" stroke-width="4.8" stroke-miterlimit="10"/>
<path d="M8.77856 123.077C12.1168 123.077 14.7563 120.437 14.7563 117.098C14.7563 113.758 12.1168 111.118 8.77856 111.118C5.51795 111.118 2.80078 113.758 2.80078 117.098C2.80078 120.359 5.44032 123.077 8.77856 123.077Z" stroke="#3D5269" stroke-width="4.8" stroke-miterlimit="10"/>
<path d="M33.6191 96.3633H55.8999" stroke="#3D5269" stroke-width="4.8" stroke-miterlimit="10"/>
<path d="M28.8059 102.343C32.1441 102.343 34.7837 99.7025 34.7837 96.3633C34.7837 93.0241 32.1441 90.3838 28.8059 90.3838C25.5453 90.3838 22.8281 93.0241 22.8281 96.3633C22.8281 99.6249 25.4677 102.343 28.8059 102.343Z" stroke="#3D5269" stroke-width="4.8" stroke-miterlimit="10"/>
<path d="M168.314 110.885C168.314 143.112 142.23 169.205 110.012 169.205C77.7938 169.205 51.709 143.112 51.709 110.885C51.709 78.6576 77.7938 52.5651 110.012 52.5651C142.152 52.4875 168.314 78.6576 168.314 110.885Z" fill="#FFA034"/>
<path d="M109.934 52.4878C77.7157 52.4878 51.6309 78.5803 51.6309 110.808C51.6309 143.035 77.7157 169.127 109.934 169.127C142.151 169.127 168.236 143.035 168.236 110.808C168.314 78.6579 142.151 52.4878 109.934 52.4878ZM112.728 162.915C84.004 162.915 60.6363 139.618 60.6363 110.808C60.6363 81.9972 83.9264 58.7003 112.728 58.7003C141.453 58.7003 164.82 81.9972 164.82 110.808C164.82 139.618 141.53 162.915 112.728 162.915Z" fill="#FF8800"/>
<path d="M148.051 110.885C148.051 131.93 130.971 149.014 109.932 149.014C88.8938 149.014 71.8145 131.93 71.8145 110.885C71.8145 89.8402 88.8938 72.7559 109.932 72.7559C131.049 72.7559 148.051 89.7626 148.051 110.885Z" fill="#FFA034"/>
<path d="M146.965 119.583C143.083 134.493 129.575 145.52 113.427 145.52C94.2515 145.52 78.7248 129.989 78.7248 110.808C78.7248 91.6268 94.2515 76.0956 113.427 76.0956C128.721 76.0956 141.686 86.0356 146.344 99.7807H146.576C141.841 84.0942 127.323 72.6011 110.089 72.6011C89.0501 72.6011 71.9707 89.6854 71.9707 110.73C71.9707 131.775 89.0501 148.859 110.089 148.859C128.177 148.859 143.238 136.279 147.198 119.428H146.965V119.583Z" fill="#FF8800"/>
<path d="M148.051 110.885C148.051 131.93 130.971 149.014 109.932 149.014C88.8938 149.014 71.8145 131.93 71.8145 110.885C71.8145 89.8402 88.8938 72.7559 109.932 72.7559C131.049 72.7559 148.051 89.7626 148.051 110.885Z" stroke="#3D5269" stroke-width="4.8" stroke-miterlimit="10"/>
<path d="M168.314 110.885C168.314 143.112 142.23 169.205 110.012 169.205C77.7938 169.205 51.709 143.112 51.709 110.885C51.709 78.6576 77.7938 52.5651 110.012 52.5651C142.152 52.4875 168.314 78.6576 168.314 110.885Z" stroke="#3D5269" stroke-width="4.8" stroke-miterlimit="10"/>
<path d="M143.315 107.235C143.315 120.825 132.291 131.852 118.706 131.852C105.12 131.852 94.0957 120.825 94.0957 107.235C94.0957 93.6453 105.12 82.6182 118.706 82.6182C132.291 82.6182 143.315 93.6453 143.315 107.235Z" fill="#FFD6A7"/>
<path d="M98.6113 92.4599C100.858 92.0185 105.477 91.6401 109.846 91.6401C115.151 91.6401 118.396 92.1446 121.142 93.8471C123.826 95.2974 125.761 97.9458 125.761 101.414C125.761 104.882 123.764 108.098 119.457 109.674V109.8C123.826 110.999 127.072 114.341 127.072 119.322C127.072 122.853 125.449 125.565 123.077 127.519C120.269 129.789 115.65 131.051 107.973 131.051C103.729 131.051 100.546 130.735 98.6113 130.483V92.4599V92.4599ZM107.162 107.278H110.033C114.589 107.278 117.023 105.386 117.023 102.486C117.023 99.5222 114.776 98.0089 110.907 98.0089C109.034 98.0089 107.973 98.135 107.224 98.2611V107.278H107.162ZM107.162 124.493C108.036 124.619 109.034 124.619 110.532 124.619C114.464 124.619 117.959 123.105 117.959 119.07C117.959 115.16 114.464 113.584 110.158 113.584H107.224V124.493H107.162Z" fill="#64666F"/>
<path d="M108.599 86.1523H105.104V93.1365H108.599V86.1523Z" fill="#64666F"/>
<path d="M115.089 86.1523H111.594V93.1365H115.089V86.1523Z" fill="#64666F"/>
<path d="M108.599 127.559H105.104V134.543H108.599V127.559Z" fill="#64666F"/>
<path d="M115.089 127.559H111.594V134.543H115.089V127.559Z" fill="#64666F"/>
<path d="M109.934 159.653V153.596C115.911 153.596 121.967 152.276 127.479 149.791C138.037 144.976 145.956 136.278 149.837 125.251C153.797 114.146 153.098 102.265 147.896 91.7814L153.331 89.0635C159.308 101.023 160.085 114.612 155.582 127.27C151.079 139.851 141.996 149.791 129.963 155.227C123.752 158.1 116.765 159.653 109.934 159.653Z" fill="#FFD6A7"/>
<path d="M144.245 85.4917C140.596 80.5217 135.861 76.2506 130.504 73.3773L133.454 68.0967C139.587 71.4359 145.021 76.2506 149.214 81.9971L144.245 85.4917Z" fill="#FFD6A7"/>
</svg>
