<svg width="16" height="16" viewBox="0 0 16 16" fill="none" xmlns="http://www.w3.org/2000/svg">
<path fill-rule="evenodd" clip-rule="evenodd" d="M2 4.33333C2 2.58319 2.01874 2 4.33333 2C6.64793 2 6.66667 2.58319 6.66667 4.33333C6.66667 6.08348 6.67405 6.66667 4.33333 6.66667C1.99262 6.66667 2 6.08348 2 4.33333Z" stroke="#9AA2A9" stroke-width="1.5" stroke-linecap="round" stroke-linejoin="round"/>
<path fill-rule="evenodd" clip-rule="evenodd" d="M9.33203 4.33333C9.33203 2.58319 9.35077 2 11.6654 2C13.98 2 13.9987 2.58319 13.9987 4.33333C13.9987 6.08348 14.0061 6.66667 11.6654 6.66667C9.32465 6.66667 9.33203 6.08348 9.33203 4.33333Z" stroke="#9AA2A9" stroke-width="1.5" stroke-linecap="round" stroke-linejoin="round"/>
<path fill-rule="evenodd" clip-rule="evenodd" d="M2 11.6673C2 9.91718 2.01874 9.33398 4.33333 9.33398C6.64793 9.33398 6.66667 9.91718 6.66667 11.6673C6.66667 13.4175 6.67405 14.0007 4.33333 14.0007C1.99262 14.0007 2 13.4175 2 11.6673Z" stroke="#9AA2A9" stroke-width="1.5" stroke-linecap="round" stroke-linejoin="round"/>
<path fill-rule="evenodd" clip-rule="evenodd" d="M9.33203 11.6673C9.33203 9.91718 9.35077 9.33398 11.6654 9.33398C13.98 9.33398 13.9987 9.91718 13.9987 11.6673C13.9987 13.4175 14.0061 14.0007 11.6654 14.0007C9.32465 14.0007 9.33203 13.4175 9.33203 11.6673Z" stroke="#9AA2A9" stroke-width="1.5" stroke-linecap="round" stroke-linejoin="round"/>
</svg>
