<svg width="33" height="32" viewBox="0 0 33 32" fill="none" xmlns="http://www.w3.org/2000/svg">
<path d="M15.0305 14.8013L0.440244 8.65801C0.231223 8.56996 0 8.72348 0 8.95032V25.3738C0 25.7888 0.252665 26.162 0.638037 26.3161L14.7896 31.9767C14.9979 32.0601 15.2246 31.9066 15.2246 31.6823V15.0936C15.2246 14.9659 15.1481 14.8508 15.0305 14.8013Z" fill="#175186"/>
<path d="M16.3672 13.0565L30.4699 7.11849C30.7234 7.01179 30.7302 6.65503 30.4809 6.53875L16.6733 0.0952012C16.4012 -0.0317337 16.087 -0.0317337 15.8149 0.0952012L2.00728 6.53875C1.75804 6.65503 1.76483 7.01179 2.01832 7.11849L16.121 13.0565C16.1997 13.0896 16.2885 13.0896 16.3672 13.0565Z" fill="#175186"/>
<path d="M17.2539 15.0936V31.6823C17.2539 31.9066 17.4806 32.0601 17.6889 31.9767L31.8405 26.3161C32.2258 26.162 32.4785 25.7888 32.4785 25.3738V8.95032C32.4785 8.72348 32.2473 8.56996 32.0382 8.65801L17.448 14.8013C17.3304 14.8508 17.2539 14.9659 17.2539 15.0936Z" fill="#175186"/>
</svg>
