<svg width="17" height="16" viewBox="0 0 17 16" fill="none" xmlns="http://www.w3.org/2000/svg">
<path d="M8.90148 12.8451C8.63481 12.8451 8.45703 12.6673 8.45703 12.4007V11.7784C8.45703 11.5118 8.63481 11.334 8.90148 11.334C9.16814 11.334 9.34592 11.5118 9.34592 11.7784V12.4007C9.34592 12.6673 9.16814 12.8451 8.90148 12.8451Z" fill="#9AA2A9"/>
<path d="M8.90013 10.5336C8.63346 10.5336 8.45569 10.3558 8.45569 10.0891C8.45569 9.28911 8.67791 8.75577 9.21124 8.22244C9.34458 8.08911 9.52235 7.95577 9.70013 7.82244C9.87791 7.68911 10.1001 7.55577 10.2779 7.33355C10.6779 6.97799 10.8557 6.48911 10.8557 6.00022C10.8557 4.88911 9.9668 4.00022 8.85569 4.00022C7.74457 4.00022 6.85569 4.88911 6.85569 6.00022C6.85569 6.26688 6.67791 6.44466 6.41124 6.44466C6.14457 6.44466 5.9668 6.26688 5.9668 6.00022C5.9668 4.40022 7.25569 3.11133 8.85569 3.11133C10.4557 3.11133 11.7446 4.40022 11.7446 6.00022C11.7446 6.75577 11.4335 7.46688 10.8557 8.00022C10.6335 8.22244 10.4112 8.35577 10.189 8.53355C10.0112 8.66688 9.87791 8.75577 9.78902 8.84466C9.43346 9.20022 9.30013 9.51133 9.30013 10.0891C9.34457 10.3113 9.1668 10.5336 8.90013 10.5336Z" fill="#9AA2A9"/>
<path d="M8.90039 16C4.50039 16 0.900391 12.4 0.900391 8C0.900391 3.6 4.50039 0 8.90039 0C13.3004 0 16.9004 3.6 16.9004 8C16.9004 12.4 13.3448 16 8.90039 16ZM8.90039 0.888889C4.98928 0.888889 1.78928 4.08889 1.78928 8C1.78928 11.9111 4.98928 15.1111 8.90039 15.1111C12.8115 15.1111 16.0115 11.9111 16.0115 8C16.0115 4.08889 12.8559 0.888889 8.90039 0.888889Z" fill="#9AA2A9"/>
</svg>
