<svg width="16" height="16" viewBox="0 0 16 16" fill="none" xmlns="http://www.w3.org/2000/svg">
<g clip-path="url(#clip0)">
<path d="M7.19938 11.85C7.44938 11.85 7.67438 12.05 7.67438 12.325C7.67438 12.575 7.47438 12.8 7.19938 12.8C6.94938 12.8 6.72438 12.6 6.72438 12.325C6.72438 12.05 6.94938 11.85 7.19938 11.85ZM14.5494 8.94996C14.2994 8.94996 14.0744 8.74996 14.0744 8.47496C14.0744 8.22496 14.2744 7.99996 14.5494 7.99996C14.7994 7.99996 15.0244 8.19996 15.0244 8.47496C15.0244 8.72496 14.7994 8.94996 14.5494 8.94996ZM14.5494 7.02496C13.7494 7.02496 13.0994 7.67496 13.0994 8.47496C13.0994 8.62496 13.1244 8.77496 13.1744 8.92496L8.39938 11.475C8.12438 11.075 7.67438 10.85 7.19938 10.85C6.64938 10.85 6.14938 11.175 5.89938 11.65L1.59938 9.39996C1.14938 9.14996 0.799384 8.42496 0.849384 7.72496C0.874384 7.37496 0.999384 7.09996 1.17438 6.99996C1.29938 6.92496 1.42438 6.94996 1.59938 7.02496L1.62438 7.04996C2.77438 7.64996 6.49938 9.59996 6.64938 9.67496C6.89938 9.77496 7.02438 9.82496 7.44938 9.62496L15.1494 5.62496C15.2744 5.57496 15.3994 5.47496 15.3994 5.29996C15.3994 5.07496 15.1744 4.97496 15.1744 4.97496C14.7244 4.77496 14.0494 4.44996 13.3994 4.14996C11.9994 3.49996 10.3994 2.74996 9.69938 2.37496C9.09938 2.04996 8.59938 2.32496 8.52438 2.37496L8.34938 2.44996C5.17438 4.04996 0.974384 6.12496 0.724384 6.27496C0.299384 6.52496 0.024384 7.04996 -0.000616028 7.69996C-0.050616 8.72496 0.474384 9.79996 1.22438 10.175L5.77438 12.525C5.87438 13.225 6.49938 13.775 7.19938 13.775C7.99938 13.775 8.62438 13.15 8.64938 12.35L13.6494 9.64996C13.8994 9.84996 14.2244 9.94996 14.5494 9.94996C15.3494 9.94996 15.9994 9.29996 15.9994 8.49996C15.9994 7.67496 15.3494 7.02496 14.5494 7.02496Z" fill="#ADB3B9"/>
</g>
<defs>
<clipPath id="clip0">
<rect width="16" height="16" fill="white"/>
</clipPath>
</defs>
</svg>
