<svg width="16" height="16" viewBox="0 0 16 16" fill="none" xmlns="http://www.w3.org/2000/svg">
<path fill-rule="evenodd" clip-rule="evenodd" d="M8.00094 0.697266C11.9818 0.697266 15.2089 3.92438 15.2089 7.90522C15.2089 11.1397 13.0785 13.8765 10.1444 14.7892L10.0339 14.8176V12.9813C10.0152 12.7518 9.88426 12.472 9.64117 12.142C10.651 11.9698 11.3849 11.6756 11.843 11.2596C12.4508 10.6283 12.7546 9.80323 12.7547 8.78448V8.2536C12.7079 7.83271 12.5209 7.36161 12.1937 6.8403C12.1516 6.8403 12.1072 6.79487 12.0604 6.70401C12.1493 6.4218 12.1937 6.1707 12.1937 5.95071V5.86462C12.1282 5.15678 12.0277 4.80286 11.8921 4.80287C11.42 4.80287 10.8146 5.05396 10.0759 5.55613C9.46352 5.40789 9.03109 5.33376 8.77865 5.33374H7.83198C7.68239 5.33374 7.26399 5.40787 6.57677 5.55613C5.87552 5.05396 5.25609 4.80287 4.71849 4.80287C4.59694 4.98939 4.51046 5.35767 4.45903 5.90768V6.00094C4.54318 6.44094 4.58526 6.6753 4.58526 6.70401C4.12711 7.32575 3.89804 7.98816 3.89805 8.69124C3.89805 10.1308 4.41696 11.1184 5.45479 11.6541C5.78671 11.8598 6.26121 12.008 6.8783 12.0989H7.00452V12.185C6.8409 12.3715 6.69831 12.68 6.57677 13.1105C6.2993 13.2054 6.00747 13.2515 5.71424 13.2468H5.66516C5.24441 13.2468 4.81432 12.8785 4.37488 12.142C4.06166 11.8741 3.75779 11.7402 3.46328 11.7402L3.2459 11.8335C3.2459 11.9148 3.46328 12.1491 3.89805 12.5365C3.99623 12.6513 4.19725 13.0196 4.50111 13.6413C4.81432 13.9666 5.30519 14.1292 5.9737 14.1292C6.17326 14.0989 6.37492 14.0845 6.57677 14.0861L6.61883 14.1722V14.9775L6.54828 14.9668C3.26373 14.2947 0.792969 11.3885 0.792969 7.90522C0.792969 3.92438 4.02009 0.697266 8.00094 0.697266Z" fill="#ADB3B9"/>
</svg>
