<svg width="32" height="32" viewBox="0 0 32 32" fill="none" xmlns="http://www.w3.org/2000/svg">
<g clip-path="url(#clip0)">
<path d="M16.5723 31.9804C19.0193 31.6327 21.1645 29.0787 22.5144 25.3069C20.563 24.8699 18.5717 24.6353 16.5723 24.6074V31.9804Z" fill="#175186"/>
<path d="M20.4814 31.3817C20.6261 31.3398 20.7702 31.2977 20.9132 31.2513C21.0338 31.2125 21.1527 31.1706 21.2717 31.129C21.4124 31.0804 21.5526 31.0304 21.6923 30.9774C21.8112 30.9321 21.9291 30.8841 22.0472 30.8361C22.1834 30.7788 22.3194 30.7218 22.454 30.6646C22.5716 30.6129 22.6883 30.5588 22.805 30.5043C22.9371 30.442 23.0687 30.3787 23.1991 30.3128C23.3136 30.2544 23.4278 30.1949 23.5423 30.1338C23.6704 30.0651 23.7978 29.995 23.9243 29.9229C24.0388 29.8581 24.1491 29.7931 24.2605 29.7261C24.3845 29.6498 24.5079 29.5736 24.6305 29.4974C24.7402 29.4275 24.8497 29.3566 24.9578 29.2834C25.0784 29.2022 25.1974 29.1176 25.3158 29.033C25.4221 28.9567 25.528 28.8808 25.6319 28.8043C25.7464 28.716 25.8636 28.6247 25.9784 28.5331C26.0803 28.4518 26.182 28.3711 26.2822 28.2877C26.3964 28.1927 26.5059 28.0944 26.6168 27.9961C26.7139 27.9098 26.8117 27.8244 26.9066 27.7359C27.0158 27.6339 27.1222 27.5284 27.2286 27.4237C27.3207 27.3326 27.414 27.243 27.5042 27.1497C27.521 27.1324 27.5369 27.1137 27.5542 27.0958C26.3068 26.4516 24.9929 25.9459 23.6355 25.5879C22.9296 27.8392 21.6733 29.8794 19.9805 31.523C20.0268 31.511 20.0732 31.5012 20.1195 31.4892C20.2418 31.4549 20.3619 31.4172 20.4814 31.3817Z" fill="#175186"/>
<path d="M31.9982 16.5859H25.141C25.115 19.2634 24.7266 21.9249 23.9863 24.4981C25.4959 24.9014 26.9528 25.4811 28.3267 26.2253C30.5824 23.5065 31.8737 20.1167 31.9982 16.5859Z" fill="#175186"/>
<path d="M16.5723 15.4413H23.9994C23.9704 12.8585 23.5915 10.2917 22.8735 7.81055C20.8054 8.2822 18.6932 8.53408 16.5723 8.562V15.4413Z" fill="#175186"/>
<path d="M16.5723 0.0449219V7.41789C18.5717 7.38968 20.563 7.15539 22.5144 6.71837C21.1645 2.94658 19.0193 0.392585 16.5723 0.0449219Z" fill="#175186"/>
<path d="M16.5723 23.4652C18.6932 23.4934 20.8054 23.7453 22.8735 24.2169C23.5915 21.7358 23.9704 19.1687 23.9994 16.5859H16.5723V23.4652Z" fill="#175186"/>
<path d="M28.3267 5.80273C26.9528 6.54693 25.4959 7.12665 23.9863 7.52988C24.7266 10.1031 25.115 12.7646 25.141 15.4421H31.9982C31.8734 11.9115 30.5821 8.52176 28.3267 5.80273Z" fill="#175186"/>
<path d="M27.5567 4.9336C27.54 4.91657 27.5241 4.89814 27.5076 4.88055C27.4171 4.78728 27.3233 4.69736 27.2311 4.6066C27.125 4.50189 27.0192 4.39605 26.9097 4.2944C26.8151 4.20616 26.7171 4.12267 26.6199 4.03471C26.509 3.93641 26.3981 3.83728 26.2842 3.74233C26.1854 3.65884 26.084 3.57897 25.9835 3.49883C25.869 3.40612 25.7517 3.31397 25.6338 3.22545C25.5305 3.14754 25.4258 3.07214 25.3205 2.99674C25.201 2.91073 25.0809 2.82501 24.9592 2.74319C24.8522 2.67114 24.7436 2.60077 24.635 2.5318C24.5113 2.45221 24.3878 2.3743 24.2619 2.2989C24.1516 2.23272 24.0402 2.16738 23.9285 2.10399C23.8006 2.03083 23.6724 1.9599 23.5431 1.89064C23.4286 1.8334 23.3144 1.77113 23.1999 1.71388C23.0684 1.64742 22.9358 1.58347 22.7998 1.52064C22.6853 1.46619 22.5691 1.41313 22.4513 1.36147C22.3158 1.30143 22.179 1.24726 22.0424 1.19001C21.9246 1.14198 21.8073 1.09451 21.6884 1.04927C21.5496 0.996216 21.4088 0.94651 21.2681 0.897921C21.1491 0.856034 21.0302 0.814426 20.9095 0.775331C20.7666 0.728976 20.6236 0.68681 20.4767 0.644364C20.3577 0.609459 20.2382 0.573994 20.1179 0.54216C20.0718 0.529594 20.0249 0.51982 19.9785 0.507812C21.6713 2.15146 22.9274 4.19136 23.6336 6.44293C24.9924 6.08494 26.3082 5.57894 27.5567 4.9336Z" fill="#175186"/>
<path d="M0 15.4421H6.8572C6.88317 12.7646 7.2716 10.1031 8.0116 7.52988C6.50227 7.12692 5.04544 6.54721 3.67154 5.80273C1.41578 8.52149 0.124544 11.9115 0 15.4421Z" fill="#175186"/>
<path d="M15.4284 31.9804V24.6074C13.429 24.6356 11.4377 24.8699 9.48633 25.3069C10.8359 29.0787 12.9814 31.6327 15.4284 31.9804Z" fill="#175186"/>
<path d="M15.4271 16.5859H8C8.02904 19.1687 8.4077 21.7358 9.12592 24.2169C11.194 23.745 13.306 23.4931 15.4271 23.4652V16.5859Z" fill="#175186"/>
<path d="M15.4284 0.0449219C12.9814 0.392585 10.8359 2.94658 9.48633 6.71837C11.4377 7.15567 13.429 7.38996 15.4284 7.41789V0.0449219Z" fill="#175186"/>
<path d="M15.4271 8.562C13.3063 8.53408 11.194 8.2822 9.12592 7.81055C8.4077 10.2917 8.02904 12.8585 8 15.4413H15.4271V8.562Z" fill="#175186"/>
<path d="M12.0154 0.507812C11.9691 0.51982 11.9227 0.529594 11.8764 0.541601C11.7552 0.573994 11.6356 0.610017 11.515 0.644923C11.3715 0.68681 11.2291 0.728976 11.085 0.774773C10.9635 0.814147 10.844 0.856034 10.7245 0.897642C10.5846 0.947068 10.4444 0.996216 10.3059 1.04871C10.1864 1.09451 10.0685 1.14198 9.95011 1.19057C9.81412 1.24782 9.67784 1.30506 9.54353 1.36203C9.42568 1.41369 9.30924 1.46786 9.19251 1.52232C9.06043 1.58459 8.9289 1.64798 8.7985 1.71388C8.684 1.77224 8.56951 1.832 8.4553 1.89288C8.32713 1.96157 8.20007 2.03194 8.07385 2.10399C7.95936 2.16794 7.84682 2.23356 7.73652 2.30058C7.61225 2.37542 7.48939 2.45277 7.36708 2.52928C7.25705 2.59965 7.14787 2.67058 7.0398 2.74375C6.91916 2.82501 6.8002 2.90962 6.6818 2.99423C6.57541 3.07046 6.46958 3.14642 6.36542 3.22321C6.24841 3.31118 6.13671 3.40277 6.01887 3.49408C5.91722 3.57534 5.81474 3.65605 5.71533 3.7401C5.60084 3.83448 5.49221 3.93222 5.38191 4.02996C5.28417 4.11708 5.1856 4.20169 5.0901 4.29189C4.98147 4.39326 4.87563 4.49853 4.76952 4.60297C4.67737 4.69401 4.58354 4.78393 4.49307 4.87747C4.47659 4.89479 4.46067 4.91378 4.44336 4.93137C5.69048 5.57587 7.00461 6.08159 8.36203 6.43958C9.06797 4.18941 10.3235 2.15062 12.0154 0.507812Z" fill="#175186"/>
<path d="M4.76812 27.4192C4.87451 27.5239 4.98035 27.6297 5.08953 27.7317C5.18448 27.8196 5.28221 27.9031 5.37967 27.9911C5.49053 28.0897 5.60139 28.1885 5.71533 28.2835C5.81418 28.3664 5.91499 28.4465 6.01608 28.527C6.13057 28.6197 6.24478 28.7118 6.36597 28.8009C6.46901 28.8783 6.57373 28.9531 6.67845 29.0299C6.79797 29.1156 6.9186 29.2013 7.04035 29.2837C7.14731 29.3558 7.25593 29.4261 7.36456 29.4954C7.48827 29.5747 7.61169 29.6526 7.73763 29.728C7.84794 29.7945 7.95936 29.8595 8.07106 29.9232C8.19895 29.9964 8.32712 30.0673 8.45642 30.1363C8.57063 30.1935 8.68512 30.2558 8.79961 30.313C8.93114 30.3795 9.06378 30.4434 9.19977 30.5065C9.31426 30.5604 9.43043 30.6135 9.54827 30.6654C9.68371 30.7255 9.82026 30.7797 9.95709 30.8369C10.0749 30.8849 10.1922 30.9324 10.3112 30.9776C10.45 31.031 10.5907 31.0807 10.7314 31.1293C10.8504 31.1709 10.9694 31.2128 11.09 31.2516C11.233 31.2979 11.3759 31.3404 11.5228 31.3825C11.6418 31.4175 11.7613 31.4529 11.8814 31.485C11.9277 31.4976 11.9747 31.5074 12.021 31.5194C10.3282 29.8755 9.07216 27.8356 8.36594 25.584C7.00852 25.9423 5.69438 26.448 4.44727 27.0928C4.46402 27.1098 4.47994 27.1282 4.49669 27.1458C4.58242 27.2385 4.67485 27.3284 4.76812 27.4192Z" fill="#175186"/>
<path d="M3.67154 26.2253C5.04544 25.4811 6.50227 24.9014 8.0116 24.4981C7.2716 21.9249 6.88317 19.2634 6.8572 16.5859H0C0.124824 20.1165 1.41578 23.5062 3.67154 26.2253Z" fill="#175186"/>
</g>
<defs>
<clipPath id="clip0">
<rect width="32" height="32" fill="white"/>
</clipPath>
</defs>
</svg>
