<svg width="32" height="32" viewBox="0 0 32 32" fill="none" xmlns="http://www.w3.org/2000/svg">
<path fill-rule="evenodd" clip-rule="evenodd" d="M16.001 32C22.2391 29.8419 25.7052 26.9413 27.5549 22.3515C29.3721 17.8417 29.5965 11.6947 29.3153 3.30319L16.001 0L2.68652 3.30319C2.40545 11.6947 2.62977 17.8417 4.44683 22.3515C6.29664 26.9413 9.76277 29.8419 16.001 32ZM22.857 15.2984C22.857 15.9314 22.3437 16.4445 21.7106 16.4445H17.1474V21.008C17.1474 21.6407 16.6341 22.1544 16.001 22.1544C15.3678 22.1544 14.8545 21.6407 14.8545 21.008V16.4445H10.2914C9.6582 16.4445 9.14489 15.9314 9.14489 15.2984C9.14489 14.6646 9.6582 14.1519 10.2914 14.1519H14.8545V9.58844C14.8545 8.95569 15.3678 8.442 16.001 8.442C16.6341 8.442 17.1474 8.95575 17.1474 9.58844V14.1519H21.7106C22.3436 14.1519 22.857 14.6646 22.857 15.2984Z" fill="#175186"/>
</svg>
