<svg width="16" height="17" viewBox="0 0 16 17" fill="none" xmlns="http://www.w3.org/2000/svg">
<g id="Iconly/Light/Home">
<g id="Home">
<path id="Home_2" d="M6.10416 14.1803V12.1358C6.10415 11.6158 6.52809 11.1932 7.05336 11.1897H8.97741C9.50518 11.1897 9.93302 11.6133 9.93302 12.1358V12.1358V14.1866C9.9329 14.6281 10.2889 14.989 10.7347 14.9993H12.0174C13.2961 14.9993 14.3327 13.9731 14.3327 12.7072V12.7072V6.89124C14.3259 6.39323 14.0897 5.92558 13.6913 5.62137L9.3045 2.12288C8.53597 1.51373 7.44348 1.51373 6.67496 2.12288L2.30737 5.62772C1.90752 5.9307 1.67094 6.39913 1.66602 6.89759V12.7072C1.66602 13.9731 2.7026 14.9993 3.98129 14.9993H5.26399C5.72092 14.9993 6.09133 14.6326 6.09133 14.1803V14.1803" stroke="#9AA2A9" stroke-width="1.5" stroke-linecap="round" stroke-linejoin="round"/>
</g>
</g>
</svg>
