<svg width="48" height="48" viewBox="0 0 48 48" fill="none" xmlns="http://www.w3.org/2000/svg">
<path d="M39 17.355C39 8.61 32.265 1.5 24 1.5C15.735 1.5 9 8.61 9 17.355C9 23.25 12.69 29.865 16.5 33.63V40.5C16.5 42.57 18 46.5 24 46.5C30 46.5 31.5 42.57 31.5 40.5V33.63C35.31 29.865 39 23.25 39 17.355ZM12 17.355C12 10.26 17.385 4.5 24 4.5C30.615 4.5 36 10.26 36 17.355C36 21.78 33.195 27.75 29.4 31.5H28.5V18C28.5 17.6022 28.342 17.2206 28.0607 16.9393C27.7794 16.658 27.3978 16.5 27 16.5H21C20.6022 16.5 20.2206 16.658 19.9393 16.9393C19.658 17.2206 19.5 17.6022 19.5 18V31.5H18.6C14.805 27.765 12 21.78 12 17.355ZM19.5 34.5H28.5V39H19.5V34.5ZM25.5 31.5H22.5V19.5H25.5V31.5ZM24 43.5C23.2675 43.5941 22.5231 43.5065 21.8325 43.2449C21.1419 42.9833 20.5263 42.5558 20.04 42H27.96C27.4681 42.5486 26.8517 42.9712 26.1626 43.2322C25.4736 43.4932 24.7319 43.585 24 43.5ZM6 19.5H3C2.60218 19.5 2.22064 19.342 1.93934 19.0607C1.65804 18.7794 1.5 18.3978 1.5 18C1.5 17.6022 1.65804 17.2206 1.93934 16.9393C2.22064 16.658 2.60218 16.5 3 16.5H6C6.39782 16.5 6.77936 16.658 7.06066 16.9393C7.34196 17.2206 7.5 17.6022 7.5 18C7.5 18.3978 7.34196 18.7794 7.06066 19.0607C6.77936 19.342 6.39782 19.5 6 19.5ZM46.5 18C46.5 18.3978 46.342 18.7794 46.0607 19.0607C45.7794 19.342 45.3978 19.5 45 19.5H42C41.6022 19.5 41.2206 19.342 40.9393 19.0607C40.658 18.7794 40.5 18.3978 40.5 18C40.5 17.6022 40.658 17.2206 40.9393 16.9393C41.2206 16.658 41.6022 16.5 42 16.5H45C45.3978 16.5 45.7794 16.658 46.0607 16.9393C46.342 17.2206 46.5 17.6022 46.5 18ZM3.165 3.825C3.34483 3.47171 3.65719 3.20398 4.03383 3.0803C4.41047 2.95663 4.82075 2.98708 5.175 3.165L8.175 4.665C8.52829 4.84483 8.79602 5.15719 8.9197 5.53383C9.04337 5.91047 9.01292 6.32075 8.835 6.675C8.71035 6.92237 8.51964 7.1304 8.284 7.27602C8.04836 7.42163 7.777 7.49916 7.5 7.5C7.26468 7.50282 7.03248 7.44605 6.825 7.335L3.825 5.835C3.47171 5.65517 3.20398 5.34281 3.0803 4.96617C2.95663 4.58953 2.98708 4.17925 3.165 3.825ZM39.165 6.675C38.9871 6.32075 38.9566 5.91047 39.0803 5.53383C39.204 5.15719 39.4717 4.84483 39.825 4.665L42.825 3.165C43.0017 3.05865 43.1985 2.9899 43.403 2.96304C43.6075 2.93618 43.8154 2.95178 44.0136 3.00888C44.2118 3.06599 44.3961 3.16335 44.555 3.2949C44.7139 3.42645 44.8439 3.58936 44.937 3.77343C45.0301 3.95751 45.0842 4.15881 45.0959 4.36474C45.1077 4.57068 45.0768 4.77682 45.0053 4.9703C44.9338 5.16378 44.8232 5.34043 44.6803 5.48921C44.5374 5.63799 44.3654 5.75571 44.175 5.835L41.175 7.335C40.9675 7.44605 40.7353 7.50282 40.5 7.5C40.223 7.49916 39.9516 7.42163 39.716 7.27602C39.4804 7.1304 39.2896 6.92237 39.165 6.675ZM10.335 29.325C10.5129 29.6793 10.5434 30.0895 10.4197 30.4662C10.296 30.8428 10.0283 31.1552 9.675 31.335L6.675 32.835C6.46752 32.9461 6.23532 33.0028 6 33C5.723 32.9992 5.45164 32.9216 5.216 32.776C4.98036 32.6304 4.78965 32.4224 4.665 32.175C4.48708 31.8207 4.45663 31.4105 4.5803 31.0338C4.70398 30.6572 4.97171 30.3448 5.325 30.165L8.325 28.665C8.67925 28.4871 9.08953 28.4566 9.46617 28.5803C9.84281 28.704 10.1552 28.9717 10.335 29.325ZM43.335 32.175C43.2104 32.4224 43.0196 32.6304 42.784 32.776C42.5484 32.9216 42.277 32.9992 42 33C41.7647 33.0028 41.5325 32.9461 41.325 32.835L38.325 31.335C38.1346 31.2557 37.9626 31.138 37.8197 30.9892C37.6768 30.8404 37.5662 30.6638 37.4947 30.4703C37.4232 30.2768 37.3923 30.0707 37.4041 29.8647C37.4158 29.6588 37.4699 29.4575 37.563 29.2734C37.6561 29.0894 37.7861 28.9265 37.945 28.7949C38.1039 28.6634 38.2882 28.566 38.4864 28.5089C38.6846 28.4518 38.8925 28.4362 39.097 28.463C39.3015 28.4899 39.4983 28.5587 39.675 28.665L42.675 30.165C43.0283 30.3448 43.296 30.6572 43.4197 31.0338C43.5434 31.4105 43.5129 31.8207 43.335 32.175Z" fill="#1BA65D"/>
</svg>
