<svg width="16" height="16" viewBox="0 0 16 16" fill="none" xmlns="http://www.w3.org/2000/svg">
<path d="M8 9.64062C8.90609 9.64062 9.64062 8.90609 9.64062 8C9.64062 7.09391 8.90609 6.35938 8 6.35938C7.09391 6.35938 6.35938 7.09391 6.35938 8C6.35938 8.90609 7.09391 9.64062 8 9.64062Z" fill="#ADB3B9"/>
<path d="M8 0.1875C3.68528 0.1875 0.1875 3.68528 0.1875 8C0.1875 12.3147 3.68528 15.8125 8 15.8125C12.3147 15.8125 15.8125 12.3147 15.8125 8C15.8125 3.68528 12.3147 0.1875 8 0.1875ZM12.8268 9.98563C12.7893 10.7284 12.5806 11.4608 12.0393 11.9963C11.4928 12.537 10.7569 12.7384 10.007 12.7755H5.99306C5.24306 12.7384 4.50725 12.5371 3.96072 11.9963C3.41941 11.4608 3.21072 10.7284 3.17322 9.98563V6.01438C3.21072 5.27163 3.41944 4.53919 3.96072 4.00362C4.50725 3.463 5.24316 3.26156 5.99306 3.22447H10.0069C10.7569 3.26156 11.4927 3.46291 12.0393 4.00362C12.5806 4.53919 12.7893 5.27163 12.8268 6.01438L12.8268 9.98563Z" fill="#ADB3B9"/>
<path d="M9.95779 4.12948C8.9801 4.10267 7.02323 4.10267 6.04554 4.12948C5.53676 4.14345 4.95998 4.27011 4.59748 4.6573C4.22079 5.05977 4.07845 5.54602 4.06401 6.08999C4.03864 7.04474 4.06401 9.91037 4.06401 9.91037C4.08054 10.4543 4.22079 10.9406 4.59748 11.3431C4.95998 11.7304 5.53676 11.8569 6.04554 11.8709C7.02323 11.8977 8.9801 11.8977 9.95779 11.8709C10.4666 11.8569 11.0433 11.7302 11.4058 11.3431C11.7825 10.9406 11.9249 10.4543 11.9393 9.91037V6.08999C11.9249 5.54602 11.7825 5.05977 11.4058 4.6573C11.0432 4.26998 10.4664 4.14345 9.95779 4.12948ZM8.00154 10.5431C7.49859 10.5431 7.00693 10.394 6.58874 10.1146C6.17055 9.83516 5.84462 9.438 5.65215 8.97333C5.45967 8.50866 5.40931 7.99736 5.50744 7.50407C5.60556 7.01078 5.84775 6.55767 6.20339 6.20202C6.55903 5.84638 7.01214 5.60419 7.50543 5.50607C7.99872 5.40795 8.51002 5.45831 8.97469 5.65078C9.43936 5.84325 9.83651 6.16919 10.1159 6.58738C10.3954 7.00557 10.5445 7.49722 10.5445 8.00018C10.5445 8.67461 10.2766 9.32143 9.79969 9.79833C9.32279 10.2752 8.67598 10.5431 8.00154 10.5431ZM10.5553 5.98211C10.4547 5.98209 10.3564 5.95224 10.2728 5.89634C10.1892 5.84044 10.124 5.761 10.0855 5.66806C10.0471 5.57513 10.037 5.47287 10.0566 5.37422C10.0763 5.27557 10.1247 5.18496 10.1959 5.11384C10.267 5.04273 10.3576 4.9943 10.4563 4.97469C10.5549 4.95507 10.6572 4.96515 10.7501 5.00365C10.843 5.04215 10.9225 5.10734 10.9783 5.19097C11.0342 5.27461 11.064 5.37293 11.064 5.47352C11.064 5.54032 11.0509 5.60646 11.0253 5.66818C10.9997 5.72989 10.9623 5.78596 10.915 5.83319C10.8678 5.88042 10.8117 5.91788 10.75 5.94343C10.6883 5.96898 10.6221 5.98213 10.5553 5.98211Z" fill="#ADB3B9"/>
</svg>
