<svg width="39" height="39" viewBox="0 0 39 39" fill="none" xmlns="http://www.w3.org/2000/svg">
<path d="M32.3728 0.59964H14.8203V24.2791H38.519V6.72663C38.5191 5.9204 38.3599 5.12209 38.0508 4.37747C37.7417 3.63285 37.2887 2.95656 36.7177 2.38737C36.1467 1.81817 35.469 1.36726 34.7234 1.06049C33.9778 0.753713 33.179 0.597104 32.3728 0.59964Z" fill="#142533"/>
<path d="M9.35117 0.599609H6.32621C4.70123 0.599609 3.14281 1.24513 1.99377 2.39416C0.844739 3.5432 0.199219 5.10162 0.199219 6.7266L0.199219 9.75156H9.35117V0.599609Z" fill="#142533"/>
<path d="M0.199219 15.2227H9.35117V24.3746H0.199219V15.2227Z" fill="#142533"/>
<path d="M29.4453 38.9225H32.4703C33.2765 38.9225 34.0748 38.7634 34.8194 38.4543C35.564 38.1452 36.2403 37.6922 36.8095 37.1212C37.3787 36.5502 37.8296 35.8725 38.1364 35.1269C38.4432 34.3813 38.5998 33.5825 38.5973 32.7763V29.8477H29.4453V38.9225Z" fill="#142533"/>
<path d="M14.8203 29.8477H23.9723V38.9996H14.8203V29.8477Z" fill="#142533"/>
<path d="M0.199219 29.8477V32.8726C0.199219 34.4976 0.844739 36.056 1.99377 37.2051C3.14281 38.3541 4.70123 38.9996 6.32621 38.9996H9.35117V29.8477H0.199219Z" fill="#142533"/>
</svg>
