<svg width="16" height="16" viewBox="0 0 16 16" fill="none" xmlns="http://www.w3.org/2000/svg">
<path d="M14.399 14.4004V9.71244C14.399 7.40844 13.903 5.64844 11.215 5.64844C9.91895 5.64844 9.05495 6.35244 8.70295 7.02444H8.67095V5.85644H6.12695V14.4004H8.78295V10.1604C8.78295 9.04044 8.99095 7.96844 10.367 7.96844C11.727 7.96844 11.743 9.23244 11.743 10.2244V14.3844H14.399V14.4004Z" fill="#9AA2A9"/>
<path d="M1.80664 5.85645H4.46264V14.4004H1.80664V5.85645Z" fill="#9AA2A9"/>
<path d="M3.13561 1.60059C2.28761 1.60059 1.59961 2.28859 1.59961 3.13659C1.59961 3.98459 2.28761 4.68859 3.13561 4.68859C3.98361 4.68859 4.67161 3.98459 4.67161 3.13659C4.67161 2.28859 3.98361 1.60059 3.13561 1.60059Z" fill="#9AA2A9"/>
</svg>
