<svg width="508" height="173" viewBox="0 0 508 173" fill="none" xmlns="http://www.w3.org/2000/svg">
<path d="M192.008 67.768C187.528 67.768 183.475 66.7013 179.848 64.568C176.221 62.4347 173.363 59.4907 171.272 55.736C169.224 51.9813 168.2 47.7787 168.2 43.128C168.2 38.4773 169.224 34.2747 171.272 30.52C173.363 26.7653 176.2 23.8427 179.784 21.752C183.411 19.6187 187.485 18.552 192.008 18.552C195.293 18.552 198.301 19.128 201.032 20.28C203.763 21.3893 206.067 22.904 207.944 24.824C209.864 26.7013 211.251 28.792 212.104 31.096L204.296 34.744C203.357 32.2693 201.8 30.2853 199.624 28.792C197.448 27.256 194.909 26.488 192.008 26.488C189.064 26.488 186.44 27.192 184.136 28.6C181.832 29.9653 180.04 31.9067 178.76 34.424C177.523 36.9413 176.904 39.8427 176.904 43.128C176.904 46.4133 177.523 49.336 178.76 51.896C180.04 54.4133 181.832 56.376 184.136 57.784C186.44 59.1493 189.064 59.832 192.008 59.832C194.909 59.832 197.448 59.0853 199.624 57.592C201.8 56.056 203.357 54.0507 204.296 51.576L212.104 55.224C211.251 57.528 209.864 59.64 207.944 61.56C206.067 63.4373 203.763 64.952 201.032 66.104C198.301 67.2133 195.293 67.768 192.008 67.768ZM234.226 67.768C230.855 67.768 227.762 66.9787 224.946 65.4C222.13 63.8213 219.89 61.6453 218.226 58.872C216.604 56.0987 215.794 53.0053 215.794 49.592C215.794 46.1787 216.604 43.0853 218.226 40.312C219.847 37.5387 222.066 35.3627 224.882 33.784C227.698 32.2053 230.812 31.416 234.226 31.416C237.596 31.416 240.668 32.2053 243.442 33.784C246.258 35.3627 248.476 37.5387 250.098 40.312C251.762 43.0853 252.594 46.1787 252.594 49.592C252.594 53.048 251.762 56.1627 250.098 58.936C248.476 61.7093 246.258 63.8853 243.442 65.464C240.626 67 237.554 67.768 234.226 67.768ZM224.498 49.592C224.498 52.6213 225.394 55.1387 227.186 57.144C229.02 59.1067 231.367 60.088 234.226 60.088C236.06 60.088 237.703 59.64 239.154 58.744C240.604 57.848 241.735 56.6107 242.546 55.032C243.399 53.4107 243.826 51.5973 243.826 49.592C243.826 47.6293 243.399 45.8587 242.546 44.28C241.735 42.6587 240.604 41.4 239.154 40.504C237.703 39.5653 236.06 39.096 234.226 39.096C232.348 39.096 230.663 39.5653 229.17 40.504C227.719 41.4 226.567 42.6373 225.714 44.216C224.903 45.7947 224.498 47.5867 224.498 49.592ZM254.487 32.184H263.639L271.895 54.904L280.151 32.184H289.303L275.607 67H268.183L254.487 32.184ZM309.184 67.768C305.685 67.768 302.57 66.9573 299.84 65.336C297.152 63.7147 295.04 61.5173 293.504 58.744C292.01 55.9707 291.264 52.8987 291.264 49.528C291.264 46.1147 292.01 43.0427 293.504 40.312C295.04 37.5387 297.109 35.3627 299.712 33.784C302.357 32.2053 305.301 31.416 308.544 31.416C312.042 31.416 315.072 32.184 317.632 33.72C320.192 35.2133 322.133 37.2613 323.456 39.864C324.821 42.4667 325.504 45.3253 325.504 48.44C325.504 49.8907 325.354 51.064 325.056 51.96H299.968C300.224 54.52 301.205 56.568 302.912 58.104C304.618 59.64 306.73 60.408 309.248 60.408C311.125 60.408 312.725 60.024 314.048 59.256C315.413 58.4453 316.501 57.336 317.312 55.928L324.096 59.256C323.029 61.816 321.152 63.8853 318.464 65.464C315.776 67 312.682 67.768 309.184 67.768ZM316.544 45.56C316.33 43.4267 315.498 41.6987 314.048 40.376C312.597 39.0107 310.762 38.328 308.544 38.328C306.41 38.328 304.597 38.968 303.104 40.248C301.61 41.4853 300.629 43.256 300.16 45.56H316.544ZM331.219 32.184H339.091V37.048C339.944 35.1707 341.16 33.8267 342.739 33.016C344.318 32.2053 346.238 31.8 348.499 31.8H350.547V39.224H347.539C345.15 39.224 343.23 39.9707 341.779 41.464C340.328 42.9573 339.603 45.0053 339.603 47.608V67H331.219V32.184ZM192.008 128.768C187.528 128.768 183.475 127.701 179.848 125.568C176.221 123.435 173.363 120.491 171.272 116.736C169.224 112.981 168.2 108.779 168.2 104.128C168.2 99.4773 169.224 95.2747 171.272 91.52C173.363 87.7653 176.2 84.8427 179.784 82.752C183.411 80.6187 187.485 79.552 192.008 79.552C195.293 79.552 198.301 80.128 201.032 81.28C203.763 82.3893 206.067 83.904 207.944 85.824C209.864 87.7013 211.251 89.792 212.104 92.096L204.296 95.744C203.357 93.2693 201.8 91.2853 199.624 89.792C197.448 88.256 194.909 87.488 192.008 87.488C189.064 87.488 186.44 88.192 184.136 89.6C181.832 90.9653 180.04 92.9067 178.76 95.424C177.523 97.9413 176.904 100.843 176.904 104.128C176.904 107.413 177.523 110.336 178.76 112.896C180.04 115.413 181.832 117.376 184.136 118.784C186.44 120.149 189.064 120.832 192.008 120.832C194.909 120.832 197.448 120.085 199.624 118.592C201.8 117.056 203.357 115.051 204.296 112.576L212.104 116.224C211.251 118.528 209.864 120.64 207.944 122.56C206.067 124.437 203.763 125.952 201.032 127.104C198.301 128.213 195.293 128.768 192.008 128.768ZM234.851 128.768C231.48 128.768 228.387 127.979 225.571 126.4C222.755 124.821 220.515 122.645 218.851 119.872C217.229 117.099 216.419 114.005 216.419 110.592C216.419 107.179 217.229 104.085 218.851 101.312C220.472 98.5387 222.691 96.3627 225.507 94.784C228.323 93.2053 231.437 92.416 234.851 92.416C238.221 92.416 241.293 93.2053 244.067 94.784C246.883 96.3627 249.101 98.5387 250.723 101.312C252.387 104.085 253.219 107.179 253.219 110.592C253.219 114.048 252.387 117.163 250.723 119.936C249.101 122.709 246.883 124.885 244.067 126.464C241.251 128 238.179 128.768 234.851 128.768ZM225.123 110.592C225.123 113.621 226.019 116.139 227.811 118.144C229.645 120.107 231.992 121.088 234.851 121.088C236.685 121.088 238.328 120.64 239.779 119.744C241.229 118.848 242.36 117.611 243.171 116.032C244.024 114.411 244.451 112.597 244.451 110.592C244.451 108.629 244.024 106.859 243.171 105.28C242.36 103.659 241.229 102.4 239.779 101.504C238.328 100.565 236.685 100.096 234.851 100.096C232.973 100.096 231.288 100.565 229.795 101.504C228.344 102.4 227.192 103.637 226.339 105.216C225.528 106.795 225.123 108.587 225.123 110.592ZM258.937 93.184H266.809V97.536C267.705 95.872 268.985 94.6133 270.649 93.76C272.355 92.864 274.318 92.416 276.537 92.416C278.841 92.416 280.953 92.928 282.873 93.952C284.793 94.9333 286.265 96.2987 287.289 98.048C288.441 96.1707 289.934 94.7627 291.769 93.824C293.646 92.8853 295.758 92.416 298.105 92.416C300.537 92.416 302.734 92.9707 304.697 94.08C306.659 95.1893 308.195 96.7467 309.305 98.752C310.414 100.757 310.969 103.04 310.969 105.6V128H302.585V107.584C302.585 105.28 301.966 103.467 300.729 102.144C299.534 100.779 297.913 100.096 295.865 100.096C293.859 100.096 292.238 100.779 291.001 102.144C289.763 103.509 289.145 105.323 289.145 107.584V128H280.761V107.584C280.761 105.28 280.142 103.467 278.905 102.144C277.71 100.779 276.089 100.096 274.041 100.096C272.035 100.096 270.414 100.779 269.177 102.144C267.939 103.509 267.321 105.323 267.321 107.584V128H258.937V93.184ZM317.422 93.184H325.294V97.28C326.574 95.744 328.152 94.5493 330.03 93.696C331.95 92.8427 334.104 92.416 336.494 92.416C339.736 92.416 342.702 93.2267 345.39 94.848C348.078 96.4267 350.19 98.6027 351.726 101.376C353.262 104.149 354.03 107.221 354.03 110.592C354.03 113.963 353.262 117.035 351.726 119.808C350.19 122.581 348.078 124.779 345.39 126.4C342.744 127.979 339.758 128.768 336.43 128.768C334.296 128.768 332.312 128.427 330.478 127.744C328.643 127.019 327.086 125.995 325.806 124.672V140.8H317.422V93.184ZM325.806 110.592C325.806 112.597 326.211 114.411 327.022 116.032C327.875 117.611 329.027 118.848 330.478 119.744C331.971 120.64 333.635 121.088 335.47 121.088C338.328 121.088 340.675 120.107 342.51 118.144C344.387 116.139 345.326 113.621 345.326 110.592C345.326 108.629 344.899 106.859 344.046 105.28C343.192 103.659 342.019 102.4 340.526 101.504C339.032 100.565 337.347 100.096 335.47 100.096C333.635 100.096 331.971 100.544 330.478 101.44C329.027 102.336 327.875 103.595 327.022 105.216C326.211 106.795 325.806 108.587 325.806 110.592ZM370.342 128.768C366.672 128.768 363.75 127.872 361.574 126.08C359.44 124.288 358.374 121.856 358.374 118.784C358.374 115.84 359.376 113.408 361.382 111.488C363.387 109.568 366.395 108.288 370.406 107.648L380.774 105.984V104.832C380.774 103.296 380.176 102.037 378.982 101.056C377.83 100.075 376.294 99.584 374.374 99.584C372.582 99.584 370.982 100.075 369.574 101.056C368.208 101.995 367.206 103.253 366.566 104.832L359.718 101.504C360.742 98.7733 362.619 96.576 365.35 94.912C368.08 93.248 371.195 92.416 374.694 92.416C377.51 92.416 380.006 92.9493 382.182 94.016C384.4 95.04 386.107 96.512 387.302 98.432C388.539 100.309 389.158 102.443 389.158 104.832V128H381.222V124.288C378.491 127.275 374.864 128.768 370.342 128.768ZM367.078 118.464C367.078 119.659 367.526 120.619 368.422 121.344C369.318 122.027 370.47 122.368 371.878 122.368C374.48 122.368 376.614 121.557 378.278 119.936C379.942 118.272 380.774 116.224 380.774 113.792V112.384L372.006 113.856C370.342 114.197 369.104 114.752 368.294 115.52C367.483 116.245 367.078 117.227 367.078 118.464ZM396.267 93.184H404.139V98.048C404.992 96.1707 406.208 94.8267 407.787 94.016C409.365 93.2053 411.285 92.8 413.547 92.8H415.595V100.224H412.587C410.197 100.224 408.277 100.971 406.827 102.464C405.376 103.957 404.651 106.005 404.651 108.608V128H396.267V93.184ZM436.076 128.768C432.577 128.768 429.463 127.957 426.732 126.336C424.044 124.715 421.932 122.517 420.396 119.744C418.903 116.971 418.156 113.899 418.156 110.528C418.156 107.115 418.903 104.043 420.396 101.312C421.932 98.5387 424.001 96.3627 426.604 94.784C429.249 93.2053 432.193 92.416 435.436 92.416C438.935 92.416 441.964 93.184 444.524 94.72C447.084 96.2133 449.025 98.2613 450.348 100.864C451.713 103.467 452.396 106.325 452.396 109.44C452.396 110.891 452.247 112.064 451.948 112.96H426.86C427.116 115.52 428.097 117.568 429.804 119.104C431.511 120.64 433.623 121.408 436.14 121.408C438.017 121.408 439.617 121.024 440.94 120.256C442.305 119.445 443.393 118.336 444.204 116.928L450.988 120.256C449.921 122.816 448.044 124.885 445.356 126.464C442.668 128 439.575 128.768 436.076 128.768ZM443.436 106.56C443.223 104.427 442.391 102.699 440.94 101.376C439.489 100.011 437.655 99.328 435.436 99.328C433.303 99.328 431.489 99.968 429.996 101.248C428.503 102.485 427.521 104.256 427.052 106.56H443.436ZM474.303 128.768C470.975 128.768 467.967 127.979 465.279 126.4C462.634 124.779 460.543 122.581 459.007 119.808C457.471 117.035 456.703 113.963 456.703 110.592C456.703 107.221 457.471 104.149 459.007 101.376C460.543 98.6027 462.655 96.4267 465.343 94.848C468.031 93.2267 470.997 92.416 474.239 92.416C476.458 92.416 478.485 92.8 480.319 93.568C482.154 94.2933 483.69 95.3387 484.927 96.704V79.552H493.311V128H485.375V124.16C484.095 125.653 482.495 126.805 480.575 127.616C478.655 128.384 476.565 128.768 474.303 128.768ZM465.407 110.592C465.407 112.597 465.813 114.411 466.623 116.032C467.477 117.611 468.65 118.848 470.143 119.744C471.637 120.64 473.322 121.088 475.199 121.088C477.077 121.088 478.741 120.64 480.191 119.744C481.685 118.848 482.837 117.611 483.647 116.032C484.501 114.411 484.927 112.597 484.927 110.592C484.927 108.587 484.501 106.795 483.647 105.216C482.837 103.595 481.685 102.336 480.191 101.44C478.698 100.544 477.034 100.096 475.199 100.096C473.322 100.096 471.637 100.565 470.143 101.504C468.65 102.4 467.477 103.659 466.623 105.28C465.813 106.859 465.407 108.629 465.407 110.592Z" fill="url(#paint0_linear)"/>
<g filter="url(#filter0_i)">
<path d="M109.995 102.676L82.0892 121.053C79.9853 122.443 77.286 122.443 75.1821 121.053L47.2759 102.676C45.4895 101.525 44.4574 99.5399 44.4574 97.4362V50.1226C44.4177 46.6297 47.2362 43.8115 50.7294 43.8115H106.542C110.035 43.8115 112.854 46.6297 112.854 50.1226V97.4362C112.814 99.5399 111.782 101.525 109.995 102.676Z" stroke="url(#paint1_linear)" stroke-width="15.1123" stroke-miterlimit="10"/>
</g>
<path d="M109.671 66.3139C121.536 66.3139 131.155 56.6954 131.155 44.8303C131.155 32.9652 121.536 23.3467 109.671 23.3467C97.806 23.3467 88.1875 32.9652 88.1875 44.8303C88.1875 56.6954 97.806 66.3139 109.671 66.3139Z" fill="white"/>
<path d="M106.984 136.89L136.492 117.455C137.739 116.624 138.466 115.238 138.466 113.749V98.2634C138.466 95.8384 136.492 93.8291 134.033 93.8291C131.609 93.8291 129.6 95.8037 129.6 98.2634V109.003C129.6 110.458 128.872 111.843 127.66 112.675L117.513 119.534" stroke="#154B7E" stroke-width="3.09612" stroke-miterlimit="10"/>
<path d="M84.7271 29.419C86.0261 29.419 87.0791 28.3659 87.0791 27.0669C87.0791 25.7679 86.0261 24.7148 84.7271 24.7148C83.4281 24.7148 82.375 25.7679 82.375 27.0669C82.375 28.3659 83.4281 29.419 84.7271 29.419Z" fill="#154B7E"/>
<path d="M138.647 60.5401C139.946 60.5401 140.999 59.487 140.999 58.188C140.999 56.889 139.946 55.8359 138.647 55.8359C137.348 55.8359 136.295 56.889 136.295 58.188C136.295 59.487 137.348 60.5401 138.647 60.5401Z" fill="#154B7E"/>
<path d="M18.145 60.5401C19.444 60.5401 20.4971 59.487 20.4971 58.188C20.4971 56.889 19.444 55.8359 18.145 55.8359C16.846 55.8359 15.793 56.889 15.793 58.188C15.793 59.487 16.846 60.5401 18.145 60.5401Z" fill="#154B7E"/>
<path d="M138.647 70.3086C139.946 70.3086 140.999 69.2556 140.999 67.9566C140.999 66.6575 139.946 65.6045 138.647 65.6045C137.348 65.6045 136.295 66.6575 136.295 67.9566C136.295 69.2556 137.348 70.3086 138.647 70.3086Z" fill="#154B7E"/>
<path d="M18.145 70.3086C19.444 70.3086 20.4971 69.2556 20.4971 67.9566C20.4971 66.6575 19.444 65.6045 18.145 65.6045C16.846 65.6045 15.793 66.6575 15.793 67.9566C15.793 69.2556 16.846 70.3086 18.145 70.3086Z" fill="#154B7E"/>
<path d="M111.143 126.036C112.442 126.036 113.495 124.983 113.495 123.684C113.495 122.385 112.442 121.332 111.143 121.332C109.844 121.332 108.791 122.385 108.791 123.684C108.791 124.983 109.844 126.036 111.143 126.036Z" fill="#154B7E"/>
<path d="M117.659 121.692C118.958 121.692 120.011 120.639 120.011 119.34C120.011 118.041 118.958 116.988 117.659 116.988C116.36 116.988 115.307 118.041 115.307 119.34C115.307 120.639 116.36 121.692 117.659 121.692Z" fill="#154B7E"/>
<path d="M105.719 139.784C107.018 139.784 108.071 138.731 108.071 137.432C108.071 136.133 107.018 135.08 105.719 135.08C104.42 135.08 103.367 136.133 103.367 137.432C103.367 138.731 104.42 139.784 105.719 139.784Z" fill="#154B7E"/>
<path d="M98.8443 144.49C100.143 144.49 101.196 143.437 101.196 142.138C101.196 140.839 100.143 139.786 98.8443 139.786C97.5452 139.786 96.4922 140.839 96.4922 142.138C96.4922 143.437 97.5452 144.49 98.8443 144.49Z" fill="#154B7E"/>
<path d="M57.5903 144.49C58.8894 144.49 59.9424 143.437 59.9424 142.138C59.9424 140.839 58.8894 139.786 57.5903 139.786C56.2913 139.786 55.2383 140.839 55.2383 142.138C55.2383 143.437 56.2913 144.49 57.5903 144.49Z" fill="#154B7E"/>
<g filter="url(#filter1_i)">
<path d="M107.671 59.1742C114.488 59.1742 120.015 53.6474 120.015 46.8298C120.015 40.0121 114.488 34.4854 107.671 34.4854C100.853 34.4854 95.3262 40.0121 95.3262 46.8298C95.3262 53.6474 100.853 59.1742 107.671 59.1742Z" fill="#FFA800"/>
</g>
<path d="M49.4483 136.89L19.9409 117.455C18.6941 116.624 17.9668 115.238 17.9668 113.749V98.2634C17.9668 95.8384 19.9409 93.8291 22.3998 93.8291C24.8242 93.8291 26.8329 95.8037 26.8329 98.2634V109.003C26.8329 110.458 27.5602 111.843 28.7723 112.675L38.9198 119.534" stroke="#154B7E" stroke-width="3.09612" stroke-miterlimit="10"/>
<path d="M138.465 68.1068V81.7776C138.465 84.2126 136.492 86.2302 134.033 86.2302C131.609 86.2302 129.6 84.2474 129.6 81.7776V31.3383C129.6 28.9033 127.627 26.8857 125.168 26.8857H84.5488" stroke="#154B7E" stroke-width="3.09612" stroke-miterlimit="10"/>
<path d="M17.9668 57.2469V22.6477C17.9668 20.216 19.9464 18.2012 22.4122 18.2012H134.381C136.812 18.2012 138.827 20.1812 138.827 22.6477V57.2816" stroke="#154B7E" stroke-width="3.09612" stroke-miterlimit="10"/>
<path d="M71.8834 26.8857H31.2471C28.8262 26.8857 26.8203 28.8685 26.8203 31.3383V81.7776C26.8203 84.2126 24.849 86.2302 22.3936 86.2302C19.9727 86.2302 17.9668 84.2474 17.9668 81.7776V67.5154" stroke="#154B7E" stroke-width="3.09612" stroke-miterlimit="10"/>
<path d="M44.3809 123.139L75.7903 143.409C77.2448 144.366 79.1494 144.366 80.6385 143.409L112.048 123.139" stroke="#154B7E" stroke-width="3.09612" stroke-miterlimit="10"/>
<path d="M72.065 29.419C73.364 29.419 74.417 28.3659 74.417 27.0669C74.417 25.7679 73.364 24.7148 72.065 24.7148C70.7659 24.7148 69.7129 25.7679 69.7129 27.0669C69.7129 28.3659 70.7659 29.419 72.065 29.419Z" fill="#154B7E"/>
<path d="M45.6509 126.036C46.9499 126.036 48.003 124.983 48.003 123.684C48.003 122.385 46.9499 121.332 45.6509 121.332C44.3519 121.332 43.2988 122.385 43.2988 123.684C43.2988 124.983 44.3519 126.036 45.6509 126.036Z" fill="#154B7E"/>
<path d="M39.1372 121.692C40.4362 121.692 41.4893 120.639 41.4893 119.34C41.4893 118.041 40.4362 116.988 39.1372 116.988C37.8382 116.988 36.7852 118.041 36.7852 119.34C36.7852 120.639 37.8382 121.692 39.1372 121.692Z" fill="#154B7E"/>
<path d="M50.3521 139.784C51.6511 139.784 52.7041 138.731 52.7041 137.432C52.7041 136.133 51.6511 135.08 50.3521 135.08C49.0531 135.08 48 136.133 48 137.432C48 138.731 49.0531 139.784 50.3521 139.784Z" fill="#154B7E"/>
<path d="M57.0469 141.596L75.9396 153.888C77.4275 154.867 79.3653 154.867 80.8531 153.888L99.7459 141.596" stroke="#154B7E" stroke-width="3.09612" stroke-miterlimit="10"/>
<defs>
<filter id="filter0_i" x="36.9004" y="36.2559" width="88.5089" height="100.396" filterUnits="userSpaceOnUse" color-interpolation-filters="sRGB">
<feFlood flood-opacity="0" result="BackgroundImageFix"/>
<feBlend mode="normal" in="SourceGraphic" in2="BackgroundImageFix" result="shape"/>
<feColorMatrix in="SourceAlpha" type="matrix" values="0 0 0 0 0 0 0 0 0 0 0 0 0 0 0 0 0 0 127 0" result="hardAlpha"/>
<feOffset dx="5" dy="7"/>
<feGaussianBlur stdDeviation="7.5"/>
<feComposite in2="hardAlpha" operator="arithmetic" k2="-1" k3="1"/>
<feColorMatrix type="matrix" values="0 0 0 0 1 0 0 0 0 1 0 0 0 0 1 0 0 0 0.25 0"/>
<feBlend mode="normal" in2="shape" result="effect1_innerShadow"/>
</filter>
<filter id="filter1_i" x="95.3262" y="34.4854" width="26.8545" height="27.7208" filterUnits="userSpaceOnUse" color-interpolation-filters="sRGB">
<feFlood flood-opacity="0" result="BackgroundImageFix"/>
<feBlend mode="normal" in="SourceGraphic" in2="BackgroundImageFix" result="shape"/>
<feColorMatrix in="SourceAlpha" type="matrix" values="0 0 0 0 0 0 0 0 0 0 0 0 0 0 0 0 0 0 127 0" result="hardAlpha"/>
<feOffset dx="2.16569" dy="3.03196"/>
<feGaussianBlur stdDeviation="3.24853"/>
<feComposite in2="hardAlpha" operator="arithmetic" k2="-1" k3="1"/>
<feColorMatrix type="matrix" values="0 0 0 0 1 0 0 0 0 1 0 0 0 0 1 0 0 0 0.25 0"/>
<feBlend mode="normal" in2="shape" result="effect1_innerShadow"/>
</filter>
<linearGradient id="paint0_linear" x1="114.482" y1="-8.54185" x2="576.096" y2="83.1232" gradientUnits="userSpaceOnUse">
<stop stop-color="#227599"/>
<stop offset="1" stop-color="#42DDC1"/>
</linearGradient>
<linearGradient id="paint1_linear" x1="34.3834" y1="31.9138" x2="129.699" y2="37.7957" gradientUnits="userSpaceOnUse">
<stop stop-color="#227599"/>
<stop offset="1" stop-color="#42DDC1"/>
</linearGradient>
</defs>
</svg>
