<svg width="43" height="40" viewBox="0 0 43 40" fill="none" xmlns="http://www.w3.org/2000/svg">
<path d="M40.2607 0.599609L24.043 12.5996L27.0588 5.52762L40.2607 0.599609Z" fill="#E17726" stroke="#E17726" stroke-width="0.2" stroke-linecap="round" stroke-linejoin="round"/>
<path d="M2.85156 0.599609L18.9249 12.7116L16.0536 5.52761L2.85156 0.599609Z" fill="#E27625" stroke="#E27625" stroke-width="0.2" stroke-linecap="round" stroke-linejoin="round"/>
<path d="M34.4205 28.4238L30.1055 35.0158L39.3452 37.5599L41.9921 28.5679L34.4205 28.4238Z" fill="#E27625" stroke="#E27625" stroke-width="0.2" stroke-linecap="round" stroke-linejoin="round"/>
<path d="M1.13672 28.5679L3.76747 37.5599L12.9912 35.0158L8.69215 28.4238L1.13672 28.5679Z" fill="#E27625" stroke="#E27625" stroke-width="0.2" stroke-linecap="round" stroke-linejoin="round"/>
<path d="M12.4962 17.2883L9.92969 21.1603L19.0732 21.5763L18.7685 11.7363L12.4962 17.2883Z" fill="#E27625" stroke="#E27625" stroke-width="0.2" stroke-linecap="round" stroke-linejoin="round"/>
<path d="M30.6198 17.289L24.2515 11.625L24.043 21.577L33.1864 21.161L30.6198 17.289Z" fill="#E27625" stroke="#E27625" stroke-width="0.2" stroke-linecap="round" stroke-linejoin="round"/>
<path d="M12.9922 35.0168L18.5264 32.3448L13.7622 28.6328L12.9922 35.0168Z" fill="#E27625" stroke="#E27625" stroke-width="0.2" stroke-linecap="round" stroke-linejoin="round"/>
<path d="M24.5898 32.3448L30.108 35.0168L29.354 28.6328L24.5898 32.3448Z" fill="#E27625" stroke="#E27625" stroke-width="0.2" stroke-linecap="round" stroke-linejoin="round"/>
<path d="M30.108 35.0157L24.5898 32.3438L25.0389 35.9277L24.9908 37.4477L30.108 35.0157Z" fill="#D5BFB2" stroke="#D5BFB2" stroke-width="0.2" stroke-linecap="round" stroke-linejoin="round"/>
<path d="M12.9922 35.0157L18.1254 37.4477L18.0933 35.9277L18.5264 32.3438L12.9922 35.0157Z" fill="#D5BFB2" stroke="#D5BFB2" stroke-width="0.2" stroke-linecap="round" stroke-linejoin="round"/>
<path d="M18.2206 26.2636L13.6328 24.9197L16.8731 23.4316L18.2206 26.2636Z" fill="#233447" stroke="#233447" stroke-width="0.2" stroke-linecap="round" stroke-linejoin="round"/>
<path d="M24.8945 26.2636L26.2421 23.4316L29.4984 24.9197L24.8945 26.2636Z" fill="#233447" stroke="#233447" stroke-width="0.2" stroke-linecap="round" stroke-linejoin="round"/>
<path d="M12.9904 35.0158L13.7925 28.4238L8.69141 28.5679L12.9904 35.0158Z" fill="#CC6228" stroke="#CC6228" stroke-width="0.2" stroke-linecap="round" stroke-linejoin="round"/>
<path d="M29.3203 28.4238L30.1064 35.0158L34.4214 28.5679L29.3203 28.4238Z" fill="#CC6228" stroke="#CC6228" stroke-width="0.2" stroke-linecap="round" stroke-linejoin="round"/>
<path d="M33.1864 21.1602L24.043 21.5762L24.8931 26.2643L26.2406 23.4322L29.497 24.9202L33.1864 21.1602Z" fill="#CC6228" stroke="#CC6228" stroke-width="0.2" stroke-linecap="round" stroke-linejoin="round"/>
<path d="M13.6352 24.9202L16.8755 23.4322L18.223 26.2643L19.0732 21.5762L9.92969 21.1602L13.6352 24.9202Z" fill="#CC6228" stroke="#CC6228" stroke-width="0.2" stroke-linecap="round" stroke-linejoin="round"/>
<path d="M9.92969 21.1602L13.7636 28.6322L13.6352 24.9202L9.92969 21.1602Z" fill="#E27525" stroke="#E27525" stroke-width="0.2" stroke-linecap="round" stroke-linejoin="round"/>
<path d="M29.4959 24.9202L29.3516 28.6322L33.1854 21.1602L29.4959 24.9202Z" fill="#E27525" stroke="#E27525" stroke-width="0.2" stroke-linecap="round" stroke-linejoin="round"/>
<path d="M19.0729 21.5762L18.2227 26.2643L19.2974 31.8002L19.5381 24.5042L19.0729 21.5762Z" fill="#E27525" stroke="#E27525" stroke-width="0.2" stroke-linecap="round" stroke-linejoin="round"/>
<path d="M24.043 21.5762L23.5938 24.4883L23.8184 31.8002L24.8931 26.2643L24.043 21.5762Z" fill="#E27525" stroke="#E27525" stroke-width="0.2" stroke-linecap="round" stroke-linejoin="round"/>
<path d="M24.8951 26.264L23.8203 31.7999L24.5903 32.3439L29.3546 28.6319L29.499 24.9199L24.8951 26.264Z" fill="#F5841F" stroke="#F5841F" stroke-width="0.2" stroke-linecap="round" stroke-linejoin="round"/>
<path d="M13.6328 24.9199L13.7612 28.6319L18.5254 32.3439L19.2954 31.7999L18.2206 26.264L13.6328 24.9199Z" fill="#F5841F" stroke="#F5841F" stroke-width="0.2" stroke-linecap="round" stroke-linejoin="round"/>
<path d="M24.9911 37.4477L25.0391 35.9276L24.6221 35.5756H18.4944L18.0933 35.9276L18.1254 37.4477L12.9922 35.0156L14.7888 36.4876L18.4302 38.9997H24.6701L28.3276 36.4876L30.1081 35.0156L24.9911 37.4477Z" fill="#C0AC9D" stroke="#C0AC9D" stroke-width="0.2" stroke-linecap="round" stroke-linejoin="round"/>
<path d="M24.5865 32.3447L23.8165 31.8008H19.2929L18.523 32.3447L18.0898 35.9288L18.4909 35.5767H24.6186L25.0357 35.9288L24.5865 32.3447Z" fill="#161616" stroke="#161616" stroke-width="0.2" stroke-linecap="round" stroke-linejoin="round"/>
<path d="M40.9518 13.3836L42.3154 6.75961L40.2621 0.599609L24.5898 12.1997L30.6213 17.2876L39.1392 19.7676L41.016 17.5757L40.198 16.9836L41.4972 15.7997L40.5027 15.0316L41.8021 14.0396L40.9518 13.3836Z" fill="#763E1A" stroke="#763E1A" stroke-width="0.2" stroke-linecap="round" stroke-linejoin="round"/>
<path d="M0.800781 6.75961L2.18033 13.3836L1.29807 14.0396L2.61344 15.0316L1.61889 15.7997L2.91822 16.9836L2.10012 17.5757L3.97695 19.7676L12.4949 17.2876L18.5263 12.1997L2.85407 0.599609L0.800781 6.75961Z" fill="#763E1A" stroke="#763E1A" stroke-width="0.2" stroke-linecap="round" stroke-linejoin="round"/>
<path d="M39.1367 19.769L30.6188 17.2891L33.1854 21.1611L29.3516 28.633L34.4206 28.5691H41.992L39.1367 19.769Z" fill="#F5841F" stroke="#F5841F" stroke-width="0.2" stroke-linecap="round" stroke-linejoin="round"/>
<path d="M12.4939 17.2891L3.97602 19.769L1.13672 28.5691H8.69215L13.7611 28.633L9.92733 21.1611L12.4939 17.2891Z" fill="#F5841F" stroke="#F5841F" stroke-width="0.2" stroke-linecap="round" stroke-linejoin="round"/>
<path d="M24.0432 21.5754L24.5886 12.1993L27.059 5.52734H16.0547L18.525 12.1993L19.0704 21.5754L19.279 24.5193L19.295 31.7994H23.8186L23.8347 24.5193L24.0432 21.5754Z" fill="#F5841F" stroke="#F5841F" stroke-width="0.2" stroke-linecap="round" stroke-linejoin="round"/>
</svg>
