<svg width="16" height="16" viewBox="0 0 16 16" fill="none" xmlns="http://www.w3.org/2000/svg">
<g id="Iconly/Light/2 User">
<g id="2 User">
<path id="Stroke 1" fill-rule="evenodd" clip-rule="evenodd" d="M6.39336 10.1377C8.8527 10.1377 10.9547 10.5104 10.9547 11.999C10.9547 13.4877 8.8667 13.871 6.39336 13.871C3.93336 13.871 1.83203 13.5017 1.83203 12.0124C1.83203 10.523 3.91936 10.1377 6.39336 10.1377Z" stroke="#9AA2A9" stroke-width="1.5" stroke-linecap="round" stroke-linejoin="round"/>
<path id="Stroke 3" fill-rule="evenodd" clip-rule="evenodd" d="M6.39275 8.01268C4.77808 8.01268 3.46875 6.70402 3.46875 5.08935C3.46875 3.47468 4.77808 2.16602 6.39275 2.16602C8.00675 2.16602 9.31608 3.47468 9.31608 5.08935C9.32208 6.69802 8.02208 8.00668 6.41342 8.01268H6.39275Z" stroke="#9AA2A9" stroke-width="1.5" stroke-linecap="round" stroke-linejoin="round"/>
<path id="Stroke 5" d="M10.9883 7.25354C12.0556 7.10354 12.8776 6.18754 12.8796 5.07887C12.8796 3.9862 12.0829 3.07954 11.0383 2.9082" stroke="#9AA2A9" stroke-width="1.5" stroke-linecap="round" stroke-linejoin="round"/>
<path id="Stroke 7" d="M12.3965 9.82129C13.4305 9.97529 14.1525 10.338 14.1525 11.0846C14.1525 11.5986 13.8125 11.932 13.2632 12.1406" stroke="#9AA2A9" stroke-width="1.5" stroke-linecap="round" stroke-linejoin="round"/>
</g>
</g>
</svg>
