<svg width="32" height="32" viewBox="0 0 32 32" fill="none" xmlns="http://www.w3.org/2000/svg">
<g clip-path="url(#clip0)">
<path d="M18.6364 12.7237L20.515 10.9366L17.8976 10.5649C17.5947 10.5219 17.331 10.3333 17.1928 10.0596L16.0017 7.70312L14.8106 10.0596C14.6723 10.3333 14.4087 10.5219 14.1057 10.5649L11.4883 10.9366L13.3669 12.7237C13.594 12.9407 13.6983 13.2565 13.6443 13.565L13.1957 16.1164L15.5732 14.8961C15.8424 14.7588 16.1609 14.7588 16.43 14.8961L18.8075 16.1164L18.3589 13.565C18.305 13.2564 18.4094 12.9407 18.6364 12.7237Z" fill="#175186"/>
<path d="M16.0014 0C9.2817 0 3.81445 5.46725 3.81445 12.1869C3.81445 18.9066 9.2817 24.3739 16.0014 24.3739C22.7211 24.3739 28.1883 18.9066 28.1883 12.1869C28.1883 5.46725 22.7211 0 16.0014 0ZM23.21 10.9593L20.2932 13.735L20.9807 17.6496C21.1136 18.4095 20.3161 19.0024 19.6285 18.6457L16.0014 16.7836L12.3743 18.6458C11.6886 18.9979 10.8882 18.4152 11.0221 17.6497L11.7096 13.7351L8.79289 10.9593C8.22595 10.4183 8.53464 9.461 9.30739 9.35169L13.3575 8.77675L15.1647 5.20181C15.4833 4.57012 16.5196 4.57012 16.8382 5.20181L18.6454 8.77675L22.6955 9.35169C23.4681 9.46094 23.7768 10.4183 23.21 10.9593Z" fill="#175186"/>
<path d="M16.0016 26.2496C13.6318 26.2496 11.4003 25.6547 9.43945 24.6152V31.0619C9.43945 31.8119 10.2791 32.2564 10.8969 31.8418L16.0016 28.439L21.1064 31.8419C21.7271 32.2557 22.5638 31.811 22.5638 31.062V24.6152C20.603 25.6548 18.3715 26.2496 16.0016 26.2496Z" fill="#175186"/>
</g>
<defs>
<clipPath id="clip0">
<rect width="32" height="32" fill="white"/>
</clipPath>
</defs>
</svg>
