<svg width="115" height="87" viewBox="0 0 115 87" fill="none" xmlns="http://www.w3.org/2000/svg">
<path d="M92.064 38.6777V73.7238C92.064 73.7664 92.0607 73.8089 92.0607 73.8547C92.0607 73.8744 92.0574 73.894 92.0574 73.9169C92.0574 73.9366 92.0542 73.9562 92.0542 73.9758C92.0542 73.9824 92.0509 73.9922 92.0509 73.9987C92.0476 74.0118 92.0476 74.0249 92.0443 74.038C92.0411 74.0675 92.0378 74.1002 92.0312 74.1296C92.028 74.1591 92.0214 74.1885 92.0149 74.218C92.0116 74.2311 92.0083 74.2475 92.0051 74.2605C92.0051 74.2704 92.0018 74.2834 91.9985 74.2933C91.9953 74.3064 91.992 74.3227 91.9887 74.3358C91.9822 74.362 91.9756 74.3882 91.9691 74.4143C91.9691 74.4176 91.9658 74.4242 91.9658 74.4274C91.9527 74.4733 91.9396 74.5158 91.9233 74.5583C91.9233 74.5616 91.9233 74.5616 91.92 74.5649C91.9134 74.5878 91.9036 74.6107 91.8971 74.6303C91.8905 74.65 91.8807 74.6696 91.8742 74.686C91.8709 74.6925 91.8676 74.6991 91.8676 74.7023C91.8447 74.758 91.8185 74.8136 91.7891 74.866C91.7825 74.8823 91.7694 74.902 91.7596 74.9216C91.7498 74.9412 91.74 74.9576 91.7302 74.974C91.7204 74.9903 91.7105 75.01 91.7007 75.0263C91.6811 75.0623 91.6582 75.0951 91.6353 75.1278C91.6222 75.1507 91.6058 75.1671 91.596 75.19C91.56 75.2358 91.5305 75.2783 91.4913 75.3209C91.4651 75.3536 91.4389 75.383 91.4127 75.4125C91.3865 75.4419 91.3571 75.4714 91.3309 75.5009C91.3178 75.5139 91.3047 75.527 91.2916 75.5401C91.2785 75.5532 91.2687 75.563 91.2524 75.5761C91.2393 75.5892 91.2229 75.6056 91.2065 75.6187C91.2033 75.6219 91.1967 75.6252 91.1935 75.6318C91.1542 75.6678 91.1149 75.6972 91.0724 75.7299C91.0691 75.7332 91.0658 75.7365 91.0593 75.7397C91.0265 75.7627 90.9938 75.7856 90.9611 75.8085C90.948 75.815 90.9382 75.8248 90.9284 75.8314C90.9087 75.8445 90.8924 75.8543 90.8727 75.8674C90.8596 75.8772 90.8433 75.887 90.8269 75.8936C90.8105 75.9034 90.7942 75.9132 90.7778 75.923C90.6633 75.9885 90.5454 76.0441 90.4211 76.0866C90.4145 76.0899 90.408 76.0932 90.3982 76.0932C90.3916 76.0965 90.3785 76.0997 90.372 76.0997C90.3425 76.1096 90.3164 76.1194 90.2836 76.1292C90.2313 76.1456 90.1822 76.1586 90.1298 76.1685C90.1036 76.175 90.0775 76.1816 90.0513 76.1881C90.0349 76.1914 90.0153 76.1946 89.9989 76.1946C89.9793 76.1979 89.9564 76.2012 89.9367 76.2077C89.9335 76.2077 89.9302 76.2077 89.9302 76.211C89.9138 76.2143 89.8975 76.2143 89.8778 76.2175C89.8713 76.2175 89.8615 76.2208 89.8549 76.2208C89.8418 76.2241 89.8255 76.2241 89.8091 76.2274C89.8026 76.2274 89.7927 76.2306 89.7829 76.2306C89.7535 76.2339 89.7207 76.2339 89.688 76.2372C89.6422 76.2405 89.5996 76.2405 89.5538 76.2405H27.641C27.5952 76.2405 27.5527 76.2372 27.5068 76.2372C27.4774 76.2339 27.4447 76.2339 27.4119 76.2306C27.3759 76.2274 27.3432 76.2241 27.3072 76.2175C27.2876 76.2143 27.2679 76.2143 27.2483 76.211C27.1992 76.2045 27.1501 76.1946 27.1043 76.1848C27.0912 76.1815 27.0781 76.1783 27.065 76.175C27.0127 76.1619 26.9636 76.1521 26.9112 76.1357C26.8817 76.1259 26.8523 76.1161 26.8228 76.1063C26.6854 76.0605 26.5545 76.0016 26.4301 75.9328C26.4007 75.9132 26.3679 75.8968 26.3385 75.8772C26.3025 75.8576 26.2698 75.8347 26.237 75.8118C26.0374 75.6743 25.8574 75.5139 25.7036 75.3274C25.6676 75.2849 25.6316 75.239 25.5989 75.1932C25.4876 75.0394 25.3927 74.8725 25.3207 74.6925C25.3043 74.6532 25.2879 74.6074 25.2716 74.5649C25.2552 74.5224 25.2421 74.4765 25.229 74.434C25.2159 74.3882 25.2061 74.3456 25.193 74.2998C25.1832 74.2573 25.1734 74.218 25.1669 74.1755C25.1636 74.1689 25.1636 74.1624 25.1636 74.1558C25.157 74.1165 25.1505 74.074 25.1472 74.0315C25.144 74.0282 25.1439 74.0249 25.1439 74.0216C25.1407 73.9889 25.1374 73.9595 25.1374 73.9267C25.1309 73.8646 25.1309 73.8024 25.1309 73.7369V38.6777C25.1309 38.3766 25.1832 38.0886 25.2814 37.8203C25.4352 37.3948 25.7003 37.025 26.0439 36.7436C26.0472 36.7403 26.0538 36.7371 26.0603 36.7305L26.1912 36.6323C26.6003 36.3411 27.0977 36.1709 27.6377 36.1709H89.5538C89.616 36.1709 89.6749 36.1742 89.7338 36.1774C89.7436 36.1742 89.7567 36.1774 89.7665 36.1807C89.8222 36.184 89.8811 36.1905 89.9367 36.2003C89.9498 36.2036 89.9629 36.2036 89.976 36.2069C90.0251 36.2134 90.0742 36.2265 90.12 36.2364C90.1331 36.2396 90.1429 36.2396 90.156 36.2429C90.2149 36.256 90.2705 36.2723 90.3295 36.292C90.3818 36.3083 90.4375 36.328 90.4865 36.3476C90.5585 36.3771 90.6305 36.4098 90.6993 36.4458C90.7385 36.4654 90.7778 36.4851 90.8138 36.508C90.8793 36.544 90.9414 36.5865 91.0004 36.6291C91.0036 36.6258 91.0036 36.6291 91.0036 36.6291L91.1345 36.7272C91.1411 36.7305 91.1476 36.7338 91.1509 36.7403C91.1869 36.7665 91.2164 36.796 91.2458 36.8221C91.2687 36.8418 91.2916 36.8647 91.3145 36.8876C91.3833 36.953 91.4487 37.025 91.5109 37.1036C91.5404 37.1396 91.5665 37.1723 91.5894 37.2083C91.6942 37.3523 91.7858 37.5094 91.8545 37.6763C91.8742 37.7221 91.8938 37.7679 91.9102 37.8137C91.9102 37.817 91.9134 37.817 91.9134 37.8203C91.9429 37.8955 91.9658 37.9741 91.9854 38.0494C91.9953 38.0886 92.0051 38.1246 92.0116 38.1639C92.0182 38.1934 92.0247 38.2228 92.028 38.2523C92.0345 38.2817 92.0378 38.3144 92.0411 38.3439C92.0476 38.3799 92.0509 38.4159 92.0542 38.4519C92.0574 38.4813 92.0607 38.5141 92.0607 38.5468C92.064 38.5893 92.064 38.6352 92.064 38.6777Z" fill="#DFE5EA"/>
<path d="M91.9152 37.82H25.2832C25.437 37.3946 25.7021 37.0248 26.0457 36.7433C26.049 36.7401 26.0556 36.7368 26.0621 36.7302L26.193 36.6321L57.0643 13.2005C57.9709 12.51 59.2276 12.51 60.1374 13.2005L91.0054 36.6321C91.0087 36.6288 91.0087 36.6321 91.0087 36.6321L91.1396 36.7302C91.1462 36.7335 91.1527 36.7368 91.156 36.7433C91.192 36.7695 91.2214 36.799 91.2509 36.8251C91.2738 36.8448 91.2967 36.8677 91.3196 36.8906C91.3883 36.9561 91.4538 37.028 91.516 37.1066C91.5454 37.1426 91.5716 37.1753 91.5945 37.2113C91.6992 37.3553 91.7909 37.5124 91.8596 37.6793C91.8792 37.7251 91.8989 37.7709 91.9152 37.8167C91.9152 37.8167 91.9152 37.8167 91.9152 37.82Z" fill="#397B9B"/>
<path d="M87.2606 74.4056H29.1113V21.6479C29.1113 19.1705 31.1208 17.1611 33.5982 17.1611H82.7671C85.2446 17.1611 87.254 19.1705 87.254 21.6479V74.4056H87.2606Z" fill="white"/>
<path d="M79.5508 29.8257H36.8222C36.2233 29.8257 35.7324 29.3348 35.7324 28.7359V28.2744C35.7324 27.6755 36.2233 27.1846 36.8222 27.1846H79.5476C80.1465 27.1846 80.6374 27.6755 80.6374 28.2744V28.7359C80.6374 29.3381 80.1497 29.8257 79.5508 29.8257Z" fill="#E4ECF9"/>
<path d="M79.5508 35.4642H36.8222C36.2233 35.4642 35.7324 34.9733 35.7324 34.3744V33.913C35.7324 33.3141 36.2233 32.8232 36.8222 32.8232H79.5476C80.1465 32.8232 80.6374 33.3141 80.6374 33.913V34.3744C80.6374 34.9766 80.1497 35.4642 79.5508 35.4642Z" fill="#E4ECF9"/>
<path d="M79.5508 41.1019H36.8222C36.2233 41.1019 35.7324 40.611 35.7324 40.0121V39.5507C35.7324 38.9518 36.2233 38.4609 36.8222 38.4609H79.5476C80.1465 38.4609 80.6374 38.9518 80.6374 39.5507V40.0121C80.6374 40.611 80.1497 41.1019 79.5508 41.1019Z" fill="#E4ECF9"/>
<path d="M79.5508 46.7403H36.8222C36.2233 46.7403 35.7324 46.2494 35.7324 45.6506V45.1892C35.7324 44.5904 36.2233 44.0996 36.8222 44.0996H79.5476C80.1465 44.0996 80.6374 44.5904 80.6374 45.1892V45.6506C80.6374 46.2494 80.1497 46.7403 79.5508 46.7403Z" fill="#E4ECF9"/>
<path d="M79.5508 52.3802H36.8222C36.2233 52.3802 35.7324 51.8893 35.7324 51.2905V50.829C35.7324 50.2301 36.2233 49.7393 36.8222 49.7393H79.5476C80.1465 49.7393 80.6374 50.2301 80.6374 50.829V51.2905C80.6374 51.8893 80.1497 52.3802 79.5508 52.3802Z" fill="#E4ECF9"/>
<path d="M58.601 57.1384C58.5028 57.2464 58.3883 57.3445 58.2574 57.4231L27.7823 76.2274H27.6449C27.3896 76.2274 27.1475 76.1914 26.9184 76.1194C26.8856 76.1096 26.8529 76.0997 26.8235 76.0899C26.4242 75.9525 26.0675 75.7136 25.7893 75.4059C25.7631 75.3765 25.7369 75.347 25.7108 75.3143C25.6322 75.2227 25.5635 75.1245 25.5013 75.0198C25.4784 74.9838 25.462 74.9511 25.4391 74.9151C25.4195 74.8791 25.3999 74.8431 25.3835 74.8038C25.2264 74.4733 25.1348 74.1067 25.1348 73.7173V38.6777C25.1348 38.3766 25.1871 38.0886 25.2853 37.8203C25.4391 37.3948 25.7042 37.025 26.0478 36.7436C26.0511 36.7403 26.0577 36.7371 26.0642 36.7305L26.1951 36.6323C26.6042 36.3411 27.1016 36.1709 27.6416 36.1709H28.2143L30.8914 37.8203L55.5574 53.0411L56.4869 53.6138L58.2574 54.7068C58.3883 54.7886 58.5061 54.8868 58.601 54.9915V54.9948C59.1508 55.5937 59.1508 56.5395 58.601 57.1384Z" fill="#4C99BE"/>
<path d="M92.0646 38.6783V73.7242C92.0646 73.7667 92.0614 73.8092 92.0614 73.8551C92.0614 73.8747 92.0581 73.8943 92.0581 73.9172C92.0581 73.9369 92.0548 73.9565 92.0548 73.9761C92.0548 73.9827 92.0515 73.9925 92.0515 73.9991C92.0483 74.0121 92.0483 74.0252 92.045 74.0383C92.0417 74.0678 92.0384 74.1005 92.0319 74.13C92.0286 74.1594 92.0221 74.1889 92.0155 74.2183C92.0155 74.2216 92.0123 74.2281 92.0123 74.2314C92.009 74.238 92.009 74.251 92.0057 74.2609C92.0057 74.2707 92.0024 74.2838 91.9992 74.2936C91.9959 74.3067 91.9926 74.323 91.9894 74.3361C91.9828 74.3623 91.9763 74.3885 91.9697 74.4147C91.9697 74.4179 91.9664 74.4245 91.9664 74.4278C91.9534 74.4736 91.9403 74.5161 91.9239 74.5587C91.9239 74.5619 91.9239 74.5619 91.9206 74.5652C91.9141 74.5881 91.9075 74.6077 91.8977 74.6307C91.8912 74.6503 91.8846 74.6667 91.8748 74.6863C91.8715 74.6896 91.8715 74.6961 91.8683 74.7027C91.8454 74.7583 91.8192 74.8139 91.7897 74.8663C91.7832 74.8826 91.7701 74.9023 91.7603 74.9219C91.7505 74.9415 91.7406 74.9579 91.7308 74.9743C91.721 74.9906 91.7112 75.0103 91.7014 75.0266C91.6817 75.0626 91.6588 75.0954 91.6359 75.1281C91.6228 75.151 91.6065 75.1674 91.5966 75.1903C91.5606 75.2361 91.5279 75.2786 91.4919 75.3212C91.4657 75.3539 91.4395 75.3833 91.4134 75.4128C91.3872 75.4422 91.3577 75.4717 91.3315 75.5012C91.3185 75.5143 91.3054 75.5273 91.2923 75.5404C91.2792 75.5535 91.2694 75.5633 91.253 75.5764C91.2399 75.5895 91.2235 75.6059 91.2072 75.619C91.2039 75.6222 91.1974 75.6255 91.1941 75.6321C91.1548 75.6681 91.1156 75.6975 91.073 75.7302C91.0697 75.7335 91.0665 75.7368 91.0599 75.7401C91.0272 75.763 90.9945 75.7859 90.9617 75.8088C90.9486 75.8153 90.9388 75.8251 90.929 75.8317C90.9094 75.8448 90.893 75.8546 90.8734 75.8677C90.8603 75.8775 90.8439 75.8873 90.8276 75.8939C90.8112 75.9037 90.7948 75.9135 90.7785 75.9233C90.6639 75.9888 90.5461 76.0444 90.4217 76.0869C90.4152 76.0902 90.4054 76.0935 90.3988 76.0935C90.3923 76.0968 90.3792 76.1 90.3727 76.1C90.3432 76.1099 90.317 76.1197 90.2843 76.1295C90.2319 76.1459 90.1828 76.1589 90.1305 76.1688C90.1043 76.1753 90.0781 76.1819 90.0519 76.1884C90.0356 76.1917 90.0159 76.1949 89.9996 76.1949C89.9799 76.1982 89.957 76.2015 89.9374 76.208H89.9308C89.9112 76.2113 89.8949 76.2146 89.8785 76.2146C89.8719 76.2146 89.8621 76.2178 89.8556 76.2178C89.8425 76.2211 89.8261 76.2211 89.8098 76.2244C89.8032 76.2244 89.7934 76.2277 89.7836 76.2277C89.7541 76.2309 89.7214 76.2309 89.6887 76.2342C89.6429 76.2375 89.6003 76.2375 89.5545 76.2375H89.417L58.942 57.4334C58.8111 57.3515 58.6933 57.2534 58.5984 57.1486V57.1454C58.0453 56.5432 58.0453 55.604 58.5984 54.9986V54.9953C58.6933 54.8906 58.8111 54.7924 58.942 54.7106L60.7093 53.6175L61.6387 53.0449L86.308 37.8242L88.9851 36.1748H89.5578C89.6199 36.1748 89.6789 36.1781 89.7378 36.1813C89.7476 36.1781 89.7607 36.1813 89.7705 36.1846C89.8261 36.1879 89.885 36.1944 89.9407 36.2043C89.9538 36.2075 89.9668 36.2075 89.9799 36.2108C90.029 36.2173 90.0781 36.2304 90.1239 36.2403C90.137 36.2435 90.1468 36.2435 90.1599 36.2468C90.2188 36.2599 90.2745 36.2763 90.3334 36.2959C90.3857 36.3123 90.4414 36.3319 90.4905 36.3515C90.5625 36.381 90.6345 36.4137 90.7032 36.4497C90.7425 36.4693 90.7817 36.489 90.8177 36.5119C90.8832 36.5479 90.9454 36.5904 91.0043 36.633C91.0076 36.6297 91.0076 36.633 91.0076 36.633L91.1385 36.7311C91.145 36.7344 91.1516 36.7377 91.1548 36.7442C91.1908 36.7704 91.2203 36.7999 91.2497 36.826C91.2726 36.8457 91.2956 36.8686 91.3185 36.8915C91.3872 36.9569 91.4526 37.0289 91.5148 37.1075C91.5443 37.1435 91.5704 37.1762 91.5934 37.2122C91.6981 37.3562 91.7897 37.5133 91.8585 37.6802C91.8781 37.726 91.8977 37.7718 91.9141 37.8176C91.9141 37.8209 91.9174 37.8209 91.9174 37.8242C91.9468 37.8994 91.9697 37.978 91.9894 38.0533C91.9992 38.0925 92.009 38.1285 92.0155 38.1678C92.0221 38.1972 92.0286 38.2267 92.0319 38.2562C92.0384 38.2856 92.0417 38.3183 92.045 38.3478C92.0515 38.3838 92.0548 38.4198 92.0581 38.4558C92.0614 38.4852 92.0646 38.518 92.0646 38.5507C92.0646 38.59 92.0646 38.6358 92.0646 38.6783Z" fill="#4C99BE"/>
<path opacity="0.29" d="M92.0646 73.2502V73.6135C92.0646 75.06 90.9421 76.2316 89.5577 76.2316H27.6417C26.2573 76.2316 25.1348 75.06 25.1348 73.6135V73.2502L56.9814 52.299C57.9697 51.6477 59.2297 51.6477 60.218 52.299L92.0646 73.2502Z" fill="#474747"/>
<path d="M92.0646 73.3734V73.7236C92.0646 75.1079 90.9421 76.2304 89.5577 76.2304H27.6417C26.2573 76.2304 25.1348 75.1079 25.1348 73.7236V73.3734L56.9814 53.2994C57.9697 52.6776 59.2297 52.6776 60.218 53.2994L92.0646 73.3734Z" fill="#92D3EF"/>
<path d="M55.457 24.1872H36.8222C36.2233 24.1872 35.7324 23.6963 35.7324 23.0973V22.6358C35.7324 22.0368 36.2233 21.5459 36.8222 21.5459H55.457C56.0559 21.5459 56.5468 22.0368 56.5468 22.6358V23.0973C56.5468 23.6995 56.0559 24.1872 55.457 24.1872Z" fill="#397B9B"/>
<path d="M33.7695 71.4073C33.763 71.4073 33.7597 71.4073 33.7532 71.4073C33.0103 71.3778 32.2641 71.3124 31.531 71.2175C31.3052 71.188 31.1481 70.9818 31.1776 70.756C31.207 70.5302 31.4132 70.3699 31.639 70.4026C32.3459 70.4975 33.0659 70.5597 33.7859 70.5859C34.0117 70.5957 34.1884 70.7855 34.1786 71.0113C34.1688 71.2338 33.9888 71.4073 33.7695 71.4073ZM35.959 71.3975C35.7397 71.3975 35.5597 71.2273 35.5499 71.0048C35.5401 70.7789 35.7135 70.5859 35.9393 70.5728C36.6495 70.5401 37.3695 70.4713 38.0862 70.3764C38.312 70.347 38.5182 70.5041 38.5477 70.7299C38.5771 70.9557 38.42 71.1618 38.1942 71.1913C37.4546 71.2895 36.7084 71.3582 35.9786 71.3942C35.972 71.3942 35.9655 71.3975 35.959 71.3975ZM29.4299 70.828C29.4005 70.828 29.3678 70.8248 29.3383 70.8182C28.6183 70.6513 27.895 70.4517 27.1914 70.2161C26.9754 70.1441 26.8609 69.9117 26.9296 69.6957C26.9983 69.4797 27.234 69.3619 27.45 69.4339C28.1307 69.6597 28.8278 69.8561 29.5216 70.0132C29.7441 70.0655 29.8816 70.2848 29.8292 70.5073C29.7867 70.7004 29.6165 70.828 29.4299 70.828ZM40.2985 70.8215C40.1087 70.8215 39.9386 70.6906 39.896 70.4975C39.8469 70.275 39.9909 70.0557 40.2102 70.0099C40.9073 69.8594 41.6109 69.6794 42.3047 69.4765C42.524 69.4143 42.7498 69.5354 42.8152 69.7546C42.8807 69.9739 42.7563 70.1997 42.5371 70.2652C41.8236 70.4746 41.1004 70.6611 40.3836 70.8149C40.3575 70.8182 40.328 70.8215 40.2985 70.8215ZM44.504 69.5877C44.337 69.5877 44.18 69.4863 44.1178 69.3194C44.0392 69.1067 44.1472 68.871 44.36 68.7925C45.0309 68.5438 45.705 68.2656 46.3596 67.9678C46.5658 67.8729 46.8112 67.9645 46.9028 68.174C46.9977 68.3802 46.9061 68.6256 46.6967 68.7172C46.0225 69.0216 45.3319 69.3063 44.6447 69.5648C44.5989 69.5779 44.553 69.5877 44.504 69.5877ZM25.2703 69.4568C25.218 69.4568 25.1623 69.447 25.11 69.4241C24.4456 69.1394 23.7682 68.8187 23.1005 68.4751C22.8976 68.3703 22.8191 68.1216 22.9238 67.922C23.0285 67.7191 23.2773 67.6406 23.4769 67.7453C24.1282 68.0824 24.786 68.3932 25.434 68.6714C25.6434 68.7598 25.7383 69.0019 25.65 69.2114C25.5812 69.3619 25.4307 69.4568 25.2703 69.4568ZM48.4966 67.778C48.3494 67.778 48.2086 67.6995 48.1334 67.562C48.0254 67.3624 48.1006 67.1137 48.3003 67.0057C48.8795 66.6948 49.4294 66.3708 49.9334 66.0468C50.1232 65.9257 50.3784 65.9814 50.4995 66.1712C50.6206 66.361 50.565 66.6162 50.3752 66.7373C49.8515 67.0711 49.2854 67.4049 48.6897 67.7256C48.6276 67.7616 48.5621 67.778 48.4966 67.778ZM21.3758 67.4475C21.3038 67.4475 21.2286 67.4278 21.1631 67.3886C20.5282 67.0024 19.9031 66.5933 19.3042 66.1712C19.1177 66.0403 19.0751 65.785 19.206 65.5985C19.3369 65.4119 19.5922 65.3694 19.7788 65.5003C20.3613 65.9094 20.97 66.3086 21.5886 66.685C21.7816 66.8028 21.8438 67.0548 21.726 67.2478C21.6507 67.3755 21.5133 67.4475 21.3758 67.4475ZM17.7955 64.9145C17.7039 64.9145 17.6122 64.8851 17.5337 64.8196C16.9773 64.3614 16.4439 63.8837 15.9464 63.4026C15.9072 63.3731 15.8712 63.3371 15.845 63.2979C15.7141 63.1375 15.7239 62.9019 15.8712 62.7513C16.0086 62.6106 16.2181 62.591 16.3784 62.6859C17.0428 62.8364 17.7202 62.9477 18.3879 63.023C18.6137 63.0492 18.7773 63.252 18.7511 63.4779C18.725 63.7037 18.5253 63.8673 18.2962 63.8411C18.041 63.8117 17.789 63.7789 17.5337 63.7397C17.7071 63.8902 17.8806 64.0375 18.0573 64.1847C18.234 64.3287 18.257 64.5873 18.113 64.764C18.0311 64.8654 17.9133 64.9145 17.7955 64.9145ZM20.5282 63.9589C20.3024 63.9589 20.1191 63.7789 20.1158 63.5499C20.1126 63.324 20.2958 63.1375 20.5217 63.1342C21.0944 63.131 21.6737 63.095 22.2398 63.0361C22.3576 63.023 22.4951 63.0099 22.6653 62.9902C22.8878 62.9608 23.094 63.1244 23.1235 63.3502C23.1496 63.576 22.9893 63.7789 22.7635 63.8084C22.59 63.828 22.4493 63.8444 22.3446 63.8542C21.7326 63.9197 21.1271 63.9524 20.5282 63.9589C20.5315 63.9589 20.5282 63.9589 20.5282 63.9589ZM24.8809 63.4517C24.6911 63.4517 24.5209 63.3175 24.4783 63.1244C24.4325 62.9019 24.5733 62.6859 24.7958 62.6368C25.5125 62.4863 26.2129 62.3063 26.8838 62.0968C27.103 62.0314 27.3321 62.1525 27.3976 62.3685C27.463 62.5844 27.342 62.8168 27.126 62.8823C26.4321 63.095 25.7056 63.2848 24.966 63.4386C24.9398 63.4484 24.9103 63.4517 24.8809 63.4517ZM14.0777 62.8692C14.0319 62.8692 13.9861 62.8626 13.9403 62.8463C13.2432 62.6008 12.5494 62.3128 11.8752 61.9888C11.669 61.8907 11.5839 61.6452 11.6821 61.439C11.7803 61.2329 12.0258 61.1478 12.2319 61.246C12.8799 61.5569 13.5443 61.8318 14.2152 62.0674C14.4279 62.1427 14.5425 62.3783 14.4672 62.591C14.4083 62.7644 14.2479 62.8692 14.0777 62.8692ZM29.0667 62.1492C28.9063 62.1492 28.7558 62.0576 28.6903 61.9005C28.6019 61.691 28.6968 61.4489 28.9063 61.3605C29.5837 61.0692 30.2252 60.7453 30.8143 60.3951C31.0106 60.2806 31.2626 60.3427 31.3772 60.5391C31.4917 60.7354 31.4295 60.9874 31.2332 61.102C30.6146 61.4718 29.9405 61.8121 29.2303 62.1165C29.1779 62.1394 29.1223 62.1492 29.0667 62.1492ZM14.6701 61.8514C14.5523 61.8514 14.4377 61.8023 14.3559 61.7041C13.8617 61.1151 13.4101 60.5129 13.0174 59.9108C12.893 59.721 12.9454 59.4657 13.1352 59.3413C13.325 59.217 13.5803 59.2693 13.7046 59.4591C14.081 60.0351 14.513 60.6111 14.9843 61.174C15.1315 61.3474 15.1086 61.6059 14.9352 61.7532C14.8599 61.8187 14.765 61.8514 14.6701 61.8514ZM10.1341 60.9776C10.0589 60.9776 9.98686 60.958 9.91814 60.9154C9.28651 60.526 8.67124 60.0973 8.08215 59.6424C7.90216 59.505 7.86943 59.2464 8.01016 59.0664C8.15088 58.8864 8.40615 58.8537 8.58615 58.9944C9.14905 59.433 9.74468 59.8453 10.3501 60.2184C10.5432 60.3362 10.6021 60.5915 10.4843 60.7845C10.4058 60.9089 10.2716 60.9776 10.1341 60.9776ZM32.8106 59.8977C32.6928 59.8977 32.5783 59.8486 32.4964 59.7504C32.3492 59.577 32.3721 59.3184 32.5455 59.1712C33.0986 58.7065 33.5961 58.2025 34.0248 57.6691C34.1655 57.4923 34.4273 57.4629 34.6041 57.6069C34.7808 57.7476 34.8102 58.0061 34.6662 58.1861C34.2048 58.7588 33.6713 59.3021 33.0757 59.8028C33.0004 59.8649 32.9055 59.8977 32.8106 59.8977ZM6.67817 58.2974C6.57672 58.2974 6.47199 58.2581 6.39345 58.1828C5.85672 57.6658 5.34291 57.116 4.86837 56.5498C4.72437 56.3764 4.74728 56.1179 4.92073 55.9706C5.09419 55.8266 5.35273 55.8495 5.5 56.023C5.9549 56.5662 6.44908 57.0964 6.96289 57.5905C7.12653 57.7476 7.13307 58.0094 6.97271 58.1698C6.89417 58.2548 6.78617 58.2974 6.67817 58.2974ZM12.2908 58.1828C12.137 58.1828 11.9865 58.0945 11.9178 57.944C11.5905 57.2436 11.3319 56.5302 11.1421 55.8233C11.0832 55.6041 11.2141 55.3783 11.4334 55.3194C11.6527 55.2604 11.8785 55.3914 11.9374 55.6106C12.1141 56.2717 12.3596 56.9393 12.6672 57.5971C12.7621 57.8032 12.6737 58.0487 12.4676 58.1436C12.4087 58.173 12.3497 58.1828 12.2908 58.1828ZM35.5204 56.4975C35.4582 56.4975 35.3961 56.4844 35.3371 56.4549C35.1342 56.3535 35.0491 56.108 35.1506 55.9051C35.4386 55.3226 35.671 54.6976 35.8379 54.0496L35.8673 53.9351C35.923 53.7158 36.1455 53.5816 36.3648 53.6373C36.584 53.6929 36.7182 53.9154 36.6626 54.1347L36.6299 54.259C36.4466 54.9594 36.1946 55.6368 35.8837 56.2684C35.8182 56.4124 35.6742 56.4975 35.5204 56.4975ZM3.87347 54.9397C3.73929 54.9397 3.60838 54.8743 3.52984 54.7565C3.11748 54.1347 2.73785 53.4867 2.40403 52.8257C2.30258 52.6228 2.38112 52.3773 2.58403 52.2726C2.78694 52.1679 3.03239 52.2497 3.13712 52.4526C3.46111 53.0875 3.82438 53.7093 4.2171 54.3049C4.34147 54.4947 4.2891 54.7499 4.10256 54.8743C4.03056 54.9168 3.95202 54.9397 3.87347 54.9397ZM11.1781 53.9743C10.9621 53.9743 10.7821 53.8074 10.769 53.5914C10.7527 53.3591 10.7461 53.1202 10.7461 52.8846C10.7461 52.3642 10.7821 51.8373 10.8574 51.3203C10.8901 51.0945 11.0963 50.9407 11.3221 50.9734C11.5479 51.0061 11.7018 51.2123 11.669 51.4381C11.6003 51.9159 11.5643 52.4035 11.5643 52.8846C11.5643 53.1006 11.5708 53.3231 11.5839 53.5391C11.597 53.7649 11.4268 53.9612 11.201 53.9743C11.1978 53.9743 11.1879 53.9743 11.1781 53.9743ZM36.5808 52.2791C36.5742 52.2791 36.5677 52.2791 36.5611 52.2791C36.3353 52.2693 36.1586 52.0762 36.1684 51.8504C36.175 51.6934 36.1782 51.533 36.1782 51.3726C36.1782 50.8327 36.139 50.2861 36.0604 49.7396C36.0277 49.5138 36.1848 49.3076 36.4106 49.2749C36.6364 49.2422 36.8426 49.3993 36.8753 49.6251C36.9571 50.2076 36.9997 50.7967 36.9997 51.3726C36.9997 51.5428 36.9964 51.713 36.9899 51.8832C36.98 52.1057 36.8 52.2791 36.5808 52.2791ZM1.89022 51.0421C1.72331 51.0421 1.56622 50.9407 1.50404 50.7738C1.2455 50.0832 1.02296 49.3633 0.839685 48.64C0.784049 48.4208 0.918229 48.195 1.1375 48.1426C1.35677 48.087 1.57931 48.2212 1.63495 48.4404C1.8084 49.1375 2.0244 49.8247 2.27312 50.489C2.35167 50.7018 2.24367 50.9374 2.03095 51.0192C1.98513 51.0356 1.93604 51.0421 1.89022 51.0421ZM11.7836 49.6644C11.741 49.6644 11.6952 49.6578 11.6527 49.6415C11.4367 49.5695 11.3221 49.3338 11.3974 49.1211C11.633 48.4306 11.9308 47.7335 12.2876 47.0529C12.3923 46.8532 12.641 46.7747 12.8407 46.8794C13.0436 46.9841 13.1188 47.2328 13.0141 47.4325C12.677 48.0772 12.3956 48.735 12.173 49.3862C12.1141 49.5564 11.9538 49.6644 11.7836 49.6644ZM35.9753 47.9626C35.8019 47.9626 35.6415 47.8514 35.5859 47.6779C35.3699 47.0103 35.0982 46.3493 34.7742 45.7176C34.6695 45.5147 34.7513 45.2693 34.9542 45.1646C35.1571 45.0599 35.4026 45.1417 35.5073 45.3446C35.851 46.0155 36.1422 46.7191 36.3713 47.4292C36.44 47.6452 36.3222 47.8775 36.1062 47.9463C36.0604 47.9561 36.0179 47.9626 35.9753 47.9626ZM0.816776 46.8009C0.613869 46.8009 0.440416 46.6536 0.410962 46.4474C0.309508 45.7209 0.240782 44.9715 0.211328 44.2254C0.20151 43.9996 0.378235 43.8065 0.604051 43.7999C0.836412 43.7934 1.02296 43.9668 1.03277 44.1926C1.06223 44.9126 1.12768 45.6326 1.22586 46.3329C1.25859 46.5587 1.1015 46.7649 0.875684 46.7976C0.856048 46.8009 0.836412 46.8009 0.816776 46.8009ZM13.7865 45.7798C13.7046 45.7798 13.6228 45.7569 13.5508 45.7046C13.3643 45.5737 13.3217 45.3184 13.4526 45.1319C13.8814 44.5264 14.3526 43.9374 14.8566 43.3843C15.0104 43.2174 15.269 43.2043 15.4359 43.3581C15.6028 43.5119 15.6159 43.7705 15.4621 43.9374C14.981 44.4643 14.5294 45.0271 14.1235 45.6031C14.045 45.7209 13.9174 45.7798 13.7865 45.7798ZM33.9888 44.0748C33.8612 44.0748 33.7368 44.0159 33.6583 43.9079C33.2361 43.3319 32.7681 42.792 32.2706 42.3044C32.107 42.1473 32.107 41.8855 32.2641 41.7218C32.4244 41.5582 32.683 41.5582 32.8466 41.7153C33.3801 42.2356 33.8775 42.8116 34.3226 43.4236C34.4568 43.6068 34.4175 43.8654 34.2342 43.9963C34.159 44.0486 34.0739 44.0748 33.9888 44.0748ZM16.7384 42.5531C16.6206 42.5531 16.5061 42.504 16.4242 42.4091C16.277 42.2356 16.2999 41.9771 16.4733 41.8298C17.0526 41.339 17.6581 40.8906 18.2799 40.4946C18.473 40.3736 18.725 40.4292 18.846 40.619C18.9671 40.8121 18.9115 41.0641 18.7217 41.1851C18.1326 41.5615 17.5533 41.9869 17.0035 42.4516C16.925 42.5204 16.8301 42.5531 16.7384 42.5531ZM0.64005 42.4287C0.633505 42.4287 0.623687 42.4287 0.617142 42.4287C0.391326 42.4156 0.217873 42.2225 0.230964 41.9935C0.273509 41.2408 0.355326 40.4914 0.46987 39.7747C0.50587 39.5521 0.715322 39.3983 0.941138 39.4343C1.16368 39.4703 1.3175 39.6798 1.2815 39.9056C1.17023 40.5961 1.09495 41.316 1.05241 42.0426C1.03932 42.2585 0.856048 42.4287 0.64005 42.4287ZM30.8634 41.0313C30.7848 41.0313 30.703 41.0084 30.6343 40.9593C30.0419 40.5568 29.4201 40.2197 28.7852 39.9514C28.5758 39.863 28.4776 39.6241 28.5659 39.4147C28.6543 39.2052 28.8965 39.1071 29.1027 39.1954C29.7867 39.4834 30.4576 39.8499 31.0957 40.2819C31.2823 40.4095 31.3314 40.6648 31.2037 40.8513C31.1219 40.9692 30.9943 41.0313 30.8634 41.0313ZM20.43 40.2165C20.2729 40.2165 20.1224 40.1248 20.0537 39.971C19.962 39.7649 20.0569 39.5194 20.2631 39.4311C20.9667 39.1202 21.6867 38.8747 22.4035 38.7013C22.6227 38.6489 22.8453 38.7831 22.9009 39.0023C22.9533 39.2216 22.8191 39.4441 22.5998 39.4998C21.9322 39.6634 21.258 39.8925 20.5969 40.1837C20.5413 40.2066 20.4824 40.2165 20.43 40.2165ZM26.8478 39.3591C26.8249 39.3591 26.7987 39.3558 26.7725 39.3525C26.2096 39.2511 25.6336 39.1987 25.0576 39.1987C24.9398 39.1954 24.8056 39.202 24.678 39.2052C24.4489 39.2183 24.2591 39.0383 24.2525 38.8093C24.2427 38.5835 24.4194 38.3904 24.6485 38.3838C24.786 38.3773 24.93 38.3806 25.0576 38.3773C25.6827 38.3773 26.3078 38.4329 26.9198 38.5442C27.1423 38.5835 27.2896 38.7994 27.2503 39.022C27.2143 39.2216 27.0409 39.3591 26.8478 39.3591ZM1.34695 38.1089C1.31095 38.1089 1.27168 38.1057 1.23568 38.0926C1.01641 38.0304 0.888775 37.8046 0.950956 37.5853C1.15059 36.8719 1.39277 36.1618 1.67095 35.4713C1.75604 35.2618 1.99495 35.1571 2.2044 35.2422C2.41385 35.3273 2.51858 35.5662 2.43349 35.7756C2.1684 36.4367 1.93604 37.1206 1.74295 37.8046C1.69058 37.9911 1.52695 38.1089 1.34695 38.1089ZM2.97675 34.0542C2.9113 34.0542 2.84585 34.0379 2.78366 34.0051C2.58403 33.9004 2.50549 33.6517 2.61348 33.4488C2.96039 32.7976 3.34657 32.1529 3.7622 31.5344C3.88983 31.3445 4.1451 31.2955 4.33165 31.4231C4.52146 31.5507 4.57056 31.806 4.44292 31.9925C4.04365 32.5881 3.67056 33.2099 3.34002 33.835C3.26475 33.9724 3.12402 34.0542 2.97675 34.0542ZM5.41164 30.4184C5.32 30.4184 5.22509 30.389 5.14982 30.3235C4.97637 30.1795 4.95019 29.921 5.09419 29.7443C5.56545 29.1748 6.06945 28.6218 6.59635 28.0949C6.75671 27.9345 7.01853 27.9345 7.17889 28.0949C7.33925 28.2552 7.33925 28.5171 7.17889 28.6774C6.67162 29.1847 6.18399 29.7181 5.72909 30.2679C5.64727 30.3661 5.52945 30.4184 5.41164 30.4184ZM8.51088 27.3258C8.39306 27.3258 8.27524 27.2735 8.19343 27.1753C8.04943 27.0019 8.07234 26.74 8.24906 26.5961C8.81851 26.1281 9.41741 25.6765 10.0294 25.2576C10.216 25.1299 10.4712 25.179 10.6021 25.3656C10.7298 25.5521 10.6807 25.8074 10.4941 25.9383C9.90177 26.3441 9.31923 26.7793 8.77269 27.2342C8.69742 27.2931 8.60251 27.3258 8.51088 27.3258ZM12.1272 24.8518C11.9832 24.8518 11.8425 24.7765 11.7672 24.6423C11.6559 24.446 11.7279 24.194 11.9243 24.0827C12.5657 23.7227 13.2366 23.3857 13.9141 23.078C14.1203 22.9831 14.3657 23.078 14.4574 23.2842C14.5523 23.4904 14.4574 23.7358 14.2512 23.8275C13.5966 24.1253 12.9486 24.4493 12.3268 24.7994C12.2647 24.8354 12.1959 24.8518 12.1272 24.8518ZM16.1199 23.0486C15.9497 23.0486 15.7926 22.9439 15.7337 22.7737C15.6584 22.561 15.7697 22.3254 15.9857 22.2501C16.6795 22.0046 17.3962 21.7854 18.113 21.5988C18.3322 21.5399 18.558 21.6741 18.6137 21.8934C18.6726 22.1126 18.5384 22.3384 18.3191 22.3941C17.6253 22.5773 16.9315 22.7901 16.2573 23.0257C16.2115 23.0388 16.1624 23.0486 16.1199 23.0486Z" fill="#52D1BD"/>
<path opacity="0.1" d="M36.6128 11.7031L5.60742 15.8397L13.1248 21.5405L13.2426 32.0324L19.7192 26.5312L23.3584 29.2769L36.6128 11.7031Z" fill="#232323"/>
<path d="M13.9176 31.397L13.7441 16.0682L37.2846 11.0645L13.9176 31.397Z" fill="#2BB673"/>
<path d="M13.8497 20.941C13.9675 20.8821 37.2854 11.0645 37.2854 11.0645L6.2832 15.201L13.8497 20.941Z" fill="#80DCAF"/>
<path d="M16.4183 22.8981L13.918 31.3969L24.6523 22.2764L16.4183 22.8981Z" fill="#009243"/>
<path d="M16.416 22.8981L24.0316 28.6382L37.2827 11.0645L16.416 22.8981Z" fill="#80DCAF"/>
<path opacity="0.1" d="M97.9053 39.9518C97.8791 39.5558 97.5355 39.2547 97.1428 39.2809L69.4362 41.0415C69.0402 41.0677 68.7391 41.4113 68.7653 41.804L69.482 53.0585C69.5082 53.4545 69.8518 53.7555 70.2445 53.7294L97.9511 51.9687C98.3471 51.9425 98.6482 51.5989 98.622 51.2062L97.9053 39.9518Z" fill="#232323"/>
<path d="M98.6538 50.9343L70.9476 52.6949C70.5516 52.7211 70.2113 52.4167 70.1851 52.024L69.4684 40.7698C69.4422 40.3738 69.7465 40.0335 70.1393 40.0073L97.8454 38.2467C98.2414 38.2205 98.5818 38.5249 98.6079 38.9176L99.3247 50.1718C99.3508 50.5645 99.0465 50.9081 98.6538 50.9343Z" fill="white"/>
<path d="M95.7237 41.6297L83.6339 42.3988C83.323 42.4185 83.0514 42.1795 83.0317 41.8686L83.0285 41.8392C83.0088 41.5283 83.2477 41.2566 83.5587 41.237L95.6484 40.4679C95.9593 40.4483 96.2309 40.6872 96.2506 40.9981L96.2538 41.0276C96.2735 41.3385 96.0346 41.6101 95.7237 41.6297Z" fill="#60A3C3"/>
<path d="M95.8792 44.1666L83.7902 44.9356C83.4793 44.9552 83.2076 44.7164 83.188 44.4055L83.1847 44.3761C83.1651 44.0652 83.404 43.7936 83.7149 43.774L95.8039 43.005C96.1148 42.9854 96.3864 43.2243 96.4061 43.5351L96.4093 43.5646C96.4323 43.8754 96.1934 44.147 95.8792 44.1666Z" fill="#ECF3FE"/>
<path d="M96.0433 46.703L83.9542 47.4721C83.6433 47.4917 83.3717 47.2528 83.3521 46.9419L83.3488 46.9124C83.3291 46.6015 83.5681 46.3299 83.879 46.3103L95.9681 45.5412C96.279 45.5215 96.5506 45.7604 96.5702 46.0713L96.5735 46.1008C96.5931 46.4117 96.3542 46.6833 96.0433 46.703Z" fill="#ECF3FE"/>
<path d="M96.2035 49.2387L84.1144 50.0075C83.8035 50.0271 83.5318 49.7883 83.5122 49.4775L83.5089 49.4481C83.4893 49.1373 83.7282 48.8657 84.0391 48.8461L96.1282 48.0773C96.4391 48.0577 96.7107 48.2965 96.7304 48.6073L96.7336 48.6367C96.7533 48.9475 96.5144 49.2191 96.2035 49.2387Z" fill="#ECF3FE"/>
<path d="M80.1469 49.7547C82.2314 47.6702 82.2314 44.2907 80.1469 42.2062C78.0625 40.1218 74.6829 40.1218 72.5985 42.2063C70.514 44.2907 70.514 47.6702 72.5985 49.7547C74.6829 51.8391 78.0625 51.8391 80.1469 49.7547Z" fill="#ECF3FE"/>
<path d="M79.1813 49.2657C78.9064 49.5078 78.602 49.7139 78.2682 49.8775C78.1013 49.9626 77.9246 50.0346 77.7446 50.0935C77.5548 50.1589 77.3551 50.2113 77.1522 50.2473C76.9886 50.2767 76.8184 50.2996 76.6482 50.3094C76.4781 50.3192 76.3079 50.3192 76.1377 50.3127C75.3555 50.2702 74.6224 50.0117 74.0039 49.5929C74.2788 49.0006 74.7828 48.5295 75.4112 48.307C75.5192 48.2677 75.6304 48.2383 75.745 48.2154C75.7482 48.2154 75.7548 48.2121 75.7581 48.2121C75.8595 48.1925 75.961 48.1794 76.0657 48.1728L76.9526 48.1172C77.0573 48.1107 77.162 48.1107 77.2635 48.1172C77.2668 48.1172 77.2733 48.1172 77.2766 48.1172C77.3944 48.1238 77.5057 48.1401 77.6202 48.1663C78.2715 48.3103 78.8344 48.7127 79.1813 49.2657Z" fill="#727272"/>
<path d="M78.7363 43.9931L78.9162 46.8468C78.9555 47.4751 78.481 48.0184 77.8494 48.0576L75.1659 48.2278C74.5375 48.2671 73.9943 47.7893 73.955 47.161L73.775 44.3073C73.6147 41.7711 76.1018 41.7285 76.1018 41.7285C76.1018 41.7285 76.7465 41.6565 77.3978 41.9249C77.9803 42.1638 78.5726 42.6743 78.7133 43.751C78.7232 43.8295 78.733 43.9113 78.7363 43.9931Z" fill="#302F2F"/>
<path d="M77.2532 47.6772L77.3055 48.5182C77.3285 48.8749 77.0011 49.1858 76.5789 49.2152C76.1566 49.2414 75.7933 48.9731 75.7704 48.6164L75.718 47.7753C75.7082 47.6281 75.7573 47.4874 75.8522 47.3728C75.8719 47.3467 75.8981 47.3205 75.9242 47.2976C75.9733 47.2518 76.029 47.2125 76.0912 47.1798C76.1959 47.1241 76.317 47.0881 76.4447 47.0816C76.5756 47.0718 76.6967 47.0914 76.808 47.1339C76.8735 47.1601 76.9357 47.1929 76.988 47.2321C76.9913 47.2354 76.9946 47.2354 76.9979 47.2387C77.024 47.2583 77.047 47.2779 77.0699 47.3008C77.1779 47.3957 77.2434 47.5299 77.2532 47.6772Z" fill="#F4B698"/>
<path opacity="0.28" d="M78.3778 44.6668L78.4564 45.8907C78.512 46.7514 78.008 47.5204 77.2618 47.8509L77.2814 48.1749C77.072 48.2665 76.8462 48.3254 76.604 48.3385L76.4404 48.3483C76.2014 48.3647 75.9658 48.3353 75.7498 48.2698L75.7302 47.9458C74.948 47.7135 74.3523 47.0099 74.2967 46.1525L74.2181 44.9286C74.1854 44.3559 74.3981 43.8193 74.768 43.4331C75.1051 43.0797 75.5665 42.8473 76.0902 42.8146L76.2538 42.8048C76.7218 42.7753 77.1636 42.9095 77.5236 43.1615C78.0047 43.4986 78.3353 44.0385 78.3778 44.6668Z" fill="black"/>
<path d="M78.3593 44.3544L78.4575 45.8893C78.4837 46.3082 78.379 46.7075 78.1761 47.0446C78.1302 47.1231 78.0779 47.1984 78.019 47.2671C77.9077 47.4046 77.7801 47.529 77.6361 47.6337C77.5215 47.7188 77.3972 47.7908 77.263 47.8497C77.0535 47.9413 76.8244 48.0002 76.5855 48.0133L76.4219 48.0232C76.183 48.0395 75.9474 48.0101 75.7314 47.9446C74.9492 47.7122 74.3536 47.0119 74.2979 46.1511L74.1997 44.6228C74.1997 44.6031 74.1965 44.5802 74.1965 44.5573C74.1768 43.9748 74.4092 43.4348 74.8019 43.0519C74.8641 42.993 74.9295 42.934 74.9983 42.8817C75.2994 42.6559 75.6659 42.5119 76.0684 42.4857L76.2321 42.4759C76.6837 42.4464 77.1124 42.574 77.4659 42.8097C77.6524 42.934 77.8193 43.0911 77.9568 43.2711C78.0124 43.3431 78.0648 43.4217 78.1106 43.5035C78.2513 43.7588 78.3397 44.0468 78.3593 44.3544Z" fill="#F4B698"/>
<path d="M79.2125 45.1132C79.2419 45.555 78.9047 45.9379 78.4628 45.964L78.3613 44.3637C78.4726 44.3572 78.5807 44.3735 78.6789 44.4063C78.9735 44.511 79.1928 44.7826 79.2125 45.1132Z" fill="#F4B698"/>
<path d="M78.9097 45.1288C78.926 45.4037 78.7199 45.6394 78.445 45.6558L78.3828 44.664C78.6544 44.6476 78.8933 44.8571 78.9097 45.1288Z" fill="#E29586"/>
<path d="M77.6264 48.1689L77.1584 50.2503C76.9948 50.2797 76.8246 50.3026 76.6544 50.3125C76.4842 50.3223 76.3141 50.3223 76.1439 50.3157L75.4141 48.3097L75.8362 48.2835L75.8526 48.2966L76.5628 48.9445L77.1879 48.2115L77.201 48.1951L77.6264 48.1689Z" fill="#565656"/>
<path d="M74.2004 44.624L74.3019 46.2242C73.86 46.2537 73.4802 45.9166 73.4507 45.4748C73.4278 45.0952 73.6701 44.7582 74.0204 44.6567C74.0335 44.6535 74.0433 44.6502 74.0564 44.6469C74.0629 44.6469 74.0695 44.6437 74.076 44.6437C74.1153 44.6338 74.1579 44.6273 74.2004 44.624Z" fill="#F4B698"/>
<path d="M73.7552 45.4587C73.7716 45.7337 74.0074 45.9399 74.2825 45.9235L74.2203 44.9316C73.9451 44.948 73.7355 45.1837 73.7552 45.4587Z" fill="#E29586"/>
<path d="M78.2691 49.8779C78.1022 49.963 77.9255 50.035 77.7455 50.0939L77.7324 49.9107L78.2691 49.8779Z" fill="#565656"/>
<path opacity="0.2" d="M76.5605 48.9456L77.1791 49.3284L77.6209 48.167L76.5605 48.9456Z" fill="#363636"/>
<path d="M77.6209 48.1654L77.1693 49.2882L76.5605 48.9445L77.1987 48.1949L77.2805 48.0967L77.6209 48.1654Z" fill="#EEEEEE"/>
<path opacity="0.2" d="M75.4141 48.3076L75.9901 49.4036L76.5661 48.9456L75.4141 48.3076Z" fill="#363636"/>
<path d="M76.5661 48.9447L76.0064 49.3636L75.4141 48.3066L75.7413 48.1953L75.8362 48.2804L76.5661 48.9447Z" fill="#EEEEEE"/>
<path d="M78.7335 43.9416C77.2474 44.1445 77.3063 42.7862 77.4176 42.1152C78.0036 42.3542 78.5928 42.8648 78.7335 43.9416Z" fill="#302F2F"/>
<path d="M77.8978 42.8181C77.852 42.9032 77.3971 43.8621 76.4709 43.921C75.5447 43.9799 74.1113 44.6279 74.1244 45.5541C74.1374 46.477 72.7858 42.8148 75.5775 42.3435C78.3691 41.8723 77.8978 42.8181 77.8978 42.8181Z" fill="#302F2F"/>
<path opacity="0.1" d="M100.393 37.7919L97.7353 26.832C97.6437 26.4491 97.2509 26.2102 96.868 26.3018L69.8877 32.847C69.5047 32.9386 69.2658 33.3313 69.3575 33.7142L72.0182 44.6741C72.1098 45.057 72.5026 45.2959 72.8855 45.2043L99.8659 38.6591C100.249 38.5675 100.488 38.1748 100.393 37.7919Z" fill="#232323"/>
<path d="M100.469 37.6669L73.4891 44.2119C73.1062 44.3036 72.7135 44.0679 72.6218 43.6818L69.9612 32.7221C69.8695 32.3392 70.1052 31.9465 70.4913 31.8549L97.4713 25.3098C97.8542 25.2182 98.2469 25.4538 98.3385 25.8399L100.999 36.7996C101.091 37.1825 100.852 37.5752 100.469 37.6669Z" fill="#266DB2"/>
<path d="M81.3564 40.4061C83.4204 38.3421 83.4204 34.9958 81.3564 32.9318C79.2923 30.8678 75.9459 30.8678 73.8818 32.9318C71.8178 34.9958 71.8178 38.3421 73.8818 40.4061C75.9459 42.4701 79.2923 42.4701 81.3564 40.4061Z" fill="#92D3EF"/>
<path d="M78.6809 41.3293C78.6514 41.3359 78.622 41.3424 78.5958 41.3457C77.7056 41.5322 76.8187 41.4439 76.0234 41.133C76.1773 40.4653 76.6093 39.873 77.2147 39.5294C77.3162 39.4705 77.4209 39.4214 77.5289 39.3789C77.6271 39.3396 77.7318 39.3069 77.8398 39.2807L78.7103 39.068C78.815 39.0418 78.9263 39.0254 79.031 39.0123C79.1456 38.9992 79.2634 38.996 79.3779 38.9992C79.8688 39.0189 80.3401 39.1858 80.7296 39.4672C80.8768 39.5719 81.0143 39.6996 81.1354 39.837C80.5921 40.4752 79.8688 40.9693 79.018 41.2311C78.9787 41.2442 78.9394 41.254 78.9001 41.2639C78.8936 41.2671 78.887 41.2671 78.8805 41.2704C78.874 41.2737 78.8641 41.277 78.8543 41.277C78.8478 41.2802 78.8412 41.2835 78.8314 41.2835C78.802 41.2933 78.7725 41.2999 78.7398 41.3097L78.7169 41.3162L78.6907 41.3228L78.6841 41.326L78.6809 41.3293Z" fill="#F4B545"/>
<path d="M75.1696 36.3354C75.1696 36.3354 74.1812 33.4587 75.7783 33.0104C77.3753 32.562 77.9317 31.9959 78.3506 32.0384C78.7695 32.0809 79.712 34.6827 79.7382 35.2292C79.7611 35.7725 75.1696 36.3354 75.1696 36.3354Z" fill="#E09F36"/>
<path d="M78.9319 38.5877L79.1315 39.4124C79.2166 39.7625 78.9482 40.129 78.5325 40.2304C78.1201 40.3319 77.711 40.1257 77.6259 39.7789L77.4262 38.9542C77.3902 38.8103 77.4164 38.663 77.4884 38.5321C77.5048 38.5027 77.5244 38.4732 77.544 38.4438C77.5833 38.3881 77.6324 38.3391 77.6913 38.2965C77.7863 38.2245 77.8976 38.1689 78.0252 38.1362C78.1529 38.1067 78.2772 38.1035 78.3951 38.1264C78.4638 38.1394 78.5326 38.1624 78.5915 38.1918C78.5947 38.1918 78.598 38.1951 78.6013 38.1951C78.6307 38.2082 78.6569 38.2245 78.6831 38.2442C78.8042 38.3227 78.8959 38.4438 78.9319 38.5877Z" fill="#F4CB95"/>
<path d="M79.523 35.4031L79.8143 36.6008C80.0172 37.4451 79.6539 38.2959 78.9732 38.7541L79.0485 39.0715C78.8586 39.1991 78.6426 39.2973 78.407 39.3529L78.2466 39.3922C78.011 39.4478 77.7753 39.4609 77.5462 39.4348L77.4709 39.1173C76.6527 39.0224 75.9393 38.4301 75.7363 37.5891L75.445 36.3913C75.3109 35.8285 75.432 35.2591 75.7298 34.8107C76.0014 34.4017 76.4204 34.0908 76.9309 33.9664L77.0913 33.9272C77.5495 33.8159 78.0142 33.8715 78.4135 34.0581C78.947 34.3068 79.3692 34.7878 79.523 35.4031Z" fill="#D8A471"/>
<path d="M79.4468 35.0944L79.8134 36.5998C79.905 36.9761 79.8821 37.3557 79.7708 37.6993C79.7545 37.7549 79.7316 37.8073 79.7086 37.8597C79.6825 37.9251 79.653 37.984 79.6203 38.0462C79.4665 38.3276 79.2439 38.5698 78.9756 38.753C78.7825 38.8807 78.5665 38.9788 78.3309 39.0345L78.1705 39.0737C77.9349 39.1294 77.696 39.1425 77.4702 39.1163C76.652 39.0214 75.9386 38.4291 75.7357 37.588L75.3561 36.0238C75.235 35.4511 75.3724 34.8752 75.6931 34.4269C75.7455 34.3549 75.8011 34.2862 75.86 34.224C76.1186 33.9458 76.4589 33.7397 76.8549 33.6415L77.0153 33.6022C77.3229 33.527 77.6305 33.527 77.9218 33.5957C77.9807 33.6088 78.0363 33.6219 78.0952 33.6415C78.164 33.6644 78.2327 33.6873 78.2981 33.7168C78.8479 33.9687 79.293 34.4596 79.4468 35.0944Z" fill="#F4CB95"/>
<path d="M80.4226 35.6978C80.5274 36.133 80.2623 36.5682 79.8269 36.6729L79.4473 35.1022C79.5553 35.076 79.6666 35.0727 79.768 35.0891C80.0822 35.1415 80.3441 35.3738 80.4226 35.6978Z" fill="#EDC28E"/>
<path d="M80.1245 35.7697C80.1899 36.038 80.0264 36.3097 79.755 36.3752L79.5195 35.4031C79.791 35.3376 80.0591 35.5013 80.1245 35.7697Z" fill="#D8A471"/>
<path d="M75.3652 36.0928L75.745 37.6637C75.3128 37.7684 74.8742 37.5033 74.7694 37.0681C74.6777 36.695 74.8643 36.3186 75.1917 36.155C75.2015 36.1484 75.2146 36.1451 75.2277 36.1386C75.2343 36.1353 75.2408 36.132 75.2474 36.132C75.2866 36.1157 75.3259 36.1026 75.3652 36.0928Z" fill="#EDC28E"/>
<path d="M75.0728 36.9958C75.1383 37.2641 75.4101 37.4278 75.6785 37.3656L75.4428 36.3936C75.1743 36.4557 75.0073 36.7274 75.0728 36.9958Z" fill="#D8A471"/>
<path d="M79.4475 35.0949L79.8141 36.6003C79.9057 36.9767 79.8828 37.3563 79.7715 37.6999C79.7552 37.7555 79.7323 37.8079 79.7093 37.8603C79.4082 34.9247 78.8321 34.6269 78.1611 34.7971C77.4377 34.9771 77.0547 34.1262 77.0547 34.1262L78.0923 33.6484C78.1611 33.6713 78.2298 33.6943 78.2953 33.7237C78.8485 33.9692 79.2936 34.46 79.4475 35.0949Z" fill="#E5B67F"/>
<path d="M79.2652 39.9657L79.5336 40.2471L79.023 41.242C78.9837 41.2551 78.9445 41.2649 78.9052 41.2747C78.8986 41.278 78.8921 41.278 78.8856 41.2813C78.879 41.2845 78.8692 41.2878 78.8594 41.2878L79.0983 39.7628V39.7595L79.1376 39.5075V39.5042L79.1408 39.4781L79.0426 39.0723L79.6317 39.6777L79.2783 39.9526L79.2652 39.9657Z" fill="#CC8E2B"/>
<path d="M78.7263 41.3191L78.7492 41.3126C78.7819 41.306 78.8114 41.2962 78.8408 41.2864C78.8507 41.2864 78.8572 41.2831 78.8638 41.2799C78.8736 41.2799 78.8801 41.2766 78.8899 41.2733L78.9488 41.0933L79.2598 40.1246L79.1976 39.8726L79.335 39.6534L79.1616 39.3359C79.1616 39.3359 79.155 39.3654 79.1321 39.4178L79.1288 39.421V39.4243C79.0765 39.5716 78.9423 39.8792 78.7001 40.0919C78.6478 40.1377 78.5921 40.1803 78.5234 40.213C78.4219 40.2097 78.3238 40.1901 78.2354 40.1606C77.9539 40.0723 77.7314 39.8857 77.6267 39.7843L77.6234 39.781C77.5809 39.7417 77.5612 39.7188 77.5612 39.7188L77.5547 40.0821L77.7772 40.213L77.8394 40.465L78.4579 41.0835L78.6903 41.3191H78.6936H78.7263Z" fill="white"/>
<path d="M79.2823 39.9486L79.5311 40.2431L78.9027 41.2707C78.8962 41.274 78.8896 41.274 78.8831 41.2773C78.8765 41.2805 78.8667 41.2838 78.8569 41.2838C78.8503 41.2871 78.8438 41.2904 78.834 41.2904L79.0663 39.8275L79.1285 39.4348V39.4315L79.1318 39.4283L79.0336 39.0225L79.6358 39.6802L79.2529 39.9159L79.2823 39.9486Z" fill="#E09F36"/>
<path d="M78.678 41.3294C78.6485 41.3359 78.619 41.3425 78.5929 41.3458L77.6471 40.7011L77.7583 40.328L77.7354 40.3247L77.2969 40.2429L77.5423 39.4346L77.6274 39.788L77.6405 39.8404L77.6438 39.8436L77.6503 39.8535L77.6536 39.8567L77.8107 40.0695L78.727 41.3196L78.7009 41.3261L78.6943 41.3294H78.678Z" fill="#CC8E2B"/>
<path d="M78.6793 41.329L77.6451 40.7007L77.7335 40.3243L77.7466 40.2785L77.2949 40.2425L77.5273 39.3818L77.5404 39.4342L77.6255 39.7909H77.6287L77.8676 40.1149V40.1182L78.7447 41.3159L78.7218 41.3192L78.6956 41.3258L78.6891 41.329H78.6793Z" fill="#E09F36"/>
<path d="M78.1614 33.3313C78.1614 33.3313 77.1108 33.2724 76.921 33.3182C76.7312 33.364 76.4923 33.4459 76.1388 33.6291C75.7854 33.8124 75.3174 34.3557 75.3174 34.3557L75.2585 34.5848C75.2159 34.6601 75.1701 34.7452 75.1734 34.7648C75.1767 34.7844 75.1767 34.8499 75.1767 34.9088L75.1309 35.0986C75.1407 35.0921 75.1701 35.0757 75.2029 35.0528L75.2912 35.2001C75.2978 35.1968 75.4156 34.8695 75.7134 34.6044C76.1028 34.3459 76.6723 34.1691 77.1534 34.3688C78.0272 34.7321 79.333 34.0808 79.333 34.0808L78.1614 33.3313Z" fill="#E09F36"/>
<path d="M95.9394 28.9021L84.1673 31.759C83.863 31.8343 83.5553 31.6445 83.4801 31.3402L83.4735 31.314C83.3982 31.0096 83.5881 30.702 83.8924 30.6267L95.6645 27.7665C95.9688 27.6912 96.2765 27.881 96.3517 28.1854L96.3583 28.2116C96.4303 28.5192 96.2437 28.8268 95.9394 28.9021Z" fill="#175186"/>
<path d="M96.539 31.3705L84.7669 34.2275C84.4626 34.3027 84.1549 34.1129 84.0797 33.8086L84.0731 33.7824C83.9979 33.478 84.1877 33.1704 84.492 33.0951L96.2641 30.2382C96.5684 30.1629 96.8761 30.3527 96.9513 30.6571L96.9579 30.6832C97.0299 30.9876 96.8433 31.2985 96.539 31.3705Z" fill="#659ACA"/>
<path d="M97.1387 33.8412L85.3666 36.6981C85.0622 36.7734 84.7546 36.5836 84.6793 36.2792L84.6727 36.2531C84.5975 35.9487 84.7873 35.6411 85.0916 35.5658L96.8638 32.7089C97.1681 32.6336 97.4758 32.8234 97.551 33.1278L97.5576 33.1539C97.6296 33.4583 97.443 33.7659 97.1387 33.8412Z" fill="#659ACA"/>
<path d="M97.7338 36.3119L85.9622 39.1688C85.6579 39.2441 85.3503 39.0543 85.275 38.7499L85.2684 38.7238C85.1932 38.4194 85.383 38.1118 85.6873 38.0365L97.4589 35.1796C97.7633 35.1043 98.0709 35.2941 98.1462 35.5985L98.1527 35.6246C98.228 35.929 98.0382 36.2366 97.7338 36.3119Z" fill="#659ACA"/>
<path d="M78.7795 72.461C78.5831 72.461 78.39 72.4578 78.1937 72.448C77.9678 72.4381 77.7911 72.2483 77.8009 72.0192C77.8108 71.7934 78.0038 71.6167 78.2297 71.6265C78.9333 71.656 79.6435 71.6298 80.3536 71.548C80.5795 71.5218 80.7824 71.6854 80.8085 71.908C80.8347 72.1338 80.6711 72.3367 80.4485 72.3629C79.8889 72.4283 79.3293 72.461 78.7795 72.461ZM76.0402 72.1796C76.0108 72.1796 75.9846 72.1763 75.9551 72.1698C75.222 72.016 74.4955 71.7967 73.7952 71.5185C73.5857 71.4335 73.481 71.1978 73.5628 70.9851C73.6479 70.7724 73.8835 70.671 74.0962 70.7528C74.7541 71.0113 75.4348 71.2175 76.1253 71.3647C76.3479 71.4106 76.4886 71.6298 76.4428 71.8524C76.4002 72.0454 76.23 72.1796 76.0402 72.1796ZM82.5496 71.9636C82.3663 71.9636 82.1994 71.8425 82.1536 71.656C82.0947 71.4367 82.2289 71.2109 82.4482 71.1553C83.1256 70.9786 83.8063 70.7495 84.474 70.4779C84.6834 70.3928 84.9256 70.4942 85.0107 70.7037C85.0958 70.9131 84.9943 71.1553 84.7849 71.2404C84.0845 71.5251 83.3678 71.764 82.6576 71.9505C82.6216 71.9603 82.5856 71.9636 82.5496 71.9636ZM71.9821 70.5826C71.9101 70.5826 71.8381 70.563 71.7726 70.5237C71.1443 70.1506 70.5225 69.7154 69.9301 69.2343C69.7534 69.0903 69.7272 68.8318 69.8679 68.6551C70.0119 68.4784 70.2705 68.4522 70.4472 68.5929C71.0101 69.0478 71.5992 69.4601 72.1948 69.8136C72.3912 69.9281 72.4533 70.1834 72.3388 70.3764C72.2603 70.5106 72.1228 70.5826 71.9821 70.5826ZM86.6045 70.3241C86.4605 70.3241 86.3198 70.2488 86.2445 70.1114C86.1332 69.9117 86.2052 69.663 86.4048 69.5518C87.0234 69.2081 87.6354 68.822 88.2179 68.4064C88.4012 68.2755 88.6597 68.318 88.7906 68.5013C88.9215 68.6845 88.879 68.9431 88.6957 69.074C88.087 69.5092 87.4521 69.9117 86.8041 70.2684C86.7419 70.3077 86.6732 70.3241 86.6045 70.3241ZM68.5785 67.8435C68.4705 67.8435 68.3625 67.8009 68.2807 67.7159C67.7767 67.1922 67.2858 66.6196 66.8243 66.0174C66.6869 65.8374 66.7196 65.5789 66.8996 65.4414C67.0796 65.304 67.3381 65.3367 67.4756 65.5167C67.9207 66.0959 68.3887 66.6425 68.873 67.1464C69.0301 67.3101 69.0236 67.5719 68.8599 67.7289C68.7814 67.8042 68.6799 67.8435 68.5785 67.8435ZM90.1652 67.7813C90.0539 67.7813 89.9394 67.7355 89.8608 67.6471C89.7103 67.477 89.7234 67.2184 89.8903 67.0679C90.4237 66.5868 90.931 66.073 91.3957 65.5429C91.5462 65.3727 91.8048 65.3564 91.975 65.5036C92.1451 65.6542 92.1615 65.9127 92.0142 66.0829C91.5299 66.6359 90.9997 67.1726 90.4401 67.6766C90.3615 67.7453 90.2601 67.7813 90.1652 67.7813ZM91.5757 65.34C91.3662 65.34 91.1862 65.1829 91.1666 64.9702C91.1437 64.7444 91.3106 64.5448 91.5364 64.5219C91.9292 64.4826 92.3251 64.4204 92.7211 64.332C92.6131 64.1946 92.6001 64.0015 92.7048 63.8477C93.1106 63.2423 93.4673 62.6238 93.7651 62.002C93.8633 61.7958 94.1088 61.7107 94.3117 61.8089C94.5179 61.9071 94.6029 62.1525 94.5048 62.3554C94.22 62.951 93.8829 63.5466 93.5033 64.1259C93.5328 64.1161 93.5655 64.1062 93.5949 64.0964C93.8142 64.031 94.0433 64.1488 94.1088 64.3648C94.1775 64.5808 94.0564 64.8131 93.8404 64.8786C93.1073 65.1076 92.3579 65.2614 91.615 65.3334C91.6019 65.34 91.5888 65.34 91.5757 65.34ZM89.3895 65.3073C89.3732 65.3073 89.3535 65.3073 89.3372 65.304C88.6172 65.2124 87.8743 65.0389 87.1281 64.7869C86.9121 64.7149 86.7976 64.4826 86.8696 64.2666C86.9416 64.0506 87.1739 63.9361 87.3899 64.0081C88.087 64.2404 88.7775 64.404 89.4452 64.4891C89.671 64.5186 89.8281 64.7247 89.8019 64.9506C89.7724 65.1567 89.5957 65.3073 89.3895 65.3073ZM65.9014 64.3746C65.764 64.3746 65.6298 64.3059 65.5512 64.1815C65.152 63.5434 64.7854 62.8856 64.4614 62.2311C64.36 62.0282 64.4418 61.7827 64.648 61.6813C64.8509 61.5798 65.0963 61.6649 65.1978 61.8678C65.512 62.4994 65.8654 63.131 66.2516 63.7495C66.3727 63.9426 66.3138 64.1946 66.1207 64.3157C66.052 64.355 65.9767 64.3746 65.9014 64.3746ZM95.7386 64.0539C95.5913 64.0539 95.4506 63.9753 95.3753 63.8346C95.2673 63.635 95.3458 63.3863 95.5455 63.2783C96.1607 62.951 96.7596 62.5649 97.3258 62.1264C97.5058 61.9889 97.7644 62.0216 97.9018 62.2016C98.0393 62.3816 98.0065 62.6401 97.8265 62.7776C97.2211 63.2423 96.5862 63.6546 95.9317 64.0048C95.8695 64.0375 95.804 64.0539 95.7386 64.0539ZM85.2496 63.9361C85.1841 63.9361 85.1154 63.9197 85.0532 63.887C84.3725 63.5172 83.7376 63.0918 83.1682 62.627C82.9914 62.4831 82.9685 62.2245 83.1125 62.0478C83.2565 61.8711 83.5151 61.8482 83.6918 61.9922C84.2187 62.4274 84.811 62.8201 85.4459 63.167C85.6456 63.275 85.7209 63.5237 85.6129 63.7234C85.5376 63.8575 85.3936 63.9361 85.2496 63.9361ZM99.2011 61.3966C99.0996 61.3966 98.9982 61.3606 98.9196 61.282C98.756 61.125 98.7494 60.8664 98.9033 60.7028C99.3876 60.1956 99.8393 59.6392 100.252 59.0567C100.383 58.8702 100.638 58.8276 100.824 58.9585C101.011 59.0894 101.053 59.3447 100.923 59.5312C100.487 60.1497 100.006 60.7323 99.4956 61.2722C99.4171 61.354 99.3091 61.3966 99.2011 61.3966ZM81.9082 61.1511C81.7838 61.1511 81.6627 61.0955 81.5809 60.9875C81.1031 60.3559 80.7234 59.6818 80.4584 58.9782C80.3765 58.7654 80.4845 58.5298 80.6973 58.448C80.91 58.3695 81.1456 58.4742 81.2274 58.6869C81.4663 59.3152 81.8034 59.9207 82.2354 60.4901C82.3729 60.6701 82.3369 60.9286 82.1569 61.066C82.0816 61.125 81.9933 61.1511 81.9082 61.1511ZM94.9073 60.5424C94.8713 60.5424 94.8353 60.5392 94.7993 60.5293C94.58 60.4704 94.4524 60.2446 94.5113 60.0254C94.7044 59.3251 94.8157 58.628 94.8484 57.9571C94.8582 57.7313 95.0448 57.5579 95.2771 57.5644C95.5029 57.5742 95.6797 57.7673 95.6698 57.9931C95.6371 58.7262 95.5127 59.4821 95.3033 60.2414C95.2509 60.4214 95.0873 60.5424 94.9073 60.5424ZM101.724 57.8328C101.662 57.8328 101.597 57.8197 101.535 57.787C101.332 57.6822 101.253 57.4335 101.358 57.2339C101.682 56.6088 101.967 55.9478 102.212 55.2769C102.291 55.0642 102.523 54.9529 102.739 55.0282C102.952 55.1067 103.063 55.3391 102.988 55.5551C102.732 56.262 102.431 56.9525 102.091 57.6102C102.016 57.751 101.872 57.8328 101.724 57.8328ZM80.3995 57.1095C80.1802 57.1095 80.0002 56.9394 79.9904 56.7168C79.9838 56.5892 79.9805 56.4649 79.9805 56.3372C79.9805 55.7089 80.0558 55.0675 80.2064 54.4293C80.2587 54.2068 80.4813 54.0694 80.7005 54.1217C80.9231 54.1741 81.0605 54.3933 81.0082 54.6159C80.874 55.1918 80.8053 55.7711 80.8053 56.3372C80.8053 56.4518 80.8085 56.563 80.8151 56.6776C80.8249 56.9034 80.6514 57.0965 80.4256 57.1095C80.4125 57.1095 80.406 57.1095 80.3995 57.1095ZM95.084 56.2063C94.8909 56.2063 94.7208 56.0721 94.6815 55.8758C94.5473 55.2049 94.3411 54.5242 94.0662 53.8566C93.9811 53.6472 94.0793 53.405 94.292 53.3199C94.5015 53.2349 94.7437 53.333 94.8288 53.5457C95.1233 54.2624 95.3458 54.9922 95.4898 55.7154C95.5357 55.938 95.3884 56.154 95.1658 56.1998C95.1364 56.2031 95.1102 56.2063 95.084 56.2063ZM81.3584 52.8847C81.2962 52.8847 81.2307 52.8716 81.1718 52.8389C80.9689 52.7374 80.8904 52.4887 80.9918 52.2858C81.3387 51.6019 81.7642 50.9637 82.2518 50.3845C82.3991 50.211 82.6576 50.1881 82.8311 50.3354C83.0045 50.4826 83.0274 50.7412 82.8802 50.9146C82.4318 51.4448 82.0423 52.0338 81.7249 52.6589C81.6529 52.8029 81.5089 52.8847 81.3584 52.8847ZM93.4379 52.1647C93.3037 52.1647 93.1695 52.0993 93.091 51.9749C92.6982 51.3597 92.2597 50.8066 91.7851 50.3256C91.6248 50.1652 91.6281 49.9034 91.7884 49.743C91.9488 49.5827 92.2106 49.586 92.371 49.7463C92.8848 50.2667 93.3593 50.8655 93.7815 51.5299C93.9026 51.7197 93.847 51.9749 93.6571 52.096C93.5917 52.1451 93.5131 52.1647 93.4379 52.1647ZM84.1729 49.5761C84.0452 49.5761 83.9176 49.514 83.8358 49.4027C83.7049 49.2162 83.7507 48.9609 83.934 48.83C84.5983 48.362 85.2954 48.0151 86.0088 47.8057C86.2248 47.7403 86.4539 47.8646 86.5194 48.0806C86.5848 48.2966 86.4605 48.5257 86.2445 48.5911C85.6161 48.7777 84.9976 49.0853 84.4085 49.5009C84.3365 49.5532 84.2547 49.5761 84.1729 49.5761ZM90.355 49.1114C90.2863 49.1114 90.2175 49.0951 90.1554 49.0591C89.5335 48.7089 88.8888 48.4929 88.2441 48.4111C88.0183 48.3817 87.8579 48.1788 87.8874 47.953C87.9168 47.7272 88.1197 47.5668 88.3456 47.5963C89.0983 47.6912 89.8412 47.9399 90.5579 48.3424C90.7575 48.4537 90.8263 48.7024 90.715 48.902C90.6364 49.0362 90.499 49.1114 90.355 49.1114Z" fill="#52D1BD"/>
<path opacity="0.1" d="M109.324 56.0706C112.451 52.9433 112.451 47.8731 109.324 44.7458C106.197 41.6185 101.126 41.6185 97.9986 44.7458C94.8712 47.8731 94.8712 52.9434 97.9986 56.0706C101.126 59.1979 106.197 59.1979 109.324 56.0706Z" fill="#232323"/>
<path d="M105.364 57.4604C109.787 57.4604 113.372 53.8751 113.372 49.4524C113.372 45.0296 109.787 41.4443 105.364 41.4443C100.941 41.4443 97.3555 45.0296 97.3555 49.4524C97.3555 53.8751 100.941 57.4604 105.364 57.4604Z" fill="#266DB2"/>
<path d="M106.791 47.1315L106.98 46.5032L108.499 46.6112L107.331 50.6757C107.259 50.9342 107.219 51.1044 107.213 51.1895C107.206 51.2779 107.223 51.3499 107.265 51.4022C107.304 51.4546 107.357 51.484 107.419 51.4873C107.625 51.5037 107.903 51.3859 108.25 51.1371C108.597 50.8884 108.911 50.5415 109.186 50.0932C109.464 49.6449 109.621 49.1442 109.661 48.5911C109.693 48.1297 109.638 47.6911 109.491 47.2722C109.343 46.8534 109.117 46.4836 108.81 46.1596C108.502 45.8356 108.109 45.5738 107.638 45.3709C107.164 45.168 106.62 45.0436 106.008 45.0011C105.383 44.9553 104.804 44.9978 104.271 45.1222C103.737 45.2498 103.263 45.4494 102.844 45.7276C102.428 46.0058 102.071 46.3592 101.774 46.7879C101.512 47.1643 101.302 47.5831 101.145 48.0511C100.988 48.5191 100.893 49.0002 100.857 49.4943C100.811 50.1554 100.9 50.7673 101.122 51.3335C101.345 51.8996 101.695 52.384 102.17 52.7898C102.644 53.1956 103.23 53.5032 103.93 53.7061C104.631 53.9123 105.429 54.0006 106.329 53.9712C107.046 53.9385 107.658 53.8174 108.168 53.6145C108.679 53.4116 109.121 53.1072 109.491 52.7014L110.718 52.7898C110.489 53.1858 110.204 53.5327 109.86 53.8337C109.517 54.1348 109.124 54.377 108.676 54.5668C108.231 54.7566 107.736 54.8908 107.193 54.9693C106.65 55.0479 106.067 55.0642 105.436 55.0184C104.493 54.9497 103.649 54.7664 102.913 54.4653C102.173 54.1643 101.564 53.7617 101.08 53.2578C100.595 52.7538 100.245 52.1713 100.026 51.5037C99.8067 50.8393 99.7249 50.1128 99.7806 49.3307C99.8395 48.5125 100.029 47.7599 100.353 47.0693C100.677 46.3788 101.113 45.7898 101.662 45.3022C102.212 44.8146 102.867 44.4513 103.626 44.2059C104.385 43.9637 105.21 43.8721 106.1 43.9375C106.83 43.9899 107.491 44.1437 108.083 44.3989C108.676 44.6542 109.176 44.9978 109.582 45.4298C109.988 45.8585 110.286 46.3559 110.476 46.9188C110.665 47.4817 110.737 48.0937 110.688 48.7547C110.652 49.2685 110.525 49.7659 110.305 50.247C110.086 50.7281 109.792 51.1502 109.419 51.52C109.045 51.8898 108.62 52.1713 108.139 52.3676C107.658 52.564 107.151 52.6425 106.611 52.6032C106.3 52.5803 106.061 52.5116 105.897 52.3938C105.734 52.276 105.629 52.0993 105.586 51.8669C105.23 52.1745 104.83 52.3545 104.392 52.4102C103.953 52.4658 103.534 52.3938 103.138 52.2007C102.742 52.0044 102.435 51.7 102.212 51.2877C101.99 50.8753 101.898 50.3779 101.941 49.7987C101.983 49.1965 102.157 48.614 102.454 48.0478C102.755 47.4817 103.158 47.0301 103.662 46.693C104.166 46.3559 104.719 46.2054 105.321 46.2512C106.015 46.297 106.503 46.5916 106.791 47.1315ZM103.43 49.8903C103.397 50.3517 103.469 50.7117 103.642 50.9702C103.816 51.2288 104.058 51.3695 104.369 51.3924C104.729 51.4186 105.056 51.2975 105.351 51.0291C105.645 50.7608 105.881 50.4106 106.054 49.9819C106.228 49.5532 106.329 49.1311 106.359 48.722C106.372 48.5191 106.362 48.3326 106.326 48.1657C106.29 47.9988 106.228 47.8515 106.143 47.7206C106.058 47.5897 105.95 47.4915 105.822 47.4162C105.694 47.3442 105.547 47.3017 105.377 47.2886C105.04 47.2657 104.726 47.3737 104.438 47.6191C104.15 47.8613 103.917 48.1886 103.74 48.6009C103.564 49.01 103.459 49.442 103.43 49.8903Z" fill="#ECF3FE"/>
<path d="M81.8348 5.06217L82.6988 4.60727C82.8951 4.50581 83.1242 4.66945 83.0849 4.88872L82.918 5.85088C82.9017 5.93597 82.9311 6.02761 82.9933 6.08651L83.6936 6.7705C83.8507 6.92432 83.7656 7.19595 83.5464 7.2254L82.5777 7.36613C82.4893 7.37922 82.414 7.43486 82.378 7.5134L81.9461 8.39048C81.8479 8.59011 81.5632 8.59011 81.4683 8.39048L81.0363 7.5134C80.997 7.43486 80.9217 7.37922 80.8366 7.36613L79.868 7.2254C79.6487 7.19268 79.5603 6.92432 79.7207 6.7705L80.421 6.08651C80.4832 6.02433 80.5127 5.93597 80.4963 5.85088L80.3294 4.88872C80.2934 4.66945 80.5225 4.50254 80.7156 4.60727L81.5795 5.06217C81.6613 5.10471 81.7562 5.10471 81.8348 5.06217Z" fill="#92D3EF"/>
<path d="M11.4452 74.6608C10.1754 74.6608 9.14453 73.63 9.14453 72.3602C9.14453 71.0904 10.1754 70.0596 11.4452 70.0596C12.715 70.0596 13.7459 71.0904 13.7459 72.3602C13.7459 73.63 12.715 74.6608 11.4452 74.6608ZM11.4452 70.6944C10.5256 70.6944 9.77616 71.4439 9.77616 72.3635C9.77616 73.2831 10.5256 74.0325 11.4452 74.0325C12.3649 74.0325 13.1143 73.2831 13.1143 72.3635C13.1143 71.4406 12.3649 70.6944 11.4452 70.6944Z" fill="#92D3EF"/>
<path d="M12.2764 73.1888C12.734 72.7312 12.734 71.9895 12.2764 71.5319C11.8189 71.0744 11.077 71.0744 10.6195 71.5319C10.1619 71.9895 10.1619 72.7313 10.6195 73.1888C11.077 73.6463 11.8189 73.6463 12.2764 73.1888Z" fill="#92D3EF"/>
<path d="M59.0083 86.1043C59.5921 86.1043 60.0653 85.6311 60.0653 85.0473C60.0653 84.4635 59.5921 83.9902 59.0083 83.9902C58.4244 83.9902 57.9512 84.4635 57.9512 85.0473C57.9512 85.6311 58.4244 86.1043 59.0083 86.1043Z" fill="#92D3EF"/>
<path d="M41.4594 2.11409C42.0432 2.11409 42.5165 1.64084 42.5165 1.05705C42.5165 0.473256 42.0432 0 41.4594 0C40.8756 0 40.4023 0.473256 40.4023 1.05705C40.4023 1.64084 40.8756 2.11409 41.4594 2.11409Z" fill="#92D3EF"/>
</svg>
