<svg width="32" height="32" viewBox="0 0 32 32" fill="none" xmlns="http://www.w3.org/2000/svg">
<path d="M25.4478 9.44849C25.4478 4.23856 21.2093 0 15.9993 0C10.7894 0 6.55078 4.23856 6.55078 9.44849C6.55078 14.6584 10.7893 18.897 15.9993 18.897C21.2092 18.897 25.4478 14.6584 25.4478 9.44849ZM12.3339 11.711H14.2088C14.2088 12.3606 14.7372 12.889 15.3868 12.889H16.5908C17.2614 12.889 17.807 12.3434 17.807 11.6729C17.807 11.0023 17.2614 10.4567 16.5908 10.4567H15.4079C13.7035 10.4567 12.3168 9.07001 12.3168 7.36562C12.3168 5.77821 13.5198 4.46704 15.0619 4.29443V2.73427H16.9368V4.29793C18.4665 4.48285 19.6561 5.78821 19.6561 7.36699H17.7812C17.7812 6.69566 17.235 6.1495 16.5637 6.1495H15.4079C14.7373 6.1495 14.1918 6.69503 14.1918 7.36562C14.1918 8.0362 14.7373 8.58179 15.4079 8.58179H16.5909C18.2953 8.58179 19.6819 9.96846 19.6819 11.6728C19.6819 13.2602 18.4789 14.5714 16.9368 14.744V16.3042H15.062V14.7464C13.5307 14.5837 12.3339 13.2846 12.3339 11.711Z" fill="#175186"/>
<path d="M22.2323 18.8984C20.4436 20.0819 18.3014 20.7723 16.0007 20.7723C13.7 20.7723 11.5578 20.082 9.76913 18.8984V23.0021H6.58008V24.3577L16.0007 32.0004L25.4212 24.3577V23.0021H22.2322V18.8984H22.2323Z" fill="#175186"/>
</svg>
