<svg width="16" height="16" viewBox="0 0 16 16" fill="none" xmlns="http://www.w3.org/2000/svg">
<path d="M15.1193 3.03616H10.9182L11.2858 2.70701C11.3128 2.68285 11.3369 2.65581 11.3579 2.62635C11.8951 1.87318 11.7194 0.8234 10.9661 0.286218C10.6069 0.030081 10.1544 -0.0598769 9.72469 0.0397022C9.29489 0.139174 8.92795 0.418669 8.71783 0.806456L7.99977 2.13199L7.28171 0.806456C7.0716 0.418616 6.70461 0.139068 6.27486 0.0396488C5.84501 -0.0598769 5.39255 0.0300276 5.03346 0.286165C4.28029 0.823347 4.10449 1.87312 4.64161 2.6263C4.66267 2.65581 4.68689 2.68285 4.71377 2.70696L5.08136 3.03611H0.880328C0.609332 3.03611 0.389648 3.25579 0.389648 3.52679V6.63785C0.389648 6.90884 0.609332 7.12853 0.880328 7.12853H1.01032V15.5093C1.01032 15.7803 1.23 16 1.501 16H14.4987C14.7697 16 14.9893 15.7803 14.9893 15.5093V7.12853H15.1193C15.3903 7.12853 15.61 6.90884 15.61 6.63785V3.52684C15.61 3.25585 15.3903 3.03616 15.1193 3.03616ZM9.58075 1.27388C9.65804 1.13112 9.78776 1.03234 9.94597 0.995726C9.98884 0.985784 10.0318 0.98092 10.0743 0.98092C10.1888 0.98092 10.2999 1.01641 10.3963 1.08515C10.5478 1.19317 10.6481 1.35363 10.6788 1.53718C10.7068 1.70502 10.6737 1.87355 10.5852 2.01701L9.44696 3.03616H8.62611L9.58075 1.27388ZM5.32076 1.53724C5.35144 1.35379 5.45177 1.19323 5.6033 1.0852C5.73549 0.990915 5.89531 0.959112 6.05363 0.995779C6.21179 1.03234 6.34151 1.13117 6.41886 1.27394L7.37349 3.03616H6.55264L5.41435 2.01701C5.32589 1.8736 5.2927 1.70497 5.32076 1.53724ZM6.17378 15.0187H1.99163V7.12858H6.17378V15.0187ZM8.84441 15.0187H7.15514V7.12858H8.84441V15.0187V15.0187ZM14.008 15.0187H9.82582V7.12858H14.008V15.0187ZM14.6286 6.14722H1.37095V4.01752H14.6286V6.14722H14.6286Z" fill="#9AA2A9"/>
</svg>
