<svg width="25" height="25" viewBox="0 0 25 25" fill="none" xmlns="http://www.w3.org/2000/svg">
<g clip-path="url(#clip0)">
<path d="M3.91412 10.5H15.4999C16.0522 10.5 16.4999 10.0523 16.4999 9.49999C16.4999 8.94771 16.0522 8.5 15.4999 8.5H3.91412L6.20701 6.20711C6.59752 5.81659 6.59752 5.1834 6.20701 4.79289C5.81649 4.40237 5.1833 4.40237 4.79279 4.79289L0.792758 8.79288C0.769461 8.81617 0.74743 8.84069 0.726523 8.86619C0.717055 8.87772 0.708805 8.88991 0.699945 8.90177C0.689258 8.91602 0.678242 8.92994 0.668305 8.9448C0.658789 8.959 0.650539 8.97377 0.64182 8.98835C0.633805 9.00175 0.625367 9.01488 0.617961 9.02871C0.609992 9.04357 0.603242 9.05889 0.596117 9.07408C0.58932 9.08847 0.582148 9.10263 0.576008 9.11739C0.569914 9.13216 0.564945 9.14725 0.559602 9.16225C0.55393 9.17805 0.547883 9.19361 0.543008 9.20974C0.538461 9.22474 0.535133 9.23997 0.531336 9.25516C0.527164 9.27161 0.52257 9.28788 0.519242 9.30466C0.515773 9.32224 0.513711 9.33996 0.51118 9.35763C0.509117 9.37221 0.506305 9.3866 0.504852 9.40136C0.498383 9.46699 0.498383 9.53313 0.504852 9.59875C0.506305 9.61352 0.50907 9.62786 0.51118 9.64249C0.513711 9.66016 0.515773 9.67793 0.519289 9.69546C0.522617 9.71224 0.527211 9.72846 0.531383 9.74491C0.53518 9.7601 0.538508 9.77533 0.543055 9.79033C0.54793 9.80646 0.553977 9.82207 0.559648 9.83782C0.565039 9.85282 0.569961 9.86791 0.576055 9.88268C0.582148 9.89744 0.589367 9.91155 0.596164 9.92594C0.603336 9.94113 0.610086 9.95646 0.618055 9.97136C0.625461 9.98514 0.633852 9.99822 0.641867 10.0116C0.650586 10.0263 0.658836 10.041 0.668352 10.0553C0.678242 10.0701 0.689258 10.084 0.699898 10.0982C0.708805 10.1101 0.717055 10.1223 0.72657 10.1339C0.747336 10.1592 0.769227 10.1835 0.792336 10.2066C0.792523 10.2068 0.792617 10.207 0.792805 10.2071L4.79279 14.2071C5.1833 14.5977 5.81649 14.5977 6.20701 14.2071C6.59752 13.8166 6.59752 13.1834 6.20701 12.7929L3.91412 10.5Z" fill="#175186"/>
<path d="M24.2733 16.1337C24.2829 16.1221 24.2911 16.1098 24.3001 16.0979C24.3107 16.0837 24.3217 16.0698 24.3315 16.0551C24.3411 16.0408 24.3493 16.026 24.358 16.0114C24.366 15.998 24.3744 15.9849 24.3818 15.9712C24.3897 15.9563 24.3965 15.9409 24.4037 15.9257C24.4105 15.9114 24.4176 15.8972 24.4238 15.8825C24.4299 15.8678 24.4348 15.8527 24.4402 15.8377C24.4458 15.8219 24.4519 15.8063 24.4568 15.7902C24.4613 15.7752 24.4646 15.7599 24.4684 15.7448C24.4726 15.7283 24.4772 15.712 24.4805 15.6953C24.484 15.6777 24.4861 15.66 24.4886 15.6423C24.4907 15.6278 24.4935 15.6134 24.495 15.5986C24.5014 15.533 24.5014 15.4668 24.495 15.4012C24.4935 15.3864 24.4908 15.3721 24.4886 15.3575C24.4861 15.3398 24.484 15.322 24.4805 15.3045C24.4772 15.2877 24.4726 15.2715 24.4684 15.2551C24.4646 15.2399 24.4613 15.2246 24.4568 15.2096C24.4519 15.1935 24.4458 15.1779 24.4402 15.1622C24.4348 15.1472 24.4299 15.1321 24.4238 15.1173C24.4177 15.1026 24.4105 15.0885 24.4037 15.0741C24.3965 15.0589 24.3898 15.0435 24.3818 15.0286C24.3744 15.0149 24.366 15.0018 24.358 14.9884C24.3493 14.9738 24.341 14.959 24.3315 14.9447C24.3216 14.93 24.3107 14.9161 24.3001 14.9019C24.2911 14.89 24.2828 14.8778 24.2733 14.8661C24.2527 14.8411 24.231 14.8169 24.208 14.7939C24.2077 14.7936 24.2074 14.7932 24.2071 14.7929L20.2071 10.7929C19.8166 10.4024 19.1834 10.4024 18.7929 10.7929C18.4023 11.1834 18.4023 11.8166 18.7929 12.2071L21.0857 14.5H9.49998C8.9477 14.5 8.5 14.9477 8.5 15.5C8.5 16.0523 8.9477 16.5 9.49998 16.5H21.0857L18.7929 18.7929C18.4023 19.1834 18.4023 19.8166 18.7929 20.2071C19.1834 20.5976 19.8166 20.5976 20.2071 20.2071L24.2071 16.2071C24.2074 16.2067 24.2077 16.2063 24.208 16.206C24.231 16.1829 24.2527 16.1588 24.2733 16.1337Z" fill="#175186"/>
</g>
<defs>
<clipPath id="clip0">
<rect width="24" height="24" fill="white" transform="translate(0.5 0.5)"/>
</clipPath>
</defs>
</svg>
