<svg width="24" height="24" viewBox="0 0 24 24" fill="none" xmlns="http://www.w3.org/2000/svg">
<g clip-path="url(#clip0)">
<path d="M3.41412 9.99997H14.9999C15.5522 9.99997 15.9999 9.55227 15.9999 8.99999C15.9999 8.44771 15.5522 8 14.9999 8H3.41412L5.70701 5.70711C6.09752 5.31659 6.09752 4.6834 5.70701 4.29289C5.31649 3.90237 4.6833 3.90237 4.29279 4.29289L0.292758 8.29288C0.269461 8.31617 0.24743 8.34069 0.226523 8.36619C0.217055 8.37772 0.208805 8.38991 0.199945 8.40177C0.189258 8.41602 0.178242 8.42994 0.168305 8.4448C0.158789 8.459 0.150539 8.47377 0.14182 8.48835C0.133805 8.50175 0.125367 8.51488 0.117961 8.52871C0.109992 8.54357 0.103242 8.55889 0.0961172 8.57408C0.0893203 8.58847 0.0821484 8.60263 0.0760078 8.61739C0.0699141 8.63216 0.0649453 8.64725 0.0596016 8.66225C0.0539297 8.67805 0.0478828 8.69361 0.0430078 8.70974C0.0384609 8.72474 0.0351328 8.73997 0.0313359 8.75516C0.0271641 8.77161 0.0225703 8.78788 0.0192422 8.80466C0.0157734 8.82224 0.0137109 8.83996 0.0111797 8.85763C0.00911719 8.87221 0.00630469 8.8866 0.00485156 8.90136C-0.00161719 8.96699 -0.00161719 9.03313 0.00485156 9.09875C0.00630469 9.11352 0.00907031 9.12786 0.0111797 9.14249C0.0137109 9.16016 0.0157734 9.17793 0.0192891 9.19546C0.0226172 9.21224 0.0272109 9.22846 0.0313828 9.24491C0.0351797 9.2601 0.0385078 9.27533 0.0430547 9.29033C0.0479297 9.30646 0.0539766 9.32207 0.0596484 9.33782C0.0650391 9.35282 0.0699609 9.36791 0.0760547 9.38268C0.0821484 9.39744 0.0893672 9.41155 0.0961641 9.42594C0.103336 9.44113 0.110086 9.45646 0.118055 9.47136C0.125461 9.48514 0.133852 9.49822 0.141867 9.51163C0.150586 9.52625 0.158836 9.54102 0.168352 9.55527C0.178242 9.57008 0.189258 9.58396 0.199898 9.59821C0.208805 9.61011 0.217055 9.6223 0.22657 9.63388C0.247336 9.65919 0.269227 9.68352 0.292336 9.70663C0.292523 9.70682 0.292617 9.707 0.292805 9.70714L4.29279 13.7071C4.6833 14.0977 5.31649 14.0977 5.70701 13.7071C6.09752 13.3166 6.09752 12.6834 5.70701 12.2929L3.41412 9.99997Z" fill="white"/>
<path d="M23.7733 15.6337C23.7829 15.6221 23.7911 15.6098 23.8001 15.5979C23.8107 15.5837 23.8217 15.5698 23.8315 15.5551C23.8411 15.5408 23.8493 15.526 23.858 15.5114C23.866 15.498 23.8744 15.4849 23.8818 15.4712C23.8897 15.4563 23.8965 15.4409 23.9037 15.4257C23.9105 15.4114 23.9176 15.3972 23.9238 15.3825C23.9299 15.3678 23.9348 15.3527 23.9402 15.3377C23.9458 15.3219 23.9519 15.3063 23.9568 15.2902C23.9613 15.2752 23.9646 15.2599 23.9684 15.2448C23.9726 15.2283 23.9772 15.212 23.9805 15.1953C23.984 15.1777 23.9861 15.16 23.9886 15.1423C23.9907 15.1278 23.9935 15.1134 23.995 15.0986C24.0014 15.033 24.0014 14.9668 23.995 14.9012C23.9935 14.8864 23.9908 14.8721 23.9886 14.8575C23.9861 14.8398 23.984 14.822 23.9805 14.8045C23.9772 14.7877 23.9726 14.7715 23.9684 14.7551C23.9646 14.7399 23.9613 14.7246 23.9568 14.7096C23.9519 14.6935 23.9458 14.6779 23.9402 14.6622C23.9348 14.6472 23.9299 14.6321 23.9238 14.6173C23.9177 14.6026 23.9105 14.5885 23.9037 14.5741C23.8965 14.5589 23.8898 14.5435 23.8818 14.5286C23.8744 14.5149 23.866 14.5018 23.858 14.4884C23.8493 14.4738 23.841 14.459 23.8315 14.4447C23.8216 14.43 23.8107 14.4161 23.8001 14.4019C23.7911 14.39 23.7828 14.3778 23.7733 14.3661C23.7527 14.3411 23.731 14.3169 23.708 14.2939C23.7077 14.2936 23.7074 14.2932 23.7071 14.2929L19.7071 10.2929C19.3166 9.90237 18.6834 9.90237 18.2929 10.2929C17.9023 10.6834 17.9023 11.3166 18.2929 11.7071L20.5857 14H8.99998C8.4477 14 8 14.4477 8 15C8 15.5523 8.4477 16 8.99998 16H20.5857L18.2929 18.2929C17.9023 18.6834 17.9023 19.3166 18.2929 19.7071C18.6834 20.0976 19.3166 20.0976 19.7071 19.7071L23.7071 15.7071C23.7074 15.7067 23.7077 15.7063 23.708 15.706C23.731 15.6829 23.7527 15.6588 23.7733 15.6337Z" fill="white"/>
</g>
<defs>
<clipPath id="clip0">
<rect width="24" height="24" fill="white"/>
</clipPath>
</defs>
</svg>
