<svg width="16" height="16" viewBox="0 0 16 16" fill="none" xmlns="http://www.w3.org/2000/svg">
<g clip-path="url(#clip0)">
<path d="M15.6867 1.31123C15.4293 1.07539 15.0635 0.996792 14.7319 1.10607L0.663477 5.74361C0.28007 5.86999 0.0200696 6.21224 0.00110086 6.61546C-0.0178367 7.01871 0.208882 7.38387 0.578695 7.54571L3.40385 8.78178L11.7217 4.16542C11.9248 4.05267 12.1798 4.10536 12.3217 4.2892C12.4636 4.47311 12.4498 4.73308 12.2893 4.90096L7.10373 10.323L6.04023 14.1653L8.59277 12.254L11.6112 14.724C11.787 14.8679 12.0019 14.943 12.221 14.943C12.3253 14.943 12.4306 14.926 12.533 14.8912C12.8507 14.7835 13.0862 14.5242 13.163 14.1977L15.9744 2.24445C16.0543 1.90467 15.9441 1.54707 15.6867 1.31123Z" fill="#9AA2A9"/>
<path d="M4.14062 9.44774L5.11753 13.9788L6.23041 9.95809C6.2511 9.88327 6.29001 9.81474 6.34363 9.75868L9.46955 6.49023L4.14062 9.44774Z" fill="#9AA2A9"/>
</g>
<defs>
<clipPath id="clip0">
<rect width="16" height="16" fill="white"/>
</clipPath>
</defs>
</svg>
