<svg width="25" height="24" viewBox="0 0 25 24" fill="none" xmlns="http://www.w3.org/2000/svg">
<g clip-path="url(#clip0)">
<path d="M0.402344 18.6667C0.402344 19.403 0.999297 20 1.73568 20H7.06901C7.80539 20 8.40234 19.403 8.40234 18.6667C8.40234 17.9303 7.80539 17.3333 7.06901 17.3333H1.73568C0.999297 17.3333 0.402344 17.9303 0.402344 18.6667ZM1.73568 4C0.999298 4 0.402344 4.59695 0.402344 5.33333C0.402344 6.06971 0.999297 6.66667 1.73568 6.66667H23.069C23.8054 6.66667 24.4023 6.06971 24.4023 5.33333C24.4023 4.59695 23.8054 4 23.069 4H1.73568ZM0.402344 12C0.402344 12.7364 0.999297 13.3333 1.73568 13.3333H15.069C15.8054 13.3333 16.4023 12.7364 16.4023 12C16.4023 11.2636 15.8054 10.6667 15.069 10.6667H1.73568C0.999297 10.6667 0.402344 11.2636 0.402344 12Z" fill="#011B41"/>
</g>
<defs>
<clipPath id="clip0">
<rect width="24" height="24" fill="white" transform="translate(0.398438)"/>
</clipPath>
</defs>
</svg>
