<svg width="218" height="222" viewBox="0 0 218 222" fill="none" xmlns="http://www.w3.org/2000/svg">
<path d="M112.109 53.1872V34.4721H127.326V19.1738" stroke="#86878C" stroke-width="4.8" stroke-miterlimit="10"/>
<path d="M133.303 13.1944C133.303 16.5336 130.664 19.1739 127.325 19.1739C123.987 19.1739 121.348 16.5336 121.348 13.1944C121.348 9.85515 123.987 7.21484 127.325 7.21484C130.664 7.21484 133.303 9.93281 133.303 13.1944Z" stroke="#86878C" stroke-width="4.8" stroke-miterlimit="10"/>
<path d="M166.684 99.082H185.393V114.303H200.687" stroke="#86878C" stroke-width="4.8" stroke-miterlimit="10"/>
<path d="M206.665 120.282C203.405 120.282 200.688 117.642 200.688 114.303C200.688 110.964 203.327 108.323 206.665 108.323C210.004 108.323 212.643 110.964 212.643 114.303C212.643 117.642 209.926 120.282 206.665 120.282Z" stroke="#86878C" stroke-width="4.8" stroke-miterlimit="10"/>
<path d="M71.4321 146.607L58.2344 159.887L47.4434 149.092L36.6523 159.887" stroke="#86878C" stroke-width="4.8" stroke-miterlimit="10"/>
<path d="M28.1882 159.886C30.5172 157.556 34.3212 157.556 36.6502 159.886C38.9792 162.216 38.9792 166.021 36.6502 168.35C34.3212 170.68 30.5172 170.68 28.1882 168.35C25.8592 166.021 25.8592 162.216 28.1882 159.886Z" stroke="#86878C" stroke-width="4.8" stroke-miterlimit="10"/>
<path d="M55.9023 44.7988L75.466 66.9308" stroke="#86878C" stroke-width="4.8" stroke-miterlimit="10"/>
<path d="M58.6196 42.1592C58.6196 45.4984 55.9801 48.1387 52.6418 48.1387C49.3036 48.1387 46.6641 45.4984 46.6641 42.1592C46.6641 38.82 49.3036 36.1797 52.6418 36.1797C55.9801 36.1797 58.6196 38.8977 58.6196 42.1592Z" stroke="#86878C" stroke-width="4.8" stroke-miterlimit="10"/>
<path d="M96.3516 13.1934V55.516" stroke="#86878C" stroke-width="4.8" stroke-miterlimit="10"/>
<path d="M102.327 8.37894C102.327 11.7182 99.6871 14.3585 96.3489 14.3585C93.0883 14.3585 90.3711 11.7182 90.3711 8.37894C90.3711 5.11738 93.0106 2.39941 96.3489 2.39941C99.6871 2.39941 102.327 5.03972 102.327 8.37894Z" stroke="#86878C" stroke-width="4.8" stroke-miterlimit="10"/>
<path d="M173.906 32.6074L147.355 65.456" stroke="#86878C" stroke-width="4.8" stroke-miterlimit="10"/>
<path d="M181.593 32.6076C179.497 35.1703 175.771 35.5585 173.209 33.5395C170.647 31.4428 170.259 27.7153 172.355 25.1526C174.451 22.59 178.177 22.2017 180.739 24.2984C183.301 26.2398 183.689 30.045 181.593 32.6076Z" stroke="#86878C" stroke-width="4.8" stroke-miterlimit="10"/>
<path d="M64.9102 179.611L83.4645 157.557" stroke="#86878C" stroke-width="4.8" stroke-miterlimit="10"/>
<path d="M57.2218 179.611C59.3179 177.049 63.0443 176.66 65.6062 178.679C68.1682 180.776 68.5563 184.504 66.4602 187.066C64.3641 189.629 60.6377 190.017 58.0758 187.92C55.5139 185.901 55.1257 182.174 57.2218 179.611Z" stroke="#86878C" stroke-width="4.8" stroke-miterlimit="10"/>
<path d="M172.194 169.515L151.699 149.324" stroke="#86878C" stroke-width="4.8" stroke-miterlimit="10"/>
<path d="M179.881 168.816C177.552 166.408 173.825 166.408 171.419 168.66C169.012 170.99 169.012 174.718 171.263 177.125C173.592 179.455 177.319 179.532 179.725 177.28C182.054 175.028 182.132 171.223 179.881 168.816Z" stroke="#86878C" stroke-width="4.8" stroke-miterlimit="10"/>
<path d="M177.709 148.316L161.949 137.211" stroke="#86878C" stroke-width="4.8" stroke-miterlimit="10"/>
<path d="M185.159 146.53C182.52 144.511 178.794 144.977 176.775 147.618C174.757 150.258 175.222 153.985 177.862 156.004C180.501 158.023 184.228 157.558 186.246 154.917C188.265 152.277 187.799 148.549 185.159 146.53Z" stroke="#86878C" stroke-width="4.8" stroke-miterlimit="10"/>
<path d="M204.108 83.8613H161.875" stroke="#86878C" stroke-width="4.8" stroke-miterlimit="10"/>
<path d="M209.001 89.7637C205.741 89.7637 203.023 87.1234 203.023 83.7842C203.023 80.445 205.663 77.8047 209.001 77.8047C212.339 77.8047 214.979 80.445 214.979 83.7842C214.901 87.1234 212.262 89.7637 209.001 89.7637Z" stroke="#86878C" stroke-width="4.8" stroke-miterlimit="10"/>
<path d="M100.617 208.498V166.176" stroke="#86878C" stroke-width="4.8" stroke-miterlimit="10"/>
<path d="M94.6406 213.314C94.6406 209.974 97.2802 207.334 100.618 207.334C103.957 207.334 106.596 209.974 106.596 213.314C106.596 216.575 103.957 219.293 100.618 219.293C97.3578 219.293 94.6406 216.653 94.6406 213.314Z" stroke="#86878C" stroke-width="4.8" stroke-miterlimit="10"/>
<path d="M121.348 188.541V166.176" stroke="#86878C" stroke-width="4.8" stroke-miterlimit="10"/>
<path d="M115.371 193.356C115.371 190.016 118.011 187.376 121.349 187.376C124.687 187.376 127.327 190.016 127.327 193.356C127.327 196.617 124.687 199.335 121.349 199.335C118.088 199.335 115.371 196.617 115.371 193.356Z" stroke="#86878C" stroke-width="4.8" stroke-miterlimit="10"/>
<path d="M13.5898 117.098H55.9001" stroke="#86878C" stroke-width="4.8" stroke-miterlimit="10"/>
<path d="M8.77856 123.077C12.1168 123.077 14.7563 120.437 14.7563 117.098C14.7563 113.758 12.1168 111.118 8.77856 111.118C5.51795 111.118 2.80078 113.758 2.80078 117.098C2.80078 120.359 5.44032 123.077 8.77856 123.077Z" stroke="#86878C" stroke-width="4.8" stroke-miterlimit="10"/>
<path d="M33.6172 96.3633H55.898" stroke="#86878C" stroke-width="4.8" stroke-miterlimit="10"/>
<path d="M28.8059 102.343C32.1441 102.343 34.7837 99.7025 34.7837 96.3633C34.7837 93.0241 32.1441 90.3838 28.8059 90.3838C25.5453 90.3838 22.8281 93.0241 22.8281 96.3633C22.8281 99.6249 25.4677 102.343 28.8059 102.343Z" stroke="#86878C" stroke-width="4.8" stroke-miterlimit="10"/>
<path d="M168.312 110.885C168.312 143.113 142.228 169.205 110.01 169.205C77.7919 169.205 51.707 143.113 51.707 110.885C51.707 78.6581 77.7919 52.5656 110.01 52.5656C142.15 52.4879 168.312 78.6581 168.312 110.885Z" fill="#2BB673"/>
<path d="M109.932 52.4883C77.7137 52.4883 51.6289 78.5808 51.6289 110.808C51.6289 143.035 77.7137 169.128 109.932 169.128C142.15 169.128 168.234 143.035 168.234 110.808C168.312 78.6584 142.15 52.4883 109.932 52.4883ZM112.726 162.915C84.0021 162.915 60.6344 139.619 60.6344 110.808C60.6344 81.9976 83.9244 58.7008 112.726 58.7008C141.451 58.7008 164.818 81.9976 164.818 110.808C164.818 139.619 141.528 162.915 112.726 162.915Z" fill="#009344"/>
<path d="M148.049 110.885C148.049 131.93 130.969 149.014 109.931 149.014C88.8919 149.014 71.8125 131.93 71.8125 110.885C71.8125 89.8402 88.8919 72.7559 109.931 72.7559C131.047 72.7559 148.049 89.7626 148.049 110.885Z" fill="#2BB673"/>
<path d="M146.963 119.584C143.081 134.494 129.573 145.521 113.425 145.521C94.2496 145.521 78.7229 129.989 78.7229 110.808C78.7229 91.6273 94.2496 76.0961 113.425 76.0961C128.719 76.0961 141.684 86.0361 146.342 99.7812H146.575C141.839 84.0947 127.321 72.6016 110.087 72.6016C89.0481 72.6016 71.9688 89.6859 71.9688 110.731C71.9688 131.776 89.0481 148.86 110.087 148.86C128.175 148.86 143.236 136.28 147.196 119.428H146.963V119.584Z" fill="#009344"/>
<path d="M148.049 110.885C148.049 131.93 130.969 149.014 109.931 149.014C88.8919 149.014 71.8125 131.93 71.8125 110.885C71.8125 89.8402 88.8919 72.7559 109.931 72.7559C131.047 72.7559 148.049 89.7626 148.049 110.885Z" stroke="#86878C" stroke-width="4.8" stroke-miterlimit="10"/>
<path d="M168.313 110.885C168.313 143.113 142.228 169.205 110.01 169.205C77.7919 169.205 51.707 143.113 51.707 110.885C51.707 78.6581 77.7919 52.5656 110.01 52.5656C142.15 52.4879 168.313 78.6581 168.313 110.885Z" stroke="#86878C" stroke-width="4.8" stroke-miterlimit="10"/>
<path d="M143.313 107.236C143.313 120.826 132.289 131.853 118.704 131.853C105.118 131.853 94.0938 120.826 94.0938 107.236C94.0938 93.6463 105.118 82.6191 118.704 82.6191C132.289 82.6191 143.313 93.6463 143.313 107.236Z" fill="#68D9A2"/>
<path d="M98.6094 92.4604C100.856 92.019 105.475 91.6406 109.844 91.6406C115.149 91.6406 118.394 92.1451 121.14 93.8476C123.824 95.2979 125.759 97.9463 125.759 101.414C125.759 104.883 123.762 108.098 119.455 109.675V109.801C123.824 110.999 127.07 114.341 127.07 119.323C127.07 122.854 125.447 125.565 123.075 127.52C120.267 129.79 115.648 131.051 107.971 131.051C103.727 131.051 100.544 130.736 98.6094 130.484V92.4604ZM107.16 107.279H110.031C114.587 107.279 117.021 105.387 117.021 102.486C117.021 99.5227 114.774 98.0094 110.905 98.0094C109.032 98.0094 107.971 98.1355 107.222 98.2616V107.279H107.16ZM107.16 124.493C108.034 124.619 109.032 124.619 110.53 124.619C114.462 124.619 117.957 123.106 117.957 119.07C117.957 115.161 114.462 113.584 110.156 113.584H107.222V124.493H107.16Z" fill="#64666F"/>
<path d="M108.597 86.1523H105.102V93.1365H108.597V86.1523Z" fill="#64666F"/>
<path d="M115.089 86.1523H111.594V93.1365H115.089V86.1523Z" fill="#64666F"/>
<path d="M108.597 127.559H105.102V134.543H108.597V127.559Z" fill="#64666F"/>
<path d="M115.089 127.559H111.594V134.543H115.089V127.559Z" fill="#64666F"/>
<path d="M109.934 159.654V153.597C115.911 153.597 121.967 152.277 127.479 149.792C138.037 144.977 145.956 136.279 149.837 125.252C153.797 114.147 153.098 102.266 147.896 91.7824L153.331 89.0645C159.308 101.024 160.085 114.613 155.582 127.271C151.079 139.852 141.996 149.792 129.963 155.228C123.752 158.101 116.765 159.654 109.934 159.654Z" fill="#68D9A2"/>
<path d="M144.245 85.4917C140.596 80.5217 135.861 76.2506 130.504 73.3773L133.454 68.0967C139.587 71.4359 145.021 76.2506 149.214 81.9971L144.245 85.4917Z" fill="#68D9A2"/>
</svg>
