<svg width="25" height="25" viewBox="0 0 25 25" fill="none" xmlns="http://www.w3.org/2000/svg">
<g id="Iconly/Light/Buy">
<g id="Buy">
<path id="Stroke 1" d="M3.25 3.75L5.33 4.11L6.293 15.583C6.37 16.52 7.153 17.239 8.093 17.236H19.002C19.899 17.238 20.66 16.578 20.787 15.69L21.736 9.132C21.842 8.399 21.333 7.719 20.601 7.613C20.537 7.604 5.664 7.599 5.664 7.599" stroke="#175186" stroke-width="2" stroke-linecap="round" stroke-linejoin="round"/>
<path id="Stroke 3" d="M14.625 11.2949H17.398" stroke="#175186" stroke-width="2" stroke-linecap="round" stroke-linejoin="round"/>
<path id="Stroke 5" fill-rule="evenodd" clip-rule="evenodd" d="M7.65533 20.7031C7.95633 20.7031 8.19933 20.9471 8.19933 21.2471C8.19933 21.5481 7.95633 21.7921 7.65533 21.7921C7.35433 21.7921 7.11133 21.5481 7.11133 21.2471C7.11133 20.9471 7.35433 20.7031 7.65533 20.7031Z" fill="#175186" stroke="#175186" stroke-width="2" stroke-linecap="round" stroke-linejoin="round"/>
<path id="Stroke 7" fill-rule="evenodd" clip-rule="evenodd" d="M18.9346 20.7031C19.2356 20.7031 19.4796 20.9471 19.4796 21.2471C19.4796 21.5481 19.2356 21.7921 18.9346 21.7921C18.6336 21.7921 18.3906 21.5481 18.3906 21.2471C18.3906 20.9471 18.6336 20.7031 18.9346 20.7031Z" fill="#175186" stroke="#175186" stroke-width="2" stroke-linecap="round" stroke-linejoin="round"/>
</g>
</g>
</svg>
