<svg xmlns="http://www.w3.org/2000/svg" width="179.071" height="167.151" viewBox="0 0 179.071 167.151">
  <g id="icon" transform="translate(-298.365 -1210.111)">
    <path id="bg" d="M-959.6,1519.9c32.253-32.648,89.951-23.637,97.532,13.262s-6.534,29.3-15.209,83.009-119.518,15.913-87.176-23.46S-991.857,1552.544-959.6,1519.9Z" transform="translate(2206.244 1300.569) rotate(60)" fill="#E5FFF2"/>
    <path id="Path_1286" data-name="Path 1286" d="M64.839,0H19.677a8.077,8.077,0,0,0-8.065,8.065V91.936A8.074,8.074,0,0,0,19.677,100H64.839A8.074,8.074,0,0,0,72.9,91.936V8.064A8.077,8.077,0,0,0,64.839,0Zm4.838,8.065V69.847c-15.718-9.9-26.425-38.087-28.225-43.092,5.5-7.412,20.085-21.323,22.413-23.53h.973A4.839,4.839,0,0,1,69.677,8.064ZM30.644,82.994l-.022.042c-2.918-2.363-8.8-7.078-12.193-9.5,5.96-13.978,16.8-35.517,20.8-43.165,2.3,6.023,7.758,18.982,15.727,29.66C46.2,65.369,32.755,79.579,30.644,82.994ZM14.839,73.459V28.406c4.185,3.255,11.842,9.038,16,11.108C25.819,49.522,19.007,63.494,14.839,73.459Zm0-60.557V8.064a4.839,4.839,0,0,1,4.838-4.838H59.039c-5.92,5.707-19.132,18.758-22.12,24.382-.657,1.235-2.36,4.528-4.6,8.957-3.337-1.633-11.7-7.815-17.482-12.4V12.9Zm0,79.033V82.964l.007,0c.465-1.608,1.255-3.76,2.268-6.265,3.79,2.763,10.132,7.887,12.335,9.677a53.887,53.887,0,0,0-.843,10.4H19.677A4.839,4.839,0,0,1,14.839,91.936Zm54.838-8.065v8.065a4.839,4.839,0,0,1-4.838,4.838h-32.9c-.007-4.365.365-10.13,1.538-12.025C35.4,81.636,49.024,67.386,57.034,62.686A43.943,43.943,0,0,0,69.677,73.709V83.871Z" transform="translate(345.389 1244.001)" fill="#2BB673"/>
  </g>
</svg>
