<svg width="32" height="33" viewBox="0 0 32 33" fill="none" xmlns="http://www.w3.org/2000/svg">
<path d="M15.9994 3.2666C13.3623 3.2666 10.7844 4.04859 8.59175 5.51367C6.3991 6.97876 4.69013 9.06114 3.68096 11.4975C2.67179 13.9338 2.40775 16.6147 2.92222 19.2011C3.43669 21.7876 4.70656 24.1633 6.57126 26.028C8.43597 27.8927 10.8117 29.1626 13.3982 29.6771C15.9846 30.1915 18.6655 29.9275 21.1018 28.9183C23.5382 27.9092 25.6205 26.2002 27.0856 24.0075C28.5507 21.8149 29.3327 19.237 29.3327 16.5999C29.3327 14.849 28.9878 13.1152 28.3177 11.4975C27.6477 9.87981 26.6656 8.40996 25.4274 7.17184C24.1893 5.93373 22.7195 4.9516 21.1018 4.28154C19.4841 3.61148 17.7503 3.2666 15.9994 3.2666ZM11.3327 9.2666C11.8601 9.2666 12.3757 9.423 12.8142 9.71602C13.2527 10.009 13.5945 10.4255 13.7964 10.9128C13.9982 11.4 14.051 11.9362 13.9481 12.4535C13.8452 12.9708 13.5912 13.4459 13.2183 13.8189C12.8454 14.1918 12.3702 14.4458 11.8529 14.5487C11.3356 14.6516 10.7995 14.5988 10.3122 14.3969C9.82493 14.1951 9.40845 13.8533 9.11544 13.4148C8.82242 12.9763 8.66602 12.4607 8.66602 11.9333C8.66602 11.226 8.94697 10.5477 9.44707 10.0477C9.94717 9.54755 10.6254 9.2666 11.3327 9.2666ZM11.6087 22.8759C11.4857 23.0033 11.3386 23.1049 11.1759 23.1747C11.0132 23.2446 10.8383 23.2814 10.6612 23.2829C10.4842 23.2845 10.3086 23.2507 10.1447 23.1837C9.98089 23.1167 9.83202 23.0177 9.70683 22.8925C9.58164 22.7673 9.48263 22.6184 9.41559 22.4545C9.34855 22.2907 9.31482 22.1151 9.31635 21.9381C9.31789 21.761 9.35467 21.5861 9.42455 21.4234C9.49443 21.2607 9.59601 21.1136 9.72336 20.9906L20.39 10.3239C20.513 10.1966 20.6601 10.095 20.8228 10.0251C20.9855 9.95525 21.1604 9.91847 21.3375 9.91693C21.5145 9.9154 21.6901 9.94913 21.854 10.0162C22.0178 10.0832 22.1667 10.1822 22.2919 10.3074C22.4171 10.4326 22.5161 10.5815 22.5831 10.7453C22.6502 10.9092 22.6839 11.0848 22.6824 11.2618C22.6808 11.4388 22.644 11.6138 22.5742 11.7765C22.5043 11.9391 22.4027 12.0863 22.2754 12.2093L11.6087 22.8759ZM20.666 23.9333C20.1386 23.9333 19.623 23.7769 19.1845 23.4839C18.746 23.1908 18.4042 22.7744 18.2023 22.2871C18.0005 21.7998 17.9477 21.2636 18.0506 20.7464C18.1535 20.2291 18.4075 19.7539 18.7804 19.381C19.1533 19.008 19.6285 18.7541 20.1458 18.6512C20.6631 18.5483 21.1992 18.6011 21.6865 18.8029C22.1738 19.0048 22.5903 19.3465 22.8833 19.7851C23.1763 20.2236 23.3327 20.7392 23.3327 21.2666C23.3327 21.9738 23.0517 22.6521 22.5516 23.1522C22.0515 23.6523 21.3733 23.9333 20.666 23.9333Z" fill="#2BB673"/>
</svg>
