<svg xmlns="http://www.w3.org/2000/svg" width="80" height="74.157" viewBox="0 0 80 74.157">
  <path id="Path_406" data-name="Path 406" d="M78.211,50.12a37.825,37.825,0,0,0,1.752-11.092A38.2,38.2,0,0,0,68.046,11.412,40.426,40.426,0,0,0,40,0C18.464,0,.035,17.425.035,39.028A37.825,37.825,0,0,0,1.788,50.122,4.707,4.707,0,0,0,.157,55.015L4.2,70.092a4.681,4.681,0,0,0,5.735,3.314l4.783-1.282A4.693,4.693,0,0,0,19.789,74l6.032-1.617a4.688,4.688,0,0,0,3.311-5.735L23.477,45.535a4.689,4.689,0,0,0-5.737-3.311l-6.03,1.616a4.654,4.654,0,0,0-1.69.849,27.541,27.541,0,0,1-.58-4.318,4.592,4.592,0,0,0,3.21-3.939C13.937,23.23,26.207,12.489,40,12.489S66.061,23.23,67.349,36.432a4.591,4.591,0,0,0,3.21,3.939,27.541,27.541,0,0,1-.58,4.318,4.659,4.659,0,0,0-1.69-.849l-6.03-1.616a4.689,4.689,0,0,0-5.737,3.311L50.866,66.645a4.688,4.688,0,0,0,3.311,5.735L60.21,74a4.692,4.692,0,0,0,5.071-1.874l4.785,1.283A4.682,4.682,0,0,0,75.8,70.093l4.042-15.081A4.71,4.71,0,0,0,78.211,50.12ZM12.517,46.855l6.031-1.616a1.563,1.563,0,0,1,1.913,1.1l5.656,21.111a1.563,1.563,0,0,1-1.1,1.912l-1.508.4L20.678,59.213a1.561,1.561,0,1,0-3.016.808L20.49,70.577l-1.508.4a1.565,1.565,0,0,1-1.912-1.1h0l-5.657-21.11A1.562,1.562,0,0,1,12.517,46.855ZM13.65,69.176,9.127,70.389a1.561,1.561,0,0,1-1.913-1.1L3.173,54.208a1.568,1.568,0,0,1,1.005-1.882c.036-.013.074-.024.1-.031l4.459-1.2C9.193,52.236,8.361,49.631,13.65,69.176ZM3.2,40.588H6.324A31.78,31.78,0,0,0,7.7,48.146l-3,.805A35.61,35.61,0,0,1,3.2,40.588Zm67.258-4.46C68.981,21,55.253,9.366,40,9.366S11.017,21.01,9.542,36.128A1.527,1.527,0,0,1,8.01,37.466H3.2C4.069,18.694,20.565,3.122,40,3.122S75.93,18.694,76.8,37.466H71.987A1.527,1.527,0,0,1,70.456,36.128Zm6.343,4.46a35.64,35.64,0,0,1-1.5,8.362l-3-.8a31.8,31.8,0,0,0,1.372-7.558ZM62.929,69.876h0a1.564,1.564,0,0,1-1.91,1.105l-1.509-.4,2.828-10.556a1.561,1.561,0,1,0-3.016-.808L56.493,69.769l-1.508-.4a1.563,1.563,0,0,1-1.1-1.911l5.656-21.111a1.56,1.56,0,0,1,1.913-1.1l6.03,1.616a1.563,1.563,0,0,1,1.105,1.911Zm13.9-15.67-4.042,15.08a1.561,1.561,0,0,1-1.911,1.1l-4.524-1.213c5.291-19.553,4.457-16.94,4.912-18.077,4.75,1.274,4.473,1.2,4.571,1.23A1.564,1.564,0,0,1,76.825,54.206Zm0,0" transform="translate(0.001)" fill="#2BB673"/>
</svg>
