<svg xmlns="http://www.w3.org/2000/svg" width="117" height="80" viewBox="0 0 117 80">
  <g id="icon" transform="translate(0 -74.275)">
    <path id="Path_170" data-name="Path 170" d="M134.945,96.775H44.637a2.9,2.9,0,0,0-2.893,2.9v53.52a2.9,2.9,0,0,0,2.893,2.9h90.308a2.9,2.9,0,0,0,2.892-2.9V99.675A2.9,2.9,0,0,0,134.945,96.775Zm.388,56.419a.389.389,0,0,1-.388.389H44.637a.389.389,0,0,1-.388-.389V99.675a.389.389,0,0,1,.388-.389h90.308a.389.389,0,0,1,.388.389Z" transform="translate(-31.29 -16.851)" fill="#2BB673"/>
    <path id="Path_171" data-name="Path 171" d="M115.122,141.126h-2.941V81.447a7.171,7.171,0,0,0-7.154-7.172H11.973a7.171,7.171,0,0,0-7.154,7.172v59.679H1.878A1.88,1.88,0,0,0,0,143.009v5.173a6.093,6.093,0,0,0,6.078,6.094H110.922A6.093,6.093,0,0,0,117,148.181v-5.173A1.88,1.88,0,0,0,115.122,141.126ZM8.575,81.447a3.406,3.406,0,0,1,3.4-3.406h93.054a3.406,3.406,0,0,1,3.4,3.406v59.679H8.575Zm44.415,63.445H64.009v.985a.8.8,0,0,1-.8.8H53.788a.8.8,0,0,1-.8-.8v-.985Zm60.253,3.29a2.327,2.327,0,0,1-2.322,2.328H6.079a2.328,2.328,0,0,1-2.322-2.328v-3.29h46.73v.985a3.309,3.309,0,0,0,3.3,3.31h9.424a3.309,3.309,0,0,0,3.3-3.31v-.985h46.73v3.29Z" transform="translate(0)" fill="#2BB673"/>
  </g>
</svg>
