<svg xmlns="http://www.w3.org/2000/svg" width="179.071" height="167.151" viewBox="0 0 179.071 167.151">
  <g id="icon" transform="translate(-963.365 -1210.111)">
    <path id="bg" d="M-959.6,1519.9c32.253-32.648,89.951-23.637,97.532,13.262s-6.534,29.3-15.209,83.009-119.518,15.913-87.176-23.46S-991.857,1552.544-959.6,1519.9Z" transform="translate(2871.244 1300.569) rotate(60)" fill="#E5FFF2"/>
    <g id="Group_1321" data-name="Group 1321" transform="translate(1007.361 1244)">
      <path id="Path_1291" data-name="Path 1291" d="M84.406,59.39c0-.608-.1-1.218-.1-1.827-.1-.712-.1-1.32-.2-1.93a20.692,20.692,0,0,0-.4-2.437c-.2-.913-.305-1.623-.407-2.233l-.1-.405v-.1a52.742,52.742,0,0,0-7.412-16.65A151.518,151.518,0,0,0,65.421,20.1c-3.248-4.06-5.888-7.512-8.02-10.355C52.731,3.452,50.192,0,46.334,0c-4.263,0-8.122,4.67-16.447,15.025-1.42,1.725-2.842,3.553-4.162,5.177A142.326,142.326,0,0,0,15.269,34.11,54.5,54.5,0,0,0,7.857,51.065c-.1.61-.305,1.32-.407,2.233-.1.712-.3,1.523-.4,2.335v.1l-.305,2.437a16.445,16.445,0,0,0-.1,2.335v.508A38.72,38.72,0,0,0,9.584,75.938a41.344,41.344,0,0,0,8.425,12.69A39.154,39.154,0,0,0,45.624,100a38.751,38.751,0,0,0,14.923-2.945,41.329,41.329,0,0,0,12.69-8.427,38.525,38.525,0,0,0,8.427-12.69,44.434,44.434,0,0,0,2.843-15.127V60.1A1.5,1.5,0,0,0,84.406,59.39ZM77.1,73.908A34.315,34.315,0,0,1,58.619,92.385a35.056,35.056,0,0,1-26.193,0A34.33,34.33,0,0,1,13.949,73.908a32.91,32.91,0,0,1-2.538-12.692v-.608c0-.71.1-1.422.1-2.233.1-.812.1-1.523.2-2.132v-.1l.305-2.132a12.836,12.836,0,0,1,.4-1.93,50.482,50.482,0,0,1,6.7-15.432,140.94,140.94,0,0,1,10.153-13.4c1.725-2.132,3.045-3.655,4.162-5.178,7.412-9.035,10.762-13.2,12.692-13.2,1.42,0,3.452,2.742,7.207,7.818,2.133,2.842,4.67,6.4,8.122,10.558a140.875,140.875,0,0,1,10.052,13.2,49.8,49.8,0,0,1,6.7,15.127v.1l.1.3a16.491,16.491,0,0,1,.407,1.93c.1.71.2,1.42.305,2.233.1.608.1,1.218.2,1.827,0,.508.1,1.117.1,1.828v1.015A29.717,29.717,0,0,1,77.1,73.908Z" fill="#2BB673"/>
      <path id="Path_1292" data-name="Path 1292" d="M39.715,57.806a19.84,19.84,0,0,1-13.807-5.685,19.408,19.408,0,0,1-5.685-13.807,2.437,2.437,0,1,0-4.873,0,24.666,24.666,0,0,0,7.107,17.258A24.311,24.311,0,0,0,39.715,62.68a2.437,2.437,0,0,0,0-4.873Z" transform="translate(5.807 23.919)" fill="#2BB673"/>
    </g>
  </g>
</svg>
