<svg xmlns="http://www.w3.org/2000/svg" width="179.071" height="167.151" viewBox="0 0 179.071 167.151">
  <g id="icon" transform="translate(-630.365 -1210.111)">
    <path id="bg" d="M-959.6,1519.9c32.253-32.648,89.951-23.637,97.532,13.262s-6.534,29.3-15.209,83.009-119.518,15.913-87.176-23.46S-991.857,1552.544-959.6,1519.9Z" transform="translate(2538.244 1300.569) rotate(60)" fill="#E5FFF2"/>
    <g id="icon-2" data-name="icon" transform="translate(670 1243.961)">
      <path id="Path_264" data-name="Path 264" d="M96.016,32.039h3.333v3.333H96.016Zm0,0" transform="translate(-76.012 -25.333)" fill="#2BB673"/>
      <path id="Path_265" data-name="Path 265" d="M128.016,32.039h3.333v3.333h-3.333Zm0,0" transform="translate(-101.346 -25.333)" fill="#2BB673"/>
      <path id="Path_266" data-name="Path 266" d="M160.016,32.039h3.333v3.333h-3.333Zm0,0" transform="translate(-126.679 -25.333)" fill="#2BB673"/>
      <path id="Path_284" data-name="Path 284" d="M8,312.039H21.333v3.333H8Zm0,0" transform="translate(-6.333 -247)" fill="#2BB673" opacity="0.2"/>
      <path id="Path_286" data-name="Path 286" d="M391.333,64.372A8.344,8.344,0,0,0,383,56.039h-1.667v3.333H383a5,5,0,0,1,5,5v46.667H368v3.333h20l.011,3.333a4.985,4.985,0,0,1-1.261,3.32l2.49,2.217a8.3,8.3,0,0,0,2.109-5.537l-.016-5Zm0,0" transform="translate(-291.333 -44.333)" fill="#2BB673"/>
      <path id="Path_287" data-name="Path 287" d="M8.333,126.039H39.289l-5.456,15h-5.5v3.333h25v-3.333H37.38l5.453-15H60v-3.333H8.333a5,5,0,0,1-5-5v-3.333H60v-3.333H3.333V64.372a5,5,0,0,1,5-5H10V56.039H8.333A8.344,8.344,0,0,0,0,64.372v53.333A8.343,8.343,0,0,0,8.333,126.039Zm0,0" transform="translate(0 -44.333)" fill="#2BB673"/>
      <path id="Path_288" data-name="Path 288" d="M137.388,63.372v-55A8.343,8.343,0,0,0,129.055.039H72.388a8.344,8.344,0,0,0-8.333,8.333v55h3.333v-55a5,5,0,0,1,5-5h56.667a5,5,0,0,1,5,5v55Zm0,0" transform="translate(-50.71)" fill="#2BB673"/>
      <path id="Path_289" data-name="Path 289" d="M96.016,32.039h3.333v3.333H96.016Zm0,0" transform="translate(-76.012 -25.333)" fill="#2BB673"/>
      <path id="Path_290" data-name="Path 290" d="M128.016,32.039h3.333v3.333h-3.333Zm0,0" transform="translate(-101.346 -25.333)" fill="#2BB673"/>
      <path id="Path_291" data-name="Path 291" d="M160.016,32.039h3.333v3.333h-3.333Zm0,0" transform="translate(-126.679 -25.333)" fill="#2BB673"/>
      <path id="Path_292" data-name="Path 292" d="M136,168.039h36.666v3.333H136Zm0,0" transform="translate(-116 -153.833)" fill="#2BB673"/>
      <path id="Path_375" data-name="Path 375" d="M136,168.039h36.666v3.333H136Zm0,0" transform="translate(-116 -115.5)" fill="#2BB673"/>
      <path id="Path_371" data-name="Path 371" d="M136,168.039h36.666v3.333H136Zm0,0" transform="translate(-116 -138.833)" fill="#2BB673"/>
      <path id="Path_370" data-name="Path 370" d="M136,168.039h19.539v3.333H136Zm0,0" transform="translate(-116 -146.333)" fill="#2BB673"/>
      <path id="Path_374" data-name="Path 374" d="M136,168.039h19.539v3.333H136Zm0,0" transform="translate(-116 -131.333)" fill="#2BB673"/>
      <path id="Path_368" data-name="Path 368" d="M136,168.039h18.8v3.333H136Zm0,0" transform="translate(-75.167 -153.833)" fill="#2BB673"/>
      <path id="Path_376" data-name="Path 376" d="M136,168.039h18.8v3.333H136Zm0,0" transform="translate(-75.167 -115.5)" fill="#2BB673"/>
      <path id="Path_372" data-name="Path 372" d="M136,168.039h18.8v3.333H136Zm0,0" transform="translate(-75.167 -138.833)" fill="#2BB673"/>
      <path id="Path_369" data-name="Path 369" d="M136,168.039h35.289v3.333H136Zm0,0" transform="translate(-91.653 -146.333)" fill="#2BB673"/>
      <path id="Path_373" data-name="Path 373" d="M136,168.039h35.289v3.333H136Zm0,0" transform="translate(-91.653 -131.333)" fill="#2BB673"/>
      <path id="Path_298" data-name="Path 298" d="M285.514,309.439a5.016,5.016,0,0,0-4.065,1.124c-.033.026-.065.055-.1.085a4.989,4.989,0,0,0-6.667,0,5.192,5.192,0,0,0-5-.992v-8.617a5,5,0,0,0-10,0v20.39l-4.423-2.653a4.577,4.577,0,0,0-4.434-.167l-.264.13a4.612,4.612,0,0,0-.616,7.875l10.435,7.451a1.661,1.661,0,0,0,.965.307h26.667a1.667,1.667,0,0,0,1.667-1.667V314.551A5.14,5.14,0,0,0,285.514,309.439Zm.833,21.6H261.881l-10-7.141a1.277,1.277,0,0,1,.167-2.182l.262-.13a1.262,1.262,0,0,1,1.225.046l6.948,4.167a1.667,1.667,0,0,0,2.532-1.427V301.039a1.667,1.667,0,1,1,3.333,0v13.333a1.667,1.667,0,1,0,3.333,0,1.667,1.667,0,0,1,3.333,0,1.667,1.667,0,1,0,3.333,0,1.667,1.667,0,1,1,3.333,0,1.667,1.667,0,1,0,3.333,0,1.666,1.666,0,0,1,1.958-1.641,1.8,1.8,0,0,1,1.375,1.82Zm0,0" transform="translate(-196.348 -234.333)" fill="#2BB673"/>
    </g>
  </g>
</svg>
