<?xml version="1.0" encoding="UTF-8"?>
<svg xmlns="http://www.w3.org/2000/svg" xmlns:xlink="http://www.w3.org/1999/xlink" width="133pt" height="125pt" viewBox="0 0 133 125" version="1.1">
<g id="surface1">
<path style=" stroke:none;fill-rule:nonzero;fill:#E5FFF2;fill-opacity:1;" d="M 83.011719 14.503906 C 115.960938 23.175781 131.546875 63.921875 110.695312 82.609375 C 89.839844 101.300781 89.46875 89.339844 51.695312 103.769531 C 13.921875 118.195312 -2.851562 32.371094 34.402344 38.578125 C 71.65625 44.78125 50.0625 5.832031 83.011719 14.503906 Z M 83.011719 14.503906 "/>
<path style=" stroke:none;fill-rule:nonzero;fill:#2BB673;fill-opacity:1;" d="M 103.570312 85.300781 L 103.421875 84.554688 C 102.234375 79.320312 97.855469 75.433594 92.585938 74.910156 L 92.585938 71.472656 L 90.285156 71.472656 L 89.320312 57.941406 L 92.585938 57.941406 L 92.585938 48.96875 L 88.132812 48.96875 C 86.574219 48.96875 85.089844 49.867188 84.273438 51.210938 L 83.011719 51.210938 C 82.714844 49.265625 81.082031 47.847656 79.152344 47.847656 L 76.257812 47.847656 L 73.585938 45.15625 L 73.585938 44.484375 C 73.585938 42.761719 72.769531 41.191406 71.507812 40.148438 C 74.699219 38.203125 75.664062 34.089844 73.734375 30.875 C 71.804688 27.660156 67.722656 26.691406 64.535156 28.632812 C 61.34375 30.578125 60.378906 34.6875 62.308594 37.902344 C 62.902344 38.800781 63.644531 39.625 64.535156 40.148438 C 63.199219 41.191406 62.457031 42.761719 62.457031 44.484375 L 62.457031 58.835938 C 62.457031 60.183594 62.902344 61.453125 63.71875 62.425781 L 51.695312 62.425781 L 51.695312 45.007812 L 31.0625 45.007812 L 31.0625 64.742188 L 41.082031 64.742188 C 33.957031 68.332031 29.429688 75.734375 29.429688 83.730469 L 29.429688 87.246094 L 32.695312 87.246094 C 32.695312 92.851562 37.222656 97.339844 42.714844 97.339844 C 48.28125 97.339844 52.734375 92.777344 52.734375 87.246094 L 79.078125 87.246094 C 79.078125 87.695312 79.078125 88.066406 79.152344 88.515625 L 79.226562 89.5625 L 81.527344 89.5625 C 82.714844 95.019531 88.132812 98.460938 93.550781 97.1875 C 98.152344 96.140625 101.417969 92.03125 101.417969 87.320312 C 101.417969 87.171875 101.417969 86.945312 101.417969 86.796875 Z M 88.058594 51.210938 L 90.285156 51.210938 L 90.285156 55.695312 L 88.058594 55.695312 C 86.796875 55.695312 85.832031 54.726562 85.832031 53.453125 C 85.832031 52.183594 86.871094 51.210938 88.058594 51.210938 Z M 85.832031 57.339844 C 86.203125 57.566406 86.574219 57.714844 87.019531 57.789062 L 88.132812 73.714844 L 90.285156 73.714844 L 90.285156 74.910156 C 89.097656 74.984375 87.984375 75.285156 86.871094 75.734375 L 85.832031 57.941406 Z M 82.714844 53.453125 L 83.679688 53.453125 L 83.679688 57.941406 L 84.792969 76.855469 C 83.753906 77.527344 82.863281 78.347656 82.046875 79.320312 L 80.339844 79.320312 L 80.339844 61.304688 C 80.339844 58.835938 78.335938 56.816406 75.886719 56.816406 L 73.660156 56.816406 L 73.660156 55.25 C 74.402344 55.546875 75.21875 55.695312 75.960938 55.695312 L 79.226562 55.695312 C 80.636719 55.695312 82.046875 54.800781 82.714844 53.453125 Z M 74.699219 72.59375 L 74.699219 64.667969 C 74.699219 63.398438 73.734375 62.425781 72.472656 62.425781 L 68.242188 62.425781 C 66.242188 62.425781 64.683594 60.78125 64.683594 58.835938 L 64.683594 56.816406 L 71.359375 56.816406 L 71.359375 59.0625 L 75.8125 59.0625 C 77.074219 59.0625 78.039062 60.109375 78.039062 61.304688 L 78.039062 72.519531 Z M 78.039062 74.835938 L 78.039062 79.320312 L 74.699219 79.320312 L 74.699219 74.835938 Z M 72.472656 64.667969 L 72.472656 79.320312 L 66.90625 79.320312 C 63.792969 79.394531 61.269531 76.929688 61.195312 73.863281 C 61.121094 70.722656 63.570312 68.183594 66.609375 68.105469 C 66.683594 68.105469 66.832031 68.105469 66.90625 68.105469 L 68.019531 68.105469 L 68.019531 64.742188 C 68.09375 64.742188 68.167969 64.742188 68.242188 64.742188 L 72.472656 64.742188 Z M 74.699219 49.417969 L 75.367188 50.089844 L 79.152344 50.089844 C 80.042969 50.089844 80.859375 50.835938 80.859375 51.808594 C 80.859375 52.78125 80.117188 53.527344 79.152344 53.527344 L 75.886719 53.527344 C 74.699219 53.527344 73.585938 53.082031 72.695312 52.183594 L 72.324219 51.808594 Z M 73.140625 47.847656 L 70.839844 50.164062 L 67.722656 47.023438 L 66.09375 48.59375 L 71.136719 53.679688 C 71.210938 53.753906 71.285156 53.828125 71.359375 53.828125 L 71.359375 54.574219 L 64.683594 54.574219 L 64.683594 44.484375 C 64.683594 42.613281 66.167969 41.117188 68.019531 41.117188 C 69.207031 41.117188 70.320312 41.714844 70.914062 42.761719 L 69.429688 44.109375 Z M 63.496094 34.316406 C 63.496094 31.847656 65.5 29.828125 67.945312 29.828125 C 70.394531 29.828125 72.398438 31.847656 72.398438 34.316406 C 72.398438 36.78125 70.394531 38.800781 67.945312 38.800781 C 65.5 38.800781 63.496094 36.78125 63.496094 34.316406 Z M 40.265625 47.25 L 42.492188 47.25 L 42.492188 52.035156 L 40.265625 52.035156 Z M 33.289062 62.425781 L 33.289062 47.25 L 38.039062 47.25 L 38.039062 54.277344 L 44.71875 54.277344 L 44.71875 47.25 L 49.46875 47.25 L 49.46875 62.425781 Z M 42.789062 95.09375 C 38.484375 95.09375 34.996094 91.582031 34.996094 87.246094 L 38.335938 87.246094 C 38.410156 89.714844 40.488281 91.65625 42.9375 91.582031 C 45.3125 91.507812 47.167969 89.5625 47.242188 87.246094 L 50.582031 87.246094 C 50.582031 91.582031 47.09375 95.09375 42.789062 95.09375 Z M 40.5625 87.171875 L 45.015625 87.171875 C 45.089844 88.441406 44.125 89.488281 42.863281 89.488281 C 41.601562 89.5625 40.5625 88.589844 40.5625 87.320312 C 40.5625 87.320312 40.5625 87.246094 40.5625 87.171875 Z M 79.375 84.929688 L 31.582031 84.929688 L 31.582031 83.730469 C 31.582031 83.359375 31.582031 83.058594 31.65625 82.683594 L 53.921875 82.683594 L 53.921875 80.441406 L 31.878906 80.441406 C 32.027344 79.546875 32.25 78.574219 32.546875 77.675781 C 35.144531 69.902344 42.34375 64.667969 50.507812 64.667969 L 65.796875 64.667969 L 65.796875 65.863281 C 61.492188 66.460938 58.597656 70.5 59.191406 74.835938 C 59.785156 78.722656 63.050781 81.5625 66.90625 81.5625 L 80.5625 81.5625 C 79.96875 82.609375 79.597656 83.808594 79.375 84.929688 Z M 91.472656 95.09375 C 87.984375 95.09375 84.941406 92.777344 83.976562 89.488281 L 85.015625 89.488281 L 87.390625 89.039062 C 88.355469 91.359375 90.953125 92.40625 93.179688 91.433594 C 94.8125 90.757812 95.925781 89.113281 95.925781 87.320312 L 99.339844 87.320312 C 99.265625 91.582031 95.777344 95.09375 91.472656 95.09375 Z M 89.617188 88.515625 L 93.625 87.695312 C 93.402344 88.890625 92.214844 89.636719 91.027344 89.414062 C 90.433594 89.265625 89.988281 88.964844 89.617188 88.515625 Z M 100.007812 84.929688 L 95.628906 84.929688 L 84.570312 87.171875 L 81.304688 87.171875 C 81.304688 81.5625 85.757812 77.078125 91.324219 77.078125 C 93.996094 77.078125 96.59375 78.199219 98.523438 80.070312 L 97.855469 80.441406 L 94.515625 80.441406 L 84.496094 82.683594 L 84.941406 84.851562 L 94.886719 82.609375 L 98.375 82.609375 L 99.933594 81.789062 C 100.378906 82.535156 100.75 83.285156 100.972656 84.179688 Z M 100.007812 84.929688 "/>
</g>
</svg>
