<svg xmlns="http://www.w3.org/2000/svg" width="179" height="167" viewBox="0 0 179 167">
  <g id="timer-icon" transform="translate(-2930 -2060)">
    <rect id="Rectangle_296" data-name="Rectangle 296" width="179" height="167" transform="translate(2930 2060)" fill="none"/>
    <g id="icon" transform="translate(1966.62 849.916)">
      <path id="bg" d="M10.758,20.105c32.226-32.628,89.859-23.637,97.423,13.229s-6.533,29.277-15.21,82.943S-26.422,132.2,5.893,92.857-21.468,52.734,10.758,20.105Z" transform="translate(1087.128 1210.084) rotate(60)" fill="#E5FFF2"/>
      <g id="Group_1331" data-name="Group 1331" transform="translate(1006.642 1244.176)">
        <g id="Group_1331-2" data-name="Group 1331" transform="translate(0)">
          <path id="Path_1297" data-name="Path 1297" d="M34.111,48.3A5.854,5.854,0,0,0,38.4,45.9L53.8,24.609a1.646,1.646,0,0,0-2.3-2.3l-21.3,15.407a5.862,5.862,0,0,0,3.445,10.6C33.8,48.32,33.957,48.314,34.111,48.3Zm-3.02-6.044a2.567,2.567,0,0,1,1.048-1.879l12.991-9.4L35.735,43.969a2.571,2.571,0,0,1-4.644-1.711Z" transform="translate(14.978 14.191)" fill="#2BB673"/>
          <path id="Path_1298" data-name="Path 1298" d="M73.541,32.183c-.016-.035-.016-.071-.035-.105s-.051-.051-.072-.082a44.721,44.721,0,0,0-5.865-7.911L71.1,20.553l2.326,2.326,6.978-6.98L73.429,8.921,66.449,15.9l2.328,2.328-3.534,3.532a44.67,44.67,0,0,0-7.911-5.866c-.031-.021-.049-.053-.082-.072s-.071-.018-.105-.036a44.1,44.1,0,0,0-16.9-5.6V8.225h2.468a4.113,4.113,0,1,0,0-8.225H27.906a4.113,4.113,0,0,0,0,8.225h2.468v1.9a45.246,45.246,0,0,0-5.3.88,1.645,1.645,0,0,0,.735,3.206,41.835,41.835,0,0,1,4.573-.785l1.765-.137c.54-.041,1.036-.071,1.52-.094V16.45a1.645,1.645,0,1,0,3.29,0V13.21a40.805,40.805,0,0,1,17.2,4.68L52.532,20.7a1.645,1.645,0,1,0,2.849,1.645L57,19.541A41.445,41.445,0,0,1,69.784,32.327l-2.8,1.617a1.646,1.646,0,0,0,1.648,2.849l2.808-1.622a40.829,40.829,0,0,1,4.687,17.469H72.876a1.645,1.645,0,0,0,0,3.29h3.249A40.829,40.829,0,0,1,71.439,73.4l-2.808-1.622a1.645,1.645,0,1,0-1.645,2.849l2.8,1.617A41.444,41.444,0,0,1,57,89.028l-1.617-2.8a1.645,1.645,0,0,0-2.849,1.645l1.622,2.808a40.805,40.805,0,0,1-17.2,4.68V92.122a1.645,1.645,0,0,0-3.29,0v3.251a41.513,41.513,0,0,1-7.857-1.015,1.645,1.645,0,1,0-.735,3.206A44.451,44.451,0,0,0,35.041,98.7c.081,0,.158,0,.239-.007.012,0,.02.007.03.007s.025-.008.038-.008a44.128,44.128,0,0,0,21.746-5.878,1.4,1.4,0,0,0,.155-.064c.033-.02.051-.051.082-.072A44.741,44.741,0,0,0,73.406,76.622a1.558,1.558,0,0,0,.1-.128c.02-.035.018-.071.035-.105a44.244,44.244,0,0,0,0-44.205Zm-.114-18.61L75.754,15.9l-2.326,2.328L71.1,15.9ZM33.664,9.9V4.935H27.906a.823.823,0,0,1,0-1.645H42.711a.823.823,0,1,1,0,1.645H36.954V9.9c-.572-.023-1.119-.035-1.645-.035-.046,0-.1,0-.145,0s-.082,0-.123,0c-.27,0-.54.018-.809.023C34.04,9.9,33.861,9.9,33.664,9.9Z" transform="translate(12.397)" fill="#2BB673"/>
          <path id="Path_1299" data-name="Path 1299" d="M25.663,14H17.438a1.645,1.645,0,0,0,0,3.29h8.225a1.645,1.645,0,1,0,0-3.29Z" transform="translate(7.237 9.03)" fill="#2BB673"/>
          <path id="Path_1300" data-name="Path 1300" d="M28.888,21H12.438a1.645,1.645,0,1,0,0,3.29h16.45a1.645,1.645,0,1,0,0-3.29Z" transform="translate(4.012 13.546)" fill="#2BB673"/>
          <path id="Path_1301" data-name="Path 1301" d="M32.114,28H7.438a1.645,1.645,0,0,0,0,3.29H32.114a1.645,1.645,0,0,0,0-3.29Z" transform="translate(0.787 18.061)" fill="#2BB673"/>
          <path id="Path_1302" data-name="Path 1302" d="M34.694,35H3.438a1.645,1.645,0,1,0,0,3.29H34.694a1.645,1.645,0,1,0,0-3.29Z" transform="translate(-1.793 22.576)" fill="#2BB673"/>
        </g>
        <g id="Group_1332" data-name="Group 1332" transform="translate(4.796 69.559)">
          <path id="Path_1303" data-name="Path 1303" d="M12.8,54.331H8.889l2.665-2.548a12.609,12.609,0,0,0,2.015-2.476,6.172,6.172,0,0,0,.921-2.535,4.345,4.345,0,0,0-.311-2.249,3.411,3.411,0,0,0-1.4-1.564,4.436,4.436,0,0,0-2.288-.566,4.987,4.987,0,0,0-1.994.464,7.1,7.1,0,0,0-1.9,1.23,5.427,5.427,0,0,0-.683.719,1.332,1.332,0,0,0-.28.653.981.981,0,0,0,.309.818,1.128,1.128,0,0,0,.823.359,1.332,1.332,0,0,0,1.035-.51,4.919,4.919,0,0,1,1.15-1.005,2.219,2.219,0,0,1,1.158-.377,1.725,1.725,0,0,1,1.347.633,1.907,1.907,0,0,1,.457,1.494,3.442,3.442,0,0,1-.571,1.444A8.9,8.9,0,0,1,10.021,49.9L5.2,54.535a1.484,1.484,0,0,0-.479.933,1.129,1.129,0,0,0,.229.872,1.031,1.031,0,0,0,.839.344h6.766a1.3,1.3,0,0,0,.887-.331,1.248,1.248,0,0,0,.431-.826,1.063,1.063,0,0,0-.253-.854A1.045,1.045,0,0,0,12.8,54.331Z" transform="translate(-4.709 -42.214)" fill="#2BB673"/>
          <path id="Path_1304" data-name="Path 1304" d="M24.719,44.389a3.879,3.879,0,0,0-2.221.693,5.753,5.753,0,0,0-1.461,1.379,2.734,2.734,0,0,0-3-2.071,3.826,3.826,0,0,0-1.938.518,5.872,5.872,0,0,0-1.351,1.058l.01-.082a1.177,1.177,0,0,0-.265-.925,1.109,1.109,0,0,0-.875-.37,1.368,1.368,0,0,0-.954.37,1.439,1.439,0,0,0-.459.925L11.338,54.1a1.171,1.171,0,0,0,.265.925,1.1,1.1,0,0,0,.875.372,1.362,1.362,0,0,0,.954-.372,1.435,1.435,0,0,0,.459-.925l.535-5.093a2.552,2.552,0,0,1,.776-1.625,2.432,2.432,0,0,1,1.749-.642,1.449,1.449,0,0,1,1.37.592,2.772,2.772,0,0,1,.239,1.675L18.024,54.1a1.173,1.173,0,0,0,.265.925,1.1,1.1,0,0,0,.875.372,1.362,1.362,0,0,0,.954-.372,1.431,1.431,0,0,0,.459-.925l.535-5.093a2.566,2.566,0,0,1,.775-1.625,2.439,2.439,0,0,1,1.75-.642,1.449,1.449,0,0,1,1.37.592,2.759,2.759,0,0,1,.239,1.675L24.711,54.1a1.164,1.164,0,0,0,.263.925,1.1,1.1,0,0,0,.875.372,1.362,1.362,0,0,0,.954-.372,1.431,1.431,0,0,0,.459-.925l.535-5.093a6.02,6.02,0,0,0-.413-3.376A2.734,2.734,0,0,0,24.719,44.389Z" transform="translate(-0.438 -40.926)" fill="#2BB673"/>
          <path id="Path_1305" data-name="Path 1305" d="M24.608,42.284a1.813,1.813,0,0,0-1.028.235,1.087,1.087,0,0,0-.421.841l-.039.378a.931.931,0,0,0,.222.841,1.523,1.523,0,0,0,.98.235,1.937,1.937,0,0,0,1.056-.222,1.108,1.108,0,0,0,.413-.854l.039-.378a.926.926,0,0,0-.222-.839A1.558,1.558,0,0,0,24.608,42.284Z" transform="translate(7.16 -42.284)" fill="#2BB673"/>
          <path id="Path_1306" data-name="Path 1306" d="M24.682,44.51a1.368,1.368,0,0,0-.954.37,1.437,1.437,0,0,0-.457.925l-.864,8.217a1.164,1.164,0,0,0,.263.925,1.1,1.1,0,0,0,.875.372,1.362,1.362,0,0,0,.954-.372,1.431,1.431,0,0,0,.459-.925l.864-8.217a1.175,1.175,0,0,0-.265-.925A1.107,1.107,0,0,0,24.682,44.51Z" transform="translate(6.701 -40.848)" fill="#2BB673"/>
          <path id="Path_1307" data-name="Path 1307" d="M34.883,45.629a2.844,2.844,0,0,0-2.744-1.24,4.036,4.036,0,0,0-2,.528,5.907,5.907,0,0,0-1.392,1.068l.012-.1a1.177,1.177,0,0,0-.265-.925,1.107,1.107,0,0,0-.875-.37,1.368,1.368,0,0,0-.954.37,1.437,1.437,0,0,0-.457.925L25.346,54.1a1.164,1.164,0,0,0,.263.925,1.108,1.108,0,0,0,.875.372,1.359,1.359,0,0,0,.954-.372A1.428,1.428,0,0,0,27.9,54.1l.535-5.093a2.5,2.5,0,0,1,.8-1.624,2.6,2.6,0,0,1,1.819-.643,1.574,1.574,0,0,1,1.443.594,2.626,2.626,0,0,1,.266,1.673L32.23,54.1a1.164,1.164,0,0,0,.263.925,1.108,1.108,0,0,0,.875.372,1.366,1.366,0,0,0,.956-.372,1.447,1.447,0,0,0,.459-.925l.535-5.093A5.886,5.886,0,0,0,34.883,45.629Z" transform="translate(8.597 -40.926)" fill="#2BB673"/>
        </g>
      </g>
    </g>
  </g>
</svg>
