<svg width="33" height="33" viewBox="0 0 33 33" fill="none" xmlns="http://www.w3.org/2000/svg">
<g clip-path="url(#clip0)">
<path d="M23.5996 0.949219H18.5996C18.1854 0.949219 17.8496 1.28501 17.8496 1.69922V3.19922C17.8496 3.61343 18.1854 3.94922 18.5996 3.94922H23.5996C24.0138 3.94922 24.3496 3.61343 24.3496 3.19922V1.69922C24.3496 1.28501 24.0138 0.949219 23.5996 0.949219Z" fill="#2BB673"/>
<path d="M9.09961 11.9492H4.09961C3.9007 11.9492 3.70993 12.0282 3.56928 12.1689C3.42863 12.3095 3.34961 12.5003 3.34961 12.6992C3.34961 12.8981 3.42863 13.0889 3.56928 13.2295C3.70993 13.3702 3.9007 13.4492 4.09961 13.4492H9.09961C9.29852 13.4492 9.48929 13.3702 9.62994 13.2295C9.77059 13.0889 9.84961 12.8981 9.84961 12.6992C9.84961 12.5003 9.77059 12.3095 9.62994 12.1689C9.48929 12.0282 9.29852 11.9492 9.09961 11.9492Z" fill="#2BB673"/>
<path d="M8.84961 18.6992C8.84961 18.5003 8.77059 18.3095 8.62994 18.1689C8.48929 18.0282 8.29852 17.9492 8.09961 17.9492H3.09961C2.9007 17.9492 2.70993 18.0282 2.56928 18.1689C2.42863 18.3095 2.34961 18.5003 2.34961 18.6992C2.34961 18.8981 2.42863 19.0889 2.56928 19.2295C2.70993 19.3702 2.9007 19.4492 3.09961 19.4492H8.09961C8.29852 19.4492 8.48929 19.3702 8.62994 19.2295C8.77059 19.0889 8.84961 18.8981 8.84961 18.6992Z" fill="#2BB673"/>
<path d="M8.59961 20.9492H5.09961C4.9007 20.9492 4.70993 21.0282 4.56928 21.1689C4.42863 21.3095 4.34961 21.5003 4.34961 21.6992C4.34961 21.8981 4.42863 22.0889 4.56928 22.2295C4.70993 22.3702 4.9007 22.4492 5.09961 22.4492H8.59961C8.79852 22.4492 8.98929 22.3702 9.12994 22.2295C9.27059 22.0889 9.34961 21.8981 9.34961 21.6992C9.34961 21.5003 9.27059 21.3095 9.12994 21.1689C8.98929 21.0282 8.79852 20.9492 8.59961 20.9492Z" fill="#2BB673"/>
<path d="M8.84961 15.6992C8.84961 15.5003 8.77059 15.3095 8.62994 15.1689C8.48929 15.0282 8.29852 14.9492 8.09961 14.9492H1.59961C1.4007 14.9492 1.20993 15.0282 1.06928 15.1689C0.928627 15.3095 0.849609 15.5003 0.849609 15.6992C0.849609 15.8981 0.928627 16.0889 1.06928 16.2295C1.20993 16.3702 1.4007 16.4492 1.59961 16.4492H8.09961C8.29852 16.4492 8.48929 16.3702 8.62994 16.2295C8.77059 16.0889 8.84961 15.8981 8.84961 15.6992Z" fill="#2BB673"/>
<path d="M21.0996 17.1992V8.69922C16.4127 8.69922 12.5996 12.5123 12.5996 17.1992C12.5996 21.8862 16.4127 25.6992 21.0996 25.6992C25.7865 25.6992 29.5996 21.8862 29.5996 17.1992H21.0996Z" fill="#2BB673"/>
<path d="M29.3257 9.53378L30.1299 8.72953C30.2005 8.6601 30.2566 8.57738 30.2951 8.48614C30.3335 8.3949 30.3535 8.29696 30.3539 8.19795C30.3543 8.09895 30.3351 8.00084 30.2974 7.9093C30.2597 7.81775 30.2043 7.73458 30.1343 7.66457C30.0643 7.59456 29.9811 7.53911 29.8895 7.50141C29.798 7.46371 29.6999 7.4445 29.6009 7.44491C29.5019 7.44531 29.4039 7.46531 29.3127 7.50376C29.2215 7.5422 29.1387 7.59833 29.0693 7.66891L28.2323 8.50584C26.6204 7.17799 24.6694 6.3271 22.5996 6.04922V4.69922H19.5996V6.04922C17.5298 6.32699 15.5789 7.17775 13.9669 8.50547L13.1299 7.66853C13.0605 7.59796 12.9778 7.54183 12.8865 7.50338C12.7953 7.46494 12.6974 7.44493 12.5983 7.44453C12.4993 7.44413 12.4012 7.46333 12.3097 7.50103C12.2181 7.53873 12.135 7.59419 12.065 7.6642C11.995 7.7342 11.9395 7.81738 11.9018 7.90892C11.8641 8.00047 11.8449 8.09857 11.8453 8.19758C11.8457 8.29658 11.8657 8.39453 11.9042 8.48576C11.9426 8.577 11.9987 8.65972 12.0693 8.72916L12.8735 9.53341C10.9286 11.612 9.84753 14.3527 9.84961 17.1992C9.84961 23.4025 14.8964 28.4492 21.0996 28.4492C27.3029 28.4492 32.3496 23.4025 32.3496 17.1992C32.3516 14.3528 31.2705 11.6122 29.3257 9.53378ZM21.0996 26.4492C19.2701 26.4492 17.4817 25.9067 15.9606 24.8903C14.4394 23.8739 13.2538 22.4293 12.5537 20.739C11.8536 19.0488 11.6704 17.189 12.0273 15.3946C12.3843 13.6003 13.2652 11.9521 14.5589 10.6585C15.8525 9.36484 17.5007 8.48387 19.295 8.12696C21.0893 7.77004 22.9492 7.95322 24.6394 8.65333C26.3297 9.35344 27.7743 10.539 28.7907 12.0602C29.8071 13.5813 30.3496 15.3697 30.3496 17.1992C30.3496 18.4139 30.1104 19.6168 29.6455 20.739C29.1806 21.8613 28.4993 22.881 27.6404 23.74C26.7814 24.5989 25.7617 25.2802 24.6394 25.7451C23.5172 26.21 22.3143 26.4492 21.0996 26.4492Z" fill="#2BB673"/>
</g>
<defs>
<clipPath id="clip0">
<rect width="32" height="32" fill="white" transform="translate(0.601562 0.200195)"/>
</clipPath>
</defs>
</svg>
