<svg width="32" height="33" viewBox="0 0 32 33" fill="none" xmlns="http://www.w3.org/2000/svg">
<path d="M24.9961 28.6006V27.6006C24.9961 27.0702 24.7854 26.5614 24.4103 26.1864C24.0352 25.8113 23.5265 25.6006 22.9961 25.6006H20.9961C22.057 25.6006 23.0744 25.1792 23.8245 24.429C24.5747 23.6789 24.9961 22.6615 24.9961 21.6006V11.1006C24.9961 8.58103 23.9952 6.16467 22.2136 4.38307C20.432 2.60148 18.0157 1.60059 15.4961 1.60059V4.10059L8.20109 11.0106C7.73952 11.4502 7.43217 12.027 7.32475 12.6552C7.21733 13.2835 7.31558 13.9297 7.60489 14.4976C7.8942 15.0656 8.35912 15.525 8.93049 15.8075C9.50185 16.09 10.1491 16.1805 10.7761 16.0656C16.2061 15.0606 15.9361 15.1006 15.9961 15.1006C16.6591 15.1006 17.295 14.8372 17.7639 14.3684C18.2327 13.8995 18.4961 13.2636 18.4961 12.6006C18.4961 12.468 18.5488 12.3408 18.6425 12.247C18.7363 12.1533 18.8635 12.1006 18.9961 12.1006C19.1287 12.1006 19.2559 12.1533 19.3496 12.247C19.4434 12.3408 19.4961 12.468 19.4961 12.6006C19.4961 14.9856 17.1611 16.3406 15.9111 16.1006C15.8423 16.2914 15.7322 16.4648 15.5887 16.6082C15.4453 16.7517 15.2719 16.8618 15.0811 16.9306C13.2995 17.5763 11.7598 18.7547 10.6711 20.3058C9.58249 21.857 8.99767 23.7056 8.99609 25.6006C8.46566 25.6006 7.95695 25.8113 7.58188 26.1864C7.20681 26.5614 6.99609 27.0702 6.99609 27.6006V28.6006C6.33305 28.6006 5.69717 28.864 5.22833 29.3328C4.75949 29.8017 4.49609 30.4375 4.49609 31.1006V31.6006H27.4961V31.1006C27.4961 30.4375 27.2327 29.8017 26.7639 29.3328C26.295 28.864 25.6591 28.6006 24.9961 28.6006ZM17.3611 4.35059C17.2425 4.30751 17.1446 4.22117 17.0869 4.1089C17.0293 3.99663 17.0163 3.86673 17.0505 3.74525C17.0846 3.62378 17.1635 3.51971 17.2712 3.45393C17.3788 3.38815 17.5074 3.36552 17.6311 3.39059C19.3173 3.85753 20.8039 4.8644 21.8632 6.25694C22.9226 7.64949 23.4961 9.35092 23.4961 11.1006V21.6006C23.4961 21.7332 23.4434 21.8604 23.3496 21.9541C23.2559 22.0479 23.1287 22.1006 22.9961 22.1006C22.8635 22.1006 22.7363 22.0479 22.6425 21.9541C22.5488 21.8604 22.4961 21.7332 22.4961 21.6006V11.1006C22.4926 9.56962 21.9891 8.0817 21.0622 6.86324C20.1352 5.64477 18.8356 4.76247 17.3611 4.35059Z" fill="#2BB673"/>
</svg>
