<svg xmlns="http://www.w3.org/2000/svg" width="63.784" height="80" viewBox="0 0 63.784 80">
  <g id="icon" transform="translate(-44.998)">
    <path id="Path_172" data-name="Path 172" d="M104.05,0H49.73A4.737,4.737,0,0,0,45,4.732V75.268A4.737,4.737,0,0,0,49.73,80h54.32a4.737,4.737,0,0,0,4.732-4.732V4.732A4.737,4.737,0,0,0,104.05,0Zm2.029,75.268A2.031,2.031,0,0,1,104.05,77.3H49.73A2.031,2.031,0,0,1,47.7,75.268V4.732A2.031,2.031,0,0,1,49.73,2.7h54.32a2.031,2.031,0,0,1,2.029,2.029Z" fill="#2BB673"/>
    <path id="Path_173" data-name="Path 173" d="M123.871,47.908H70.9a.9.9,0,0,0-.9.9v60.933a.9.9,0,0,0,.9.9h52.973a.9.9,0,0,0,.9-.9V48.809A.9.9,0,0,0,123.871,47.908Zm-.9,60.933H71.8V49.71H122.97Z" transform="translate(-20.494 -39.276)" fill="#2BB673"/>
    <path id="Path_174" data-name="Path 174" d="M215.843,406.478a1.353,1.353,0,1,0,.955.4A1.361,1.361,0,0,0,215.843,406.478Z" transform="translate(-138.953 -333.235)" fill="#2BB673"/>
    <path id="Path_175" data-name="Path 175" d="M217.893,29.05a.9.9,0,1,0-.638-.263A.906.906,0,0,0,217.893,29.05Z" transform="translate(-141.003 -22.338)" fill="#2BB673"/>
  </g>
</svg>
