<svg xmlns="http://www.w3.org/2000/svg" width="179.071" height="167.151" viewBox="0 0 179.071 167.151">
  <g id="icon" transform="translate(-797.365 -1478.111)">
    <path id="bg" d="M-959.6,1519.9c32.253-32.648,89.951-23.637,97.532,13.262s-6.534,29.3-15.209,83.009-119.518,15.913-87.176-23.46S-991.857,1552.544-959.6,1519.9Z" transform="translate(2705.244 1568.569) rotate(60)" fill="#fff2f2"/>
    <g id="Group_1322" data-name="Group 1322" transform="translate(841.676 1512.001)">
      <path id="Path_1293" data-name="Path 1293" d="M38.509,50a5.833,5.833,0,1,0,5.833,5.833A5.84,5.84,0,0,0,38.509,50Zm0,8.333a2.5,2.5,0,1,1,2.5-2.5A2.5,2.5,0,0,1,38.509,58.332Z" transform="translate(16.901 33.332)" fill="#e50019"/>
      <path id="Path_1294" data-name="Path 1294" d="M43.343,42.332a6.667,6.667,0,1,0-6.667-6.667A6.673,6.673,0,0,0,43.343,42.332Zm0-10a3.333,3.333,0,1,1-3.333,3.333A3.337,3.337,0,0,1,43.343,32.332Z" transform="translate(19.568 19.333)" fill="#e50019"/>
      <path id="Path_1295" data-name="Path 1295" d="M17.343,14.666a1.662,1.662,0,0,0,1.178-.488l3.333-3.333A1.666,1.666,0,0,0,19.5,8.487l-3.333,3.333a1.667,1.667,0,0,0,1.178,2.845Z" transform="translate(5.568 5.333)" fill="#e50019"/>
      <path id="Path_1296" data-name="Path 1296" d="M82.91,49.578A5.454,5.454,0,0,0,81.3,45.7l-.928-.928a7.488,7.488,0,0,0-4.965-13.1,7.332,7.332,0,0,0-.9.067,7.332,7.332,0,0,0,.067-.9,7.509,7.509,0,0,0-7.5-7.5,7.333,7.333,0,0,0-.9.067,7.332,7.332,0,0,0,.067-.9,7.509,7.509,0,0,0-7.5-7.5,7.333,7.333,0,0,0-.9.067,7.331,7.331,0,0,0,.067-.9A7.488,7.488,0,0,0,44.805,9.2L43.482,7.877,37.21,1.605a5.493,5.493,0,0,0-7.763,0L8.927,22.125a5.5,5.5,0,0,0,0,7.765L15.2,36.162l8.183,8.183a7.457,7.457,0,0,0-.443,12.733,2.467,2.467,0,0,0,.378.4L41.244,75.34v2.993H37.91V100H81.243V78.333H77.91v-5.05a14.1,14.1,0,0,0,2.44-18.871l.952-.952A5.454,5.454,0,0,0,82.91,49.578ZM79.577,39.165a4.162,4.162,0,0,1-1.562,3.245l-5.852-5.852a4.163,4.163,0,0,1,7.413,2.607Zm-8.333-8.333a4.162,4.162,0,0,1-1.562,3.245L63.83,28.225a4.163,4.163,0,0,1,7.413,2.607ZM62.91,22.5a4.162,4.162,0,0,1-1.562,3.245L55.5,19.892A4.163,4.163,0,0,1,62.91,22.5ZM50.41,10a4.162,4.162,0,0,1,2.6,7.412l-5.852-5.852A4.169,4.169,0,0,1,50.41,10ZM11.284,27.535a2.163,2.163,0,0,1,0-3.052L31.8,3.964a1.592,1.592,0,0,1,1.082-.543,2.093,2.093,0,0,1,.887,0,2.126,2.126,0,0,1,.372.073,2.162,2.162,0,0,1,.71.47l3.915,3.915L15.2,31.448Zm29.841-17.3L43.089,12.2l8.333,8.333.955.955,7.378,7.378.955.955L68.088,37.2l.955.955,8.333,8.333,1.567,1.567a2.158,2.158,0,0,1,0,3.05l-.728.73h0L58.425,71.625a2.16,2.16,0,0,1-3.052,0L42.082,58.331h1.66a7.5,7.5,0,0,0,0-15H27.081l-9.527-9.527ZM26.177,46.768l.692-.078a1.428,1.428,0,0,1,.207-.025H43.742a4.167,4.167,0,1,1,0,8.333H27.076a4.164,4.164,0,0,1-.9-8.23Zm15.066,49.9v-15H55.287a9.3,9.3,0,0,1,9.29,9.29v5.71Zm36.666,0h-10v-5.71a12.58,12.58,0,0,0-4.107-9.29H77.91Zm.042-39.853A10.785,10.785,0,0,1,75.24,71.15l-.663.5v6.682h-30V73.8l-.588-.5c-.075-.065-.155-.125-.3-.233L28.892,58.33h8.475L53.015,73.98a5.5,5.5,0,0,0,7.765,0Z" transform="translate(0 0)" fill="#e50019"/>
    </g>
  </g>
</svg>
