<svg xmlns="http://www.w3.org/2000/svg" width="179.071" height="167.151" viewBox="0 0 179.071 167.151">
  <g id="icon" transform="translate(-630.365 -1210.111)">
    <path id="bg" d="M-959.6,1519.9c32.253-32.648,89.951-23.637,97.532,13.262s-6.534,29.3-15.209,83.009-119.518,15.913-87.176-23.46S-991.857,1552.544-959.6,1519.9Z" transform="translate(2538.244 1300.569) rotate(60)" fill="#fff2f2"/>
    <g id="Group_1320" data-name="Group 1320" transform="translate(677.389 1244)">
      <path id="Path_1287" data-name="Path 1287" d="M64.839,0H19.677a8.074,8.074,0,0,0-8.065,8.063V91.935A8.077,8.077,0,0,0,19.677,100H64.839A8.077,8.077,0,0,0,72.9,91.935V8.063A8.074,8.074,0,0,0,64.839,0Zm4.838,91.935a4.839,4.839,0,0,1-4.838,4.838H19.677a4.839,4.839,0,0,1-4.838-4.838V83.87H69.677Zm0-11.29H14.839V16.128H69.677Zm0-67.743H14.839V8.063a4.839,4.839,0,0,1,4.838-4.838H64.839a4.839,4.839,0,0,1,4.838,4.838Z" transform="translate(0)" fill="#e50019"/>
      <path id="Path_1288" data-name="Path 1288" d="M40.321,3.87H25.806a1.613,1.613,0,1,0,0,3.227H40.321a1.613,1.613,0,1,0,0-3.227Z" transform="translate(8.387 2.58)" fill="#e50019"/>
      <path id="Path_1289" data-name="Path 1289" d="M39.031,3.87H37.419a1.613,1.613,0,0,0,0,3.227h1.612a1.613,1.613,0,1,0,0-3.227Z" transform="translate(16.129 2.58)" fill="#e50019"/>
      <path id="Path_1290" data-name="Path 1290" d="M31.936,60.967a4.838,4.838,0,1,0-4.84-4.838A4.839,4.839,0,0,0,31.936,60.967Zm0-6.452a1.613,1.613,0,1,1-1.613,1.613A1.613,1.613,0,0,1,31.936,54.515Z" transform="translate(10.323 34.193)" fill="#e50019"/>
    </g>
  </g>
</svg>
