<svg width="16" height="12" viewBox="0 0 16 12" fill="none" xmlns="http://www.w3.org/2000/svg">
<path d="M11.9238 5.26904C12.8538 5.13838 13.5698 4.34104 13.5718 3.37504C13.5718 2.42304 12.8778 1.63371 11.9678 1.48438" stroke="url(#paint0_linear)" stroke-width="1.5" stroke-linecap="round" stroke-linejoin="round"/>
<path d="M13.1523 7.5C14.053 7.63467 14.6817 7.95 14.6817 8.6C14.6817 9.04733 14.3857 9.338 13.907 9.52067" stroke="url(#paint1_linear)" stroke-width="1.5" stroke-linecap="round" stroke-linejoin="round"/>
<path fill-rule="evenodd" clip-rule="evenodd" d="M7.92384 7.77734C5.78117 7.77734 3.95117 8.10201 3.95117 9.39868C3.95117 10.6947 5.76984 11.0287 7.92384 11.0287C10.0665 11.0287 11.8958 10.7073 11.8958 9.41001C11.8958 8.11268 10.0778 7.77734 7.92384 7.77734Z" stroke="url(#paint2_linear)" stroke-width="1.5" stroke-linecap="round" stroke-linejoin="round"/>
<path fill-rule="evenodd" clip-rule="evenodd" d="M7.92297 5.92794C9.32897 5.92794 10.469 4.7886 10.469 3.38194C10.469 1.97594 9.32897 0.835938 7.92297 0.835938C6.51697 0.835938 5.37697 1.97594 5.37697 3.38194C5.37164 4.78327 6.50297 5.92327 7.90431 5.92794H7.92297Z" stroke="url(#paint3_linear)" stroke-width="1.5" stroke-linecap="round" stroke-linejoin="round"/>
<path d="M3.92144 5.26904C2.99077 5.13838 2.27544 4.34104 2.27344 3.37504C2.27344 2.42304 2.96744 1.63371 3.87744 1.48438" stroke="url(#paint4_linear)" stroke-width="1.5" stroke-linecap="round" stroke-linejoin="round"/>
<path d="M2.69535 7.5C1.79468 7.63467 1.16602 7.95 1.16602 8.6C1.16602 9.04733 1.46202 9.338 1.94068 9.52067" stroke="url(#paint5_linear)" stroke-width="1.5" stroke-linecap="round" stroke-linejoin="round"/>
<defs>
<linearGradient id="paint0_linear" x1="13.634" y1="9.96608" x2="11.1987" y2="9.72859" gradientUnits="userSpaceOnUse">
<stop stop-color="#7BC3E4"/>
<stop offset="1" stop-color="#175186"/>
</linearGradient>
<linearGradient id="paint1_linear" x1="14.7394" y1="12.0285" x2="12.5216" y2="11.6526" gradientUnits="userSpaceOnUse">
<stop stop-color="#7BC3E4"/>
<stop offset="1" stop-color="#175186"/>
</linearGradient>
<linearGradient id="paint2_linear" x1="12.1956" y1="15.0638" x2="3.0751" y2="10.0727" gradientUnits="userSpaceOnUse">
<stop stop-color="#7BC3E4"/>
<stop offset="1" stop-color="#175186"/>
</linearGradient>
<linearGradient id="paint3_linear" x1="10.6611" y1="12.2475" x2="3.42767" y2="10.6275" gradientUnits="userSpaceOnUse">
<stop stop-color="#7BC3E4"/>
<stop offset="1" stop-color="#175186"/>
</linearGradient>
<linearGradient id="paint4_linear" x1="3.98363" y1="9.96608" x2="1.54831" y2="9.72859" gradientUnits="userSpaceOnUse">
<stop stop-color="#7BC3E4"/>
<stop offset="1" stop-color="#175186"/>
</linearGradient>
<linearGradient id="paint5_linear" x1="2.75306" y1="12.0285" x2="0.535321" y2="11.6526" gradientUnits="userSpaceOnUse">
<stop stop-color="#7BC3E4"/>
<stop offset="1" stop-color="#175186"/>
</linearGradient>
</defs>
</svg>
