<svg width="16" height="16" viewBox="0 0 16 16" fill="none" xmlns="http://www.w3.org/2000/svg">
<path fill-rule="evenodd" clip-rule="evenodd" d="M2 4.33333C2 2.58319 2.01874 2 4.33333 2C6.64793 2 6.66667 2.58319 6.66667 4.33333C6.66667 6.08348 6.67405 6.66667 4.33333 6.66667C1.99262 6.66667 2 6.08348 2 4.33333Z" stroke="url(#paint0_linear)" stroke-width="1.5" stroke-linecap="round" stroke-linejoin="round"/>
<path fill-rule="evenodd" clip-rule="evenodd" d="M9.33203 4.33333C9.33203 2.58319 9.35077 2 11.6654 2C13.98 2 13.9987 2.58319 13.9987 4.33333C13.9987 6.08348 14.0061 6.66667 11.6654 6.66667C9.32465 6.66667 9.33203 6.08348 9.33203 4.33333Z" stroke="url(#paint1_linear)" stroke-width="1.5" stroke-linecap="round" stroke-linejoin="round"/>
<path fill-rule="evenodd" clip-rule="evenodd" d="M2 11.6654C2 9.91522 2.01874 9.33203 4.33333 9.33203C6.64793 9.33203 6.66667 9.91522 6.66667 11.6654C6.66667 13.4155 6.67405 13.9987 4.33333 13.9987C1.99262 13.9987 2 13.4155 2 11.6654Z" stroke="url(#paint2_linear)" stroke-width="1.5" stroke-linecap="round" stroke-linejoin="round"/>
<path fill-rule="evenodd" clip-rule="evenodd" d="M9.33203 11.6654C9.33203 9.91522 9.35077 9.33203 11.6654 9.33203C13.98 9.33203 13.9987 9.91522 13.9987 11.6654C13.9987 13.4155 14.0061 13.9987 11.6654 13.9987C9.32465 13.9987 9.33203 13.4155 9.33203 11.6654Z" stroke="url(#paint3_linear)" stroke-width="1.5" stroke-linecap="round" stroke-linejoin="round"/>
<defs>
<linearGradient id="paint0_linear" x1="6.84277" y1="12.4583" x2="0.213542" y2="10.9737" gradientUnits="userSpaceOnUse">
<stop stop-color="#7BC3E4"/>
<stop offset="1" stop-color="#175186"/>
</linearGradient>
<linearGradient id="paint1_linear" x1="14.1748" y1="12.4583" x2="7.54557" y2="10.9737" gradientUnits="userSpaceOnUse">
<stop stop-color="#7BC3E4"/>
<stop offset="1" stop-color="#175186"/>
</linearGradient>
<linearGradient id="paint2_linear" x1="6.84277" y1="19.7904" x2="0.213541" y2="18.3057" gradientUnits="userSpaceOnUse">
<stop stop-color="#7BC3E4"/>
<stop offset="1" stop-color="#175186"/>
</linearGradient>
<linearGradient id="paint3_linear" x1="14.1748" y1="19.7904" x2="7.54557" y2="18.3057" gradientUnits="userSpaceOnUse">
<stop stop-color="#7BC3E4"/>
<stop offset="1" stop-color="#175186"/>
</linearGradient>
</defs>
</svg>
