<svg width="16" height="16" viewBox="0 0 16 16" fill="none" xmlns="http://www.w3.org/2000/svg">
<path fill-rule="evenodd" clip-rule="evenodd" d="M11.9073 13.6113C13.1559 13.6113 14.1686 12.5993 14.1693 11.3507V11.3493V9.54933C13.3446 9.54933 12.6766 8.88133 12.6759 8.05667C12.6759 7.23267 13.3439 6.564 14.1686 6.564H14.1693V4.764C14.1706 3.51467 13.1593 2.50133 11.9106 2.5H11.9066H4.0986C2.84927 2.5 1.8366 3.512 1.83594 4.76133V4.762V6.622C2.63194 6.594 3.29927 7.21667 3.32727 8.01267C3.32794 8.02733 3.3286 8.042 3.3286 8.05667C3.32927 8.88 2.66327 9.548 1.83994 9.54933H1.83594V11.3493C1.83527 12.598 2.84794 13.6113 4.0966 13.6113H4.09727H11.9073Z" stroke="url(#paint0_linear)" stroke-width="1.5" stroke-linecap="round" stroke-linejoin="round"/>
<path fill-rule="evenodd" clip-rule="evenodd" d="M8.24902 6.04072L8.65969 6.87205C8.69969 6.95339 8.77702 7.01005 8.86702 7.02339L9.78502 7.15739C10.0124 7.19072 10.1024 7.46939 9.93836 7.62872L9.27436 8.27539C9.20902 8.33872 9.17969 8.43005 9.19436 8.52005L9.35102 9.43339C9.38969 9.65939 9.15302 9.83139 8.95036 9.72472L8.12969 9.29339C8.04902 9.25072 7.95302 9.25072 7.87236 9.29339L7.05236 9.72472C6.84902 9.83139 6.61236 9.65939 6.65102 9.43339L6.80769 8.52005C6.82302 8.43005 6.79302 8.33872 6.72769 8.27539L6.06436 7.62872C5.90036 7.46939 5.99036 7.19072 6.21702 7.15739L7.13502 7.02339C7.22502 7.01005 7.30302 6.95339 7.34302 6.87205L7.75302 6.04072C7.85436 5.83539 8.14769 5.83539 8.24902 6.04072Z" stroke="url(#paint1_linear)" stroke-width="1.5" stroke-linecap="round" stroke-linejoin="round"/>
<defs>
<linearGradient id="paint0_linear" x1="14.6347" y1="27.4013" x2="-2.69338" y2="23.0938" gradientUnits="userSpaceOnUse">
<stop stop-color="#7BC3E4"/>
<stop offset="1" stop-color="#175186"/>
</linearGradient>
<linearGradient id="paint1_linear" x1="10.1747" y1="14.5606" x2="4.45795" y2="13.2236" gradientUnits="userSpaceOnUse">
<stop stop-color="#7BC3E4"/>
<stop offset="1" stop-color="#175186"/>
</linearGradient>
</defs>
</svg>
