<svg width="99" height="99" viewBox="0 0 99 99" fill="none" xmlns="http://www.w3.org/2000/svg">
<circle cx="4.10919" cy="3.70685" r="3.70685" fill="#E2F1FF"/>
<circle cx="4.10919" cy="21.9041" r="3.70685" fill="#E2F1FF"/>
<circle cx="4.10919" cy="40.1014" r="3.70685" fill="#E2F1FF"/>
<circle cx="22.3065" cy="3.70685" r="3.70685" fill="#E2F1FF"/>
<circle cx="22.3065" cy="21.9041" r="3.70685" fill="#E2F1FF"/>
<circle cx="22.3065" cy="40.1014" r="3.70685" fill="#E2F1FF"/>
<circle cx="22.3065" cy="76.4959" r="3.70685" fill="#E2F1FF"/>
<circle cx="4.10919" cy="76.4959" r="3.70685" fill="#E2F1FF"/>
<circle cx="40.5037" cy="3.70685" r="3.70685" fill="#E2F1FF"/>
<circle cx="40.5037" cy="21.9041" r="3.70685" fill="#E2F1FF"/>
<circle cx="40.5037" cy="40.1014" r="3.70685" fill="#E2F1FF"/>
<circle cx="40.5037" cy="58.2986" r="3.70685" fill="#E2F1FF"/>
<circle cx="40.5037" cy="76.4959" r="3.70685" fill="#E2F1FF"/>
<circle cx="40.5037" cy="94.6932" r="3.70685" fill="#E2F1FF"/>
<circle cx="22.5096" cy="94.6932" r="3.70685" fill="#E2F1FF"/>
<circle cx="4.51544" cy="94.6932" r="3.70685" fill="#E2F1FF"/>
<circle cx="58.699" cy="3.70685" r="3.70685" fill="#E2F1FF"/>
<circle cx="58.699" cy="21.9041" r="3.70685" fill="#E2F1FF"/>
<circle cx="58.699" cy="40.1014" r="3.70685" fill="#E2F1FF"/>
<circle cx="58.699" cy="58.2986" r="3.70685" fill="#E2F1FF"/>
<circle cx="58.699" cy="76.4959" r="3.70685" fill="#E2F1FF"/>
<circle cx="58.699" cy="94.6932" r="3.70685" fill="#E2F1FF"/>
<circle cx="76.9002" cy="3.70685" r="3.70685" fill="#E2F1FF"/>
<circle cx="76.9002" cy="21.9041" r="3.70685" fill="#E2F1FF"/>
<circle cx="76.9002" cy="40.1014" r="3.70685" fill="#E2F1FF"/>
<circle cx="76.9002" cy="58.2986" r="3.70685" fill="#E2F1FF"/>
<circle cx="76.9002" cy="76.4959" r="3.70685" fill="#E2F1FF"/>
<circle cx="76.9002" cy="94.6932" r="3.70685" fill="#E2F1FF"/>
<circle cx="95.0936" cy="3.70685" r="3.70685" fill="#E2F1FF"/>
<circle cx="95.0936" cy="21.9041" r="3.70685" fill="#E2F1FF"/>
<circle cx="95.0936" cy="40.1014" r="3.70685" fill="#E2F1FF"/>
<circle cx="95.0936" cy="58.2986" r="3.70685" fill="#E2F1FF"/>
<circle cx="95.0936" cy="76.4959" r="3.70685" fill="#E2F1FF"/>
<circle cx="95.0936" cy="94.6932" r="3.70685" fill="#E2F1FF"/>
</svg>
