<svg width="99" height="99" viewBox="0 0 99 99" fill="none" xmlns="http://www.w3.org/2000/svg">
<circle r="3.70685" transform="matrix(-1 0 0 1 94.6916 4.30744)" fill="#E2F1FF"/>
<circle r="3.70685" transform="matrix(-1 0 0 1 94.6916 22.5047)" fill="#E2F1FF"/>
<circle r="3.70685" transform="matrix(-1 0 0 1 94.6916 40.702)" fill="#E2F1FF"/>
<circle r="3.70685" transform="matrix(-1 0 0 1 76.4963 4.30744)" fill="#E2F1FF"/>
<circle r="3.70685" transform="matrix(-1 0 0 1 76.4963 22.5047)" fill="#E2F1FF"/>
<circle r="3.70685" transform="matrix(-1 0 0 1 76.4963 40.702)" fill="#E2F1FF"/>
<circle r="3.70685" transform="matrix(-1 0 0 1 76.4963 77.0965)" fill="#E2F1FF"/>
<circle r="3.70685" transform="matrix(-1 0 0 1 94.6916 77.0965)" fill="#E2F1FF"/>
<circle r="3.70685" transform="matrix(-1 0 0 1 58.2971 4.30744)" fill="#E2F1FF"/>
<circle r="3.70685" transform="matrix(-1 0 0 1 58.2971 22.5047)" fill="#E2F1FF"/>
<circle r="3.70685" transform="matrix(-1 0 0 1 58.2971 40.702)" fill="#E2F1FF"/>
<circle r="3.70685" transform="matrix(-1 0 0 1 58.2971 58.8992)" fill="#E2F1FF"/>
<circle r="3.70685" transform="matrix(-1 0 0 1 58.2971 77.0965)" fill="#E2F1FF"/>
<circle r="3.70685" transform="matrix(-1 0 0 1 58.2971 95.2938)" fill="#E2F1FF"/>
<circle r="3.70685" transform="matrix(-1 0 0 1 76.2932 95.2938)" fill="#E2F1FF"/>
<circle r="3.70685" transform="matrix(-1 0 0 1 94.2853 95.2938)" fill="#E2F1FF"/>
<circle r="3.70685" transform="matrix(-1 0 0 1 40.1017 4.30744)" fill="#E2F1FF"/>
<circle r="3.70685" transform="matrix(-1 0 0 1 40.1017 22.5047)" fill="#E2F1FF"/>
<circle r="3.70685" transform="matrix(-1 0 0 1 40.1017 40.702)" fill="#E2F1FF"/>
<circle r="3.70685" transform="matrix(-1 0 0 1 40.1017 58.8992)" fill="#E2F1FF"/>
<circle r="3.70685" transform="matrix(-1 0 0 1 40.1017 77.0965)" fill="#E2F1FF"/>
<circle r="3.70685" transform="matrix(-1 0 0 1 40.1017 95.2938)" fill="#E2F1FF"/>
<circle r="3.70685" transform="matrix(-1 0 0 1 21.9025 4.30744)" fill="#E2F1FF"/>
<circle r="3.70685" transform="matrix(-1 0 0 1 21.9025 22.5047)" fill="#E2F1FF"/>
<circle r="3.70685" transform="matrix(-1 0 0 1 21.9025 40.702)" fill="#E2F1FF"/>
<circle r="3.70685" transform="matrix(-1 0 0 1 21.9025 58.8992)" fill="#E2F1FF"/>
<circle r="3.70685" transform="matrix(-1 0 0 1 21.9025 77.0965)" fill="#E2F1FF"/>
<circle r="3.70685" transform="matrix(-1 0 0 1 21.9025 95.2938)" fill="#E2F1FF"/>
<circle r="3.70685" transform="matrix(-1 0 0 1 3.70721 4.30744)" fill="#E2F1FF"/>
<circle r="3.70685" transform="matrix(-1 0 0 1 3.70721 22.5047)" fill="#E2F1FF"/>
<circle r="3.70685" transform="matrix(-1 0 0 1 3.70721 40.702)" fill="#E2F1FF"/>
<circle r="3.70685" transform="matrix(-1 0 0 1 3.70721 58.8992)" fill="#E2F1FF"/>
<circle r="3.70685" transform="matrix(-1 0 0 1 3.70721 77.0965)" fill="#E2F1FF"/>
<circle r="3.70685" transform="matrix(-1 0 0 1 3.70721 95.2938)" fill="#E2F1FF"/>
</svg>
